<svg width="16" height="17" viewBox="0 0 16 17" fill="none" xmlns="http://www.w3.org/2000/svg">
<path d="M8.0012 10.5C5.88782 10.5 4.0084 11.5204 2.81187 13.104C2.55434 13.4448 2.42558 13.6152 2.42979 13.8455C2.43304 14.0235 2.54478 14.2479 2.68478 14.3578C2.86599 14.5 3.11712 14.5 3.61936 14.5H12.383C12.8853 14.5 13.1364 14.5 13.3176 14.3578C13.4576 14.2479 13.5694 14.0235 13.5726 13.8455C13.5768 13.6152 13.4481 13.4448 13.1905 13.104C11.994 11.5204 10.1146 10.5 8.0012 10.5Z" stroke="#999999" stroke-width="1.5" stroke-linecap="round" stroke-linejoin="round"/>
<path d="M8.0012 8.5C9.65806 8.5 11.0012 7.15685 11.0012 5.5C11.0012 3.84315 9.65806 2.5 8.0012 2.5C6.34435 2.5 5.0012 3.84315 5.0012 5.5C5.0012 7.15685 6.34435 8.5 8.0012 8.5Z" stroke="#999999" stroke-width="1.5" stroke-linecap="round" stroke-linejoin="round"/>
</svg>
