<svg width="60" height="60" viewBox="0 0 60 60" fill="none" xmlns="http://www.w3.org/2000/svg">
<path d="M13.1274 46.8749C13.1274 47.3722 12.9298 47.8491 12.5782 48.2008C12.2266 48.5524 11.7496 48.7499 11.2524 48.7499C10.7551 48.7499 10.2782 48.5524 9.92654 48.2008C9.57491 47.8491 9.37737 47.3722 9.37737 46.8749V13.9012L5.07987 18.2024C4.90554 18.3768 4.69858 18.5151 4.47081 18.6094C4.24303 18.7038 3.99891 18.7523 3.75237 18.7523C3.50583 18.7523 3.2617 18.7038 3.03393 18.6094C2.80616 18.5151 2.5992 18.3768 2.42487 18.2024C2.25054 18.0281 2.11225 17.8212 2.01791 17.5934C1.92356 17.3656 1.875 17.1215 1.875 16.8749C1.875 16.6284 1.92356 16.3843 2.01791 16.1565C2.11225 15.9287 2.25054 15.7218 2.42487 15.5474L9.92487 8.0512L9.95112 8.02495C10.3045 7.68439 10.7774 7.49598 11.2682 7.50019C11.759 7.5044 12.2286 7.70088 12.5761 8.04745L20.0761 15.5474C20.2504 15.7215 20.3888 15.9282 20.4832 16.1558C20.5777 16.3833 20.6264 16.6273 20.6265 16.8736C20.6267 17.12 20.5784 17.364 20.4842 17.5917C20.3901 17.8193 20.2521 18.0262 20.078 18.2006C19.9039 18.3749 19.6972 18.5132 19.4696 18.6077C19.2421 18.7021 18.9982 18.7508 18.7518 18.751C18.5055 18.7512 18.2615 18.7028 18.0338 18.6087C17.8061 18.5146 17.5992 18.3765 17.4249 18.2024L13.1274 13.9012V46.8749ZM26.2524 13.1249C26.2524 12.6277 26.4499 12.1508 26.8015 11.7991C27.1532 11.4475 27.6301 11.25 28.1274 11.25H54.3774C54.8746 11.25 55.3516 11.4475 55.7032 11.7991C56.0548 12.1508 56.2524 12.6277 56.2524 13.1249C56.2524 13.6222 56.0548 14.0991 55.7032 14.4508C55.3516 14.8024 54.8746 14.9999 54.3774 14.9999H28.1274C27.6301 14.9999 27.1532 14.8024 26.8015 14.4508C26.4499 14.0991 26.2524 13.6222 26.2524 13.1249ZM28.1274 22.4999C27.6301 22.4999 27.1532 22.6975 26.8015 23.0491C26.4499 23.4008 26.2524 23.8777 26.2524 24.3749C26.2524 24.8722 26.4499 25.3491 26.8015 25.7008C27.1532 26.0524 27.6301 26.2499 28.1274 26.2499H46.8774C47.3746 26.2499 47.8516 26.0524 48.2032 25.7008C48.5548 25.3491 48.7524 24.8722 48.7524 24.3749C48.7524 23.8777 48.5548 23.4008 48.2032 23.0491C47.8516 22.6975 47.3746 22.4999 46.8774 22.4999H28.1274ZM28.1274 33.7499C27.6301 33.7499 27.1532 33.9475 26.8015 34.2991C26.4499 34.6508 26.2524 35.1277 26.2524 35.6249C26.2524 36.1222 26.4499 36.5991 26.8015 36.9508C27.1532 37.3024 27.6301 37.4999 28.1274 37.4999H39.3774C39.8746 37.4999 40.3516 37.3024 40.7032 36.9508C41.0548 36.5991 41.2524 36.1222 41.2524 35.6249C41.2524 35.1277 41.0548 34.6508 40.7032 34.2991C40.3516 33.9475 39.8746 33.7499 39.3774 33.7499H28.1274ZM28.1274 44.9999C27.6301 44.9999 27.1532 45.1975 26.8015 45.5491C26.4499 45.9008 26.2524 46.3777 26.2524 46.8749C26.2524 47.3722 26.4499 47.8491 26.8015 48.2008C27.1532 48.5524 27.6301 48.7499 28.1274 48.7499H31.8774C32.3746 48.7499 32.8516 48.5524 33.2032 48.2008C33.5548 47.8491 33.7524 47.3722 33.7524 46.8749C33.7524 46.3777 33.5548 45.9008 33.2032 45.5491C32.8516 45.1975 32.3746 44.9999 31.8774 44.9999H28.1274Z" fill="#2F2D43"/>
</svg>
