<svg width="60" height="60" viewBox="0 0 60 60" fill="none" xmlns="http://www.w3.org/2000/svg">
<path d="M31.25 29.875C32.4583 28.5417 33.3858 27.0208 34.0325 25.3125C34.6792 23.6042 35.0017 21.8333 35 20C34.9983 18.1667 34.6758 16.3958 34.0325 14.6875C33.3892 12.9792 32.4617 11.4583 31.25 10.125C33.75 10.4583 35.8333 11.5625 37.5 13.4375C39.1667 15.3125 40 17.5 40 20C40 22.5 39.1667 24.6875 37.5 26.5625C35.8333 28.4375 33.75 29.5417 31.25 29.875ZM45 50V42.5C45 41 44.6667 39.5725 44 38.2175C43.3333 36.8625 42.4583 35.665 41.375 34.625C43.5 35.375 45.4692 36.3442 47.2825 37.5325C49.0958 38.7208 50.0017 40.3767 50 42.5V50H45ZM50 32.5V27.5H45V22.5H50V17.5H55V22.5H60V27.5H55V32.5H50ZM20 30C17.25 30 14.8958 29.0208 12.9375 27.0625C10.9792 25.1042 10 22.75 10 20C10 17.25 10.9792 14.8958 12.9375 12.9375C14.8958 10.9792 17.25 10 20 10C22.75 10 25.1042 10.9792 27.0625 12.9375C29.0208 14.8958 30 17.25 30 20C30 22.75 29.0208 25.1042 27.0625 27.0625C25.1042 29.0208 22.75 30 20 30ZM0 50V43C0 41.5833 0.365 40.2817 1.095 39.095C1.825 37.9083 2.79333 37.0017 4 36.375C6.58333 35.0833 9.20833 34.115 11.875 33.47C14.5417 32.825 17.25 32.5017 20 32.5C22.75 32.4983 25.4583 32.8217 28.125 33.47C30.7917 34.1183 33.4167 35.0867 36 36.375C37.2083 37 38.1775 37.9067 38.9075 39.095C39.6375 40.2833 40.0017 41.585 40 43V50H0ZM20 25C21.375 25 22.5525 24.5108 23.5325 23.5325C24.5125 22.5542 25.0017 21.3767 25 20C24.9983 18.6233 24.5092 17.4467 23.5325 16.47C22.5558 15.4933 21.3783 15.0033 20 15C18.6217 14.9967 17.445 15.4867 16.47 16.47C15.495 17.4533 15.005 18.63 15 20C14.995 21.37 15.485 22.5475 16.47 23.5325C17.455 24.5175 18.6317 25.0067 20 25ZM5 45H35V43C35 42.5417 34.8858 42.125 34.6575 41.75C34.4292 41.375 34.1267 41.0833 33.75 40.875C31.5 39.75 29.2292 38.9067 26.9375 38.345C24.6458 37.7833 22.3333 37.5017 20 37.5C17.6667 37.4983 15.3542 37.78 13.0625 38.345C10.7708 38.91 8.5 39.7533 6.25 40.875C5.875 41.0833 5.5725 41.375 5.3425 41.75C5.1125 42.125 4.99833 42.5417 5 43V45Z" fill="#2F2D43"/>
</svg>
