<svg width="17" height="17" viewBox="0 0 17 17" fill="none" xmlns="http://www.w3.org/2000/svg">
<path d="M16.1156 12.6781C15.9763 13.7367 15.4564 14.7084 14.6531 15.4117C13.8497 16.1151 12.8177 16.5019 11.75 16.5C5.54688 16.5 0.500007 11.4531 0.500007 5.24996C0.498093 4.18222 0.884919 3.15029 1.58824 2.34691C2.29155 1.54353 3.26326 1.02364 4.32188 0.884339C4.58958 0.851652 4.86067 0.906419 5.09468 1.04046C5.3287 1.17451 5.51309 1.38064 5.62032 1.62809L7.27032 5.31168V5.32106C7.35242 5.51047 7.38633 5.71728 7.36901 5.92299C7.3517 6.12871 7.2837 6.32693 7.1711 6.49996C7.15704 6.52106 7.14219 6.54059 7.12657 6.56012L5.50001 8.48825C6.08516 9.67731 7.32891 10.9101 8.5336 11.4968L10.4352 9.87887C10.4538 9.86317 10.4734 9.84857 10.4938 9.83512C10.6666 9.71981 10.8655 9.64942 11.0725 9.63033C11.2794 9.61123 11.4878 9.64402 11.6789 9.72575L11.6891 9.73043L15.3695 11.3797C15.6174 11.4865 15.8241 11.6707 15.9585 11.9048C16.093 12.1388 16.1481 12.4101 16.1156 12.6781Z" fill="#333333"/>
</svg>
