<svg width="22" height="26" viewBox="0 0 22 26" fill="none" xmlns="http://www.w3.org/2000/svg">
<path d="M18.6662 12H2.66618V5.33333H18.6662M16.6662 20C16.1357 20 15.627 19.7893 15.252 19.4142C14.8769 19.0391 14.6662 18.5304 14.6662 18C14.6662 17.4696 14.8769 16.9609 15.252 16.5858C15.627 16.2107 16.1357 16 16.6662 16C17.1966 16 17.7053 16.2107 18.0804 16.5858C18.4555 16.9609 18.6662 17.4696 18.6662 18C18.6662 18.5304 18.4555 19.0391 18.0804 19.4142C17.7053 19.7893 17.1966 20 16.6662 20ZM4.66618 20C4.13575 20 3.62704 19.7893 3.25196 19.4142C2.87689 19.0391 2.66618 18.5304 2.66618 18C2.66618 17.4696 2.87689 16.9609 3.25196 16.5858C3.62704 16.2107 4.13575 16 4.66618 16C5.19661 16 5.70532 16.2107 6.08039 16.5858C6.45546 16.9609 6.66618 17.4696 6.66618 18C6.66618 18.5304 6.45546 19.0391 6.08039 19.4142C5.70532 19.7893 5.19661 20 4.66618 20ZM-0.000488281 18.6667C-0.000488281 19.84 0.519512 20.8933 1.33284 21.6267V24C1.33284 24.3536 1.47332 24.6928 1.72337 24.9428C1.97342 25.1929 2.31256 25.3333 2.66618 25.3333H3.99951C4.35313 25.3333 4.69227 25.1929 4.94232 24.9428C5.19237 24.6928 5.33284 24.3536 5.33284 24V22.6667H15.9995V24C15.9995 24.3536 16.14 24.6928 16.39 24.9428C16.6401 25.1929 16.9792 25.3333 17.3328 25.3333H18.6662C19.0198 25.3333 19.3589 25.1929 19.609 24.9428C19.859 24.6928 19.9995 24.3536 19.9995 24V21.6267C20.8128 20.8933 21.3328 19.84 21.3328 18.6667V5.33333C21.3328 0.666667 16.5595 0 10.6662 0C4.77284 0 -0.000488281 0.666667 -0.000488281 5.33333V18.6667Z" fill="#60B057"/>
</svg>
