<svg width="60" height="60" viewBox="0 0 60 60" fill="none" xmlns="http://www.w3.org/2000/svg">
<path d="M24.1575 42.5H35.84M30 7.5V10M45.91 14.09L44.1425 15.8575M52.5 30H50M10 30H7.5M15.8575 15.8575L14.09 14.09M21.16 38.84C19.4122 37.0917 18.222 34.8644 17.7399 32.4397C17.2579 30.0151 17.5056 27.5019 18.4518 25.218C19.398 22.9341 21.0002 20.9821 23.0557 19.6087C25.1113 18.2354 27.5279 17.5023 30 17.5023C32.4721 17.5023 34.8887 18.2354 36.9443 19.6087C38.9998 20.9821 40.602 22.9341 41.5482 25.218C42.4944 27.5019 42.7421 30.0151 42.2601 32.4397C41.778 34.8644 40.5878 37.0917 38.84 38.84L37.47 40.2075C36.6868 40.9909 36.0655 41.9209 35.6417 42.9443C35.2179 43.9678 34.9999 45.0647 35 46.1725V47.5C35 48.8261 34.4732 50.0979 33.5355 51.0355C32.5979 51.9732 31.3261 52.5 30 52.5C28.6739 52.5 27.4021 51.9732 26.4645 51.0355C25.5268 50.0979 25 48.8261 25 47.5V46.1725C25 43.935 24.11 41.7875 22.53 40.2075L21.16 38.84Z" stroke="#2F2D43" stroke-width="4" stroke-linecap="round" stroke-linejoin="round"/>
</svg>
