<svg width="60" height="60" viewBox="0 0 60 60" fill="none" xmlns="http://www.w3.org/2000/svg">
<g clip-path="url(#clip0_146_3531)">
<path d="M59.9999 18.7791C59.9999 16.7081 58.3209 15.0291 56.25 15.0291H49.8488C51.5053 13.395 52.5656 11.2529 52.5656 8.61471C52.5656 5.36627 50.7 1.83752 45.4631 1.83752C38.5725 1.83752 32.8162 9.1744 30.1116 13.2872C27.405 9.17534 21.4725 1.83846 14.5828 1.83846C9.34594 1.83846 7.48031 5.36721 7.48031 8.61565C7.48031 11.2528 8.56969 13.396 10.26 15.03H3.75C1.67906 15.03 0 16.7091 0 18.78V30.0047H3.78281V54.4125C3.78281 56.4835 5.46182 58.1625 7.53281 58.1625H52.5141C54.5849 58.1625 56.2641 56.4835 56.2641 54.4125V30.0038H60V18.7791H59.9999ZM45.4631 5.58846C47.7816 5.58846 48.8156 6.56258 48.8156 8.61571C48.8156 12.781 44.1666 15.0281 39.7941 15.0281H33.4462C36.1106 11.071 40.8 5.58846 45.4631 5.58846ZM14.5828 5.58852C19.2468 5.58852 24.1133 11.071 26.7777 15.0273H20.428C16.0555 15.0273 11.2302 12.722 11.2302 8.55665C11.2302 6.50446 12.2643 5.58852 14.5828 5.58852ZM56.2499 26.2538H31.8749V18.7791H56.2499V26.2538ZM3.74994 18.7791H28.1249V26.2538H3.74994V18.7791ZM7.53275 30.0038H28.1249V54.4116H7.53275V30.0038ZM52.5149 54.4116H31.8749V30.0038H52.5149V54.4116Z" fill="#2F2D43"/>
</g>
<defs>
<clipPath id="clip0_146_3531">
<rect width="60" height="60" fill="white"/>
</clipPath>
</defs>
</svg>
