<svg width="60" height="60" viewBox="0 0 60 60" fill="none" xmlns="http://www.w3.org/2000/svg">
<path d="M25 30C22.25 30 19.8958 29.0208 17.9375 27.0625C15.9792 25.1042 15 22.75 15 20C15 17.25 15.9792 14.8958 17.9375 12.9375C19.8958 10.9792 22.25 10 25 10C27.75 10 30.1042 10.9792 32.0625 12.9375C34.0208 14.8958 35 17.25 35 20C35 22.75 34.0208 25.1042 32.0625 27.0625C30.1042 29.0208 27.75 30 25 30ZM5 50V43C5 41.625 5.35417 40.3333 6.0625 39.125C6.77083 37.9167 7.75 37 9 36.375C11.125 35.2917 13.5208 34.375 16.1875 33.625C18.8542 32.875 21.7917 32.5 25 32.5H25.875C26.125 32.5 26.375 32.5417 26.625 32.625C26.2917 33.375 26.0108 34.1567 25.7825 34.97C25.5542 35.7833 25.3767 36.6267 25.25 37.5H25C22.0417 37.5 19.3858 37.875 17.0325 38.625C14.6792 39.375 12.7517 40.125 11.25 40.875C10.875 41.0833 10.5725 41.375 10.3425 41.75C10.1125 42.125 9.99833 42.5417 10 43V45H25.75C26 45.875 26.3333 46.74 26.75 47.595C27.1667 48.45 27.625 49.2517 28.125 50H5ZM40 52.5L39.25 48.75C38.75 48.5417 38.2817 48.3233 37.845 48.095C37.4083 47.8667 36.96 47.585 36.5 47.25L32.875 48.375L30.375 44.125L33.25 41.625C33.1667 41.0417 33.125 40.5 33.125 40C33.125 39.5 33.1667 38.9583 33.25 38.375L30.375 35.875L32.875 31.625L36.5 32.75C36.9583 32.4167 37.4067 32.1358 37.845 31.9075C38.2833 31.6792 38.7517 31.46 39.25 31.25L40 27.5H45L45.75 31.25C46.25 31.4583 46.7192 31.6875 47.1575 31.9375C47.5958 32.1875 48.0433 32.5 48.5 32.875L52.125 31.625L54.625 36L51.75 38.5C51.8333 39 51.875 39.5208 51.875 40.0625C51.875 40.6042 51.8333 41.125 51.75 41.625L54.625 44.125L52.125 48.375L48.5 47.25C48.0417 47.5833 47.5942 47.865 47.1575 48.095C46.7208 48.325 46.2517 48.5433 45.75 48.75L45 52.5H40ZM42.5 45C43.875 45 45.0525 44.5108 46.0325 43.5325C47.0125 42.5542 47.5017 41.3767 47.5 40C47.4983 38.6233 47.0092 37.4467 46.0325 36.47C45.0558 35.4933 43.8783 35.0033 42.5 35C41.1217 34.9967 39.945 35.4867 38.97 36.47C37.995 37.4533 37.505 38.63 37.5 40C37.495 41.37 37.985 42.5475 38.97 43.5325C39.955 44.5175 41.1317 45.0067 42.5 45ZM25 25C26.375 25 27.5525 24.5108 28.5325 23.5325C29.5125 22.5542 30.0017 21.3767 30 20C29.9983 18.6233 29.5092 17.4467 28.5325 16.47C27.5558 15.4933 26.3783 15.0033 25 15C23.6217 14.9967 22.445 15.4867 21.47 16.47C20.495 17.4533 20.005 18.63 20 20C19.995 21.37 20.485 22.5475 21.47 23.5325C22.455 24.5175 23.6317 25.0067 25 25Z" fill="#2F2D43"/>
</svg>
