<svg width="16" height="16" viewBox="0 0 16 16" fill="none" xmlns="http://www.w3.org/2000/svg">
<path fill-rule="evenodd" clip-rule="evenodd" d="M8.00104 9.41376L11.5364 12.9491C11.724 13.1367 11.9784 13.2421 12.2437 13.2421C12.509 13.2421 12.7634 13.1367 12.951 12.9491C13.1386 12.7615 13.244 12.5071 13.244 12.2418C13.244 11.9765 13.1386 11.722 12.951 11.5344L9.41437 7.9991L12.9504 4.46376C13.0432 4.37088 13.1169 4.26061 13.1671 4.13926C13.2173 4.01791 13.2432 3.88786 13.2431 3.75653C13.2431 3.62519 13.2172 3.49515 13.1669 3.37383C13.1166 3.25251 13.0429 3.14227 12.95 3.04943C12.8571 2.95659 12.7469 2.88295 12.6255 2.83272C12.5042 2.78249 12.3741 2.75665 12.2428 2.75668C12.1115 2.75671 11.9814 2.78261 11.8601 2.8329C11.7388 2.88318 11.6285 2.95688 11.5357 3.04976L8.00104 6.5851L4.4657 3.04976C4.3735 2.95421 4.26319 2.87798 4.14121 2.82551C4.01924 2.77305 3.88803 2.7454 3.75525 2.74418C3.62247 2.74297 3.49078 2.76821 3.36786 2.81843C3.24494 2.86865 3.13326 2.94285 3.03932 3.0367C2.94538 3.13055 2.87108 3.24217 2.82074 3.36504C2.7704 3.48791 2.74504 3.61958 2.74613 3.75236C2.74722 3.88513 2.77474 4.01637 2.82709 4.1384C2.87944 4.26042 2.95557 4.3708 3.05104 4.4631L6.5877 7.9991L3.05171 11.5351C2.95624 11.6274 2.88011 11.7378 2.82776 11.8598C2.77541 11.9818 2.74788 12.1131 2.74679 12.2458C2.7457 12.3786 2.77107 12.5103 2.82141 12.6332C2.87174 12.756 2.94605 12.8676 3.03999 12.9615C3.13392 13.0553 3.24561 13.1295 3.36853 13.1798C3.49145 13.23 3.62314 13.2552 3.75592 13.254C3.8887 13.2528 4.0199 13.2251 4.14188 13.1727C4.26386 13.1202 4.37417 13.044 4.46637 12.9484L8.00104 9.41376Z" fill="#120D4D"/>
</svg>
