<svg width="20" height="20" viewBox="0 0 20 20" fill="none" xmlns="http://www.w3.org/2000/svg">
<rect width="20" height="20" rx="3" fill="#272727"/>
<path d="M17.6888 14.14C17.2319 14.14 16.8546 13.7681 16.8599 13.3112C16.8546 12.8649 17.2319 12.4982 17.6888 12.4929C18.1298 12.4982 18.507 12.8649 18.507 13.3112C18.507 13.7681 18.1298 14.14 17.6888 14.14Z" fill="#F9F9F9"/>
<path d="M12.6543 8.28467L13.8233 10.4206L15.0135 8.28467H16.4481L14.7053 11.1645L16.4799 14.0549H15.056L13.8233 11.9721L12.6225 14.0549H11.1772L12.9413 11.1645L11.2198 8.28467H12.6543Z" fill="#F9F9F9"/>
<path d="M5.85547 12.4291C5.85547 11.1326 6.93407 10.7554 8.00205 10.6863C8.40586 10.6545 9.22942 10.6173 9.48446 10.6066L9.47915 10.1444C9.47915 9.57054 9.11253 9.24111 8.43774 9.24111C7.83202 9.24111 7.46009 9.5174 7.35382 9.93184H6.04675C6.14239 8.94888 7.0244 8.21033 8.46962 8.21033C9.56416 8.21033 10.8287 8.66196 10.8287 10.1975V14.055H9.53228V13.258H9.48977C9.23474 13.7468 8.69809 14.1719 7.78951 14.1719C6.68966 14.1719 5.85547 13.5715 5.85547 12.4291ZM7.16254 12.4185C7.16254 12.9179 7.57167 13.173 8.14019 13.173C8.96376 13.173 9.48977 12.631 9.48977 11.9828L9.48446 11.5099C9.24005 11.5205 8.48556 11.5683 8.21458 11.5896C7.57167 11.6427 7.16254 11.9137 7.16254 12.4185Z" fill="#F9F9F9"/>
<path d="M5.91115 8.28472V9.32613H4.72096V14.055H3.36076V9.32613H2.5V8.28472H3.36076V7.73214C3.36076 6.61103 4.0568 6 5.16728 6C5.48077 6 5.773 6.03188 6.02804 6.08501V7.1583C5.80488 7.12642 5.64017 7.12111 5.53921 7.1158C4.99194 7.12111 4.71565 7.33364 4.72096 7.85966V8.28472H5.91115Z" fill="#F9F9F9"/>
</svg>
