<svg width="60" height="60" viewBox="0 0 60 60" fill="none" xmlns="http://www.w3.org/2000/svg">
<path d="M52.5 10H32.5V7.5C32.5 6.83696 32.2366 6.20107 31.7678 5.73223C31.2989 5.26339 30.663 5 30 5C29.337 5 28.7011 5.26339 28.2322 5.73223C27.7634 6.20107 27.5 6.83696 27.5 7.5V10H7.5C6.83696 10 6.20107 10.2634 5.73223 10.7322C5.26339 11.2011 5 11.837 5 12.5V37.5C5 39.4891 5.79018 41.3968 7.1967 42.8033C8.60322 44.2098 10.5109 45 12.5 45H23.975L18.225 50.725C17.9907 50.9574 17.8047 51.2339 17.6778 51.5386C17.5508 51.8432 17.4855 52.17 17.4855 52.5C17.4855 52.83 17.5508 53.1568 17.6778 53.4614C17.8047 53.7661 17.9907 54.0426 18.225 54.275C18.4574 54.5093 18.7339 54.6953 19.0386 54.8222C19.3432 54.9492 19.67 55.0145 20 55.0145C20.33 55.0145 20.6568 54.9492 20.9614 54.8222C21.2661 54.6953 21.5426 54.5093 21.775 54.275L27.5 48.525V52.5C27.5 53.163 27.7634 53.7989 28.2322 54.2678C28.7011 54.7366 29.337 55 30 55C30.663 55 31.2989 54.7366 31.7678 54.2678C32.2366 53.7989 32.5 53.163 32.5 52.5V48.525L38.225 54.275C38.4574 54.5093 38.7339 54.6953 39.0386 54.8222C39.3432 54.9492 39.67 55.0145 40 55.0145C40.33 55.0145 40.6568 54.9492 40.9614 54.8222C41.2661 54.6953 41.5426 54.5093 41.775 54.275C42.0093 54.0426 42.1953 53.7661 42.3222 53.4614C42.4492 53.1568 42.5145 52.83 42.5145 52.5C42.5145 52.17 42.4492 51.8432 42.3222 51.5386C42.1953 51.2339 42.0093 50.9574 41.775 50.725L36.025 45H47.5C49.4891 45 51.3968 44.2098 52.8033 42.8033C54.2098 41.3968 55 39.4891 55 37.5V12.5C55 11.837 54.7366 11.2011 54.2678 10.7322C53.7989 10.2634 53.163 10 52.5 10ZM50 37.5C50 38.163 49.7366 38.7989 49.2678 39.2678C48.7989 39.7366 48.163 40 47.5 40H12.5C11.837 40 11.2011 39.7366 10.7322 39.2678C10.2634 38.7989 10 38.163 10 37.5V15H50V37.5Z" fill="#2F2D43"/>
<path d="M15.8809 23.5156H17.4043V27.418H17.5215L20.8379 23.5156H22.7012L19.4199 27.3242L22.7363 32H20.8965L18.3535 28.3555L17.4043 29.4688V32H15.8809V23.5156ZM23.6738 23.5156H26.8613C27.498 23.5156 28.0391 23.6289 28.4844 23.8555C28.9336 24.0781 29.2734 24.3926 29.5039 24.7988C29.7344 25.2051 29.8496 25.6797 29.8496 26.2227C29.8496 26.8008 29.7188 27.2969 29.457 27.7109C29.1992 28.125 28.8203 28.4336 28.3203 28.6367L30.1543 32H28.4551L26.791 28.8945H25.1973V32H23.6738V23.5156ZM26.627 27.6172C27.7363 27.6172 28.291 27.1523 28.291 26.2227C28.291 25.7617 28.1543 25.4082 27.8809 25.1621C27.6074 24.916 27.1895 24.793 26.627 24.793H25.1973V27.6172H26.627ZM31.1621 23.5156H36.6816V24.793H32.6855V27.1133H36.3887V28.3906H32.6855V30.7109H36.7051V32H31.1621V23.5156ZM45.1191 32H43.7598L39.7402 26.1992H39.6699V32H38.1465V23.5156H39.5293L43.5254 29.3164H43.6074V23.5156H45.1191V32Z" fill="#2F2D43"/>
</svg>
