<svg width="32" height="32" viewBox="0 0 32 32" fill="none" xmlns="http://www.w3.org/2000/svg">
<path d="M7.83366 18.3334H23.1587C24.3403 18.3334 24.9311 18.3334 25.4015 18.1131C25.8158 17.919 26.1639 17.6074 26.4025 17.2171C26.6734 16.7739 26.7387 16.1867 26.8692 15.0123L27.5517 8.86978C27.5915 8.51107 27.6115 8.33172 27.5538 8.19289C27.5031 8.07097 27.4126 7.96984 27.297 7.90603C27.1654 7.83337 26.985 7.83337 26.624 7.83337H7.25033M4.3335 4.33337H5.79001C6.09874 4.33337 6.2531 4.33337 6.37387 4.39209C6.48018 4.44377 6.56829 4.52654 6.62651 4.62943C6.69264 4.7463 6.70227 4.90036 6.72152 5.20849L7.7788 22.1249C7.79806 22.4331 7.80769 22.5871 7.87382 22.704C7.93204 22.8069 8.02014 22.8896 8.12646 22.9413C8.24723 23 8.40159 23 8.71032 23H24.1668M10.7502 27.0834H10.7618M21.2502 27.0834H21.2618M11.3335 27.0834C11.3335 27.4055 11.0723 27.6667 10.7502 27.6667C10.428 27.6667 10.1668 27.4055 10.1668 27.0834C10.1668 26.7612 10.428 26.5 10.7502 26.5C11.0723 26.5 11.3335 26.7612 11.3335 27.0834ZM21.8335 27.0834C21.8335 27.4055 21.5723 27.6667 21.2502 27.6667C20.928 27.6667 20.6668 27.4055 20.6668 27.0834C20.6668 26.7612 20.928 26.5 21.2502 26.5C21.5723 26.5 21.8335 26.7612 21.8335 27.0834Z" stroke="#120D4D" stroke-width="2" stroke-linecap="round" stroke-linejoin="round"/>
</svg>
