<svg width="60" height="60" viewBox="0 0 60 60" fill="none" xmlns="http://www.w3.org/2000/svg">
<path d="M54.375 26.25H31.875V20.625H33.75C34.7446 20.625 35.6984 20.2299 36.4016 19.5266C37.1049 18.8234 37.5 17.8696 37.5 16.875V9.375C37.5 8.38044 37.1049 7.42661 36.4016 6.72335C35.6984 6.02009 34.7446 5.625 33.75 5.625H26.25C25.2554 5.625 24.3016 6.02009 23.5984 6.72335C22.8951 7.42661 22.5 8.38044 22.5 9.375V16.875C22.5 17.8696 22.8951 18.8234 23.5984 19.5266C24.3016 20.2299 25.2554 20.625 26.25 20.625H28.125V26.25H5.625C5.12772 26.25 4.65081 26.4475 4.29917 26.7992C3.94754 27.1508 3.75 27.6277 3.75 28.125C3.75 28.6223 3.94754 29.0992 4.29917 29.4508C4.65081 29.8025 5.12772 30 5.625 30H13.125V37.5H11.25C10.2554 37.5 9.30161 37.8951 8.59835 38.5984C7.89509 39.3016 7.5 40.2554 7.5 41.25V48.75C7.5 49.7446 7.89509 50.6984 8.59835 51.4016C9.30161 52.1049 10.2554 52.5 11.25 52.5H18.75C19.7446 52.5 20.6984 52.1049 21.4016 51.4016C22.1049 50.6984 22.5 49.7446 22.5 48.75V41.25C22.5 40.2554 22.1049 39.3016 21.4016 38.5984C20.6984 37.8951 19.7446 37.5 18.75 37.5H16.875V30H43.125V37.5H41.25C40.2554 37.5 39.3016 37.8951 38.5984 38.5984C37.8951 39.3016 37.5 40.2554 37.5 41.25V48.75C37.5 49.7446 37.8951 50.6984 38.5984 51.4016C39.3016 52.1049 40.2554 52.5 41.25 52.5H48.75C49.7446 52.5 50.6984 52.1049 51.4016 51.4016C52.1049 50.6984 52.5 49.7446 52.5 48.75V41.25C52.5 40.2554 52.1049 39.3016 51.4016 38.5984C50.6984 37.8951 49.7446 37.5 48.75 37.5H46.875V30H54.375C54.8723 30 55.3492 29.8025 55.7008 29.4508C56.0525 29.0992 56.25 28.6223 56.25 28.125C56.25 27.6277 56.0525 27.1508 55.7008 26.7992C55.3492 26.4475 54.8723 26.25 54.375 26.25ZM26.25 9.375H33.75V16.875H26.25V9.375ZM18.75 48.75H11.25V41.25H18.75V48.75ZM48.75 48.75H41.25V41.25H48.75V48.75Z" fill="#2F2D43"/>
</svg>
