<svg width="60" height="60" viewBox="0 0 60 60" fill="none" xmlns="http://www.w3.org/2000/svg">
<path d="M10 2.5C7.225 2.5 5 4.725 5 7.5V17.5C5 20.275 7.225 22.5 10 22.5H2.5V27.5H32.5V22.5H25C27.775 22.5 30 20.275 30 17.5V7.5C30 4.725 27.775 2.5 25 2.5H10ZM10 7.5H25V17.5H10V7.5ZM7.5 30V35H12.5V30H7.5ZM35 32.5C32.225 32.5 30 34.725 30 37.5V47.5C30 50.275 32.225 52.5 35 52.5H27.5V57.5H57.5V52.5H50C52.775 52.5 55 50.275 55 47.5V37.5C55 34.725 52.775 32.5 50 32.5H35ZM7.5 37.5V42.5H12.5V37.5H7.5ZM35 37.5H50V47.5H35V37.5ZM7.5 45V50H12.5V45H7.5ZM15 45V50H20V45H15ZM22.5 45V50H27.5V45H22.5Z" fill="#2F2D43"/>
</svg>
