<svg width="26" height="26" viewBox="0 0 26 26" fill="none" xmlns="http://www.w3.org/2000/svg">
<path d="M4.83317 15.6732H20.1582C21.3398 15.6732 21.9306 15.6732 22.401 15.4529C22.8153 15.2588 23.1634 14.9473 23.4021 14.5569C23.6729 14.1138 23.7382 13.5265 23.8687 12.3522L24.5512 6.20962C24.591 5.85091 24.611 5.67156 24.5533 5.53274C24.5026 5.41082 24.4121 5.30968 24.2965 5.24587C24.1649 5.17322 23.9845 5.17322 23.6236 5.17322H4.24984M1.33301 1.67322H2.78952C3.09825 1.67322 3.25261 1.67322 3.37338 1.73193C3.47969 1.78362 3.5678 1.86639 3.62602 1.96927C3.69215 2.08614 3.70178 2.24021 3.72104 2.54833L4.77831 19.4648C4.79757 19.7729 4.8072 19.927 4.87333 20.0438C4.93155 20.1467 5.01965 20.2295 5.12597 20.2812C5.24674 20.3399 5.4011 20.3399 5.70983 20.3399H21.1663M7.74967 24.4232H7.76134M18.2497 24.4232H18.2613M8.33301 24.4232C8.33301 24.7454 8.07184 25.0066 7.74967 25.0066C7.42751 25.0066 7.16634 24.7454 7.16634 24.4232C7.16634 24.1011 7.42751 23.8399 7.74967 23.8399C8.07184 23.8399 8.33301 24.1011 8.33301 24.4232ZM18.833 24.4232C18.833 24.7454 18.5718 25.0066 18.2497 25.0066C17.9275 25.0066 17.6663 24.7454 17.6663 24.4232C17.6663 24.1011 17.9275 23.8399 18.2497 23.8399C18.5718 23.8399 18.833 24.1011 18.833 24.4232Z" stroke="#272727" stroke-width="2" stroke-linecap="round" stroke-linejoin="round"/>
</svg>
