<svg width="343" height="386" viewBox="0 0 343 386" fill="none" xmlns="http://www.w3.org/2000/svg">
<path d="M58.8027 80.8164V93.2578H57.0664V80.8164H58.8027ZM48.3984 89.7441C49.3486 89.7373 50.4355 89.7373 51.5703 89.7031V88.6504C50.2031 88.4111 49.3145 87.5635 49.3281 86.3945C49.3145 85 50.5859 84.0566 52.418 84.0566C54.2637 84.0566 55.5488 85 55.5488 86.3945C55.5488 87.5566 54.6602 88.4043 53.293 88.6504V89.6484C54.332 89.6006 55.3848 89.5186 56.3828 89.3887L56.5059 90.6738C53.7852 91.1387 50.8457 91.166 48.6309 91.166L48.3984 89.7441ZM56.2051 82.1973V83.5645H48.6445V82.1973H51.5703V80.8711H53.3066V82.1973H56.2051ZM52.418 85.3828C51.5703 85.3828 50.9688 85.752 50.9824 86.3945C50.9688 87.0508 51.5703 87.4062 52.418 87.4062C53.293 87.4062 53.8809 87.0508 53.8809 86.3945C53.8809 85.752 53.293 85.3828 52.418 85.3828ZM65.1055 82.9492C65.1055 84.5625 65.9668 86.1621 67.9492 86.8184L67.0059 88.1855C65.6865 87.7002 64.7773 86.7842 64.2578 85.6289C63.7178 86.9277 62.7471 87.9531 61.3047 88.4727L60.3613 87.1055C62.4395 86.4219 63.3418 84.7129 63.3418 82.9355V81.582H65.1055V82.9492ZM70.9297 80.8301V90.0176H69.1934V84.877H66.8555V83.4688H69.1934V80.8301H70.9297ZM71.1895 91.6445V93.0391H62.6445V89.0469H64.4082V91.6445H71.1895ZM81.7715 82.7168V84.0977H75.7559V82.7168H77.916V81.1582H79.6387V82.7168H81.7715ZM78.791 84.6582C80.377 84.6582 81.5117 85.8887 81.5254 87.6113C81.5117 89.3477 80.377 90.5781 78.791 90.5781C77.2051 90.5781 76.043 89.3477 76.043 87.6113C76.043 85.8887 77.2051 84.6582 78.791 84.6582ZM78.791 86.1074C78.0664 86.1074 77.5742 86.668 77.5742 87.6113C77.5742 88.5547 78.0664 89.1016 78.791 89.1016C79.4883 89.1016 79.9805 88.5547 79.9941 87.6113C79.9805 86.668 79.4883 86.1074 78.791 86.1074ZM86.5293 80.8164V93.2578H84.875V87.2695H83.8633V92.7246H82.2363V81.0625H83.8633V85.875H84.875V80.8164H86.5293ZM92.6953 84.207C92.6953 86.2168 93.7207 88.3633 95.8125 89.2383L94.8691 90.6055C93.3994 89.9834 92.3877 88.7461 91.834 87.2285C91.2666 88.876 90.2344 90.2432 88.7715 90.9199L87.7734 89.5391C89.8379 88.623 90.9043 86.3125 90.9043 84.207V83.4414H88.2656V82.0195H95.293V83.4414H92.6953V84.207ZM98.2871 80.8164V93.2578H96.5234V80.8164H98.2871ZM113.613 80.8301V89.9082H111.863V80.8301H113.613ZM113.941 91.6445V93.0391H105.273V89.0332H107.037V91.6445H113.941ZM107.967 82.7168C107.953 84.3574 108.828 85.9707 110.879 86.627L109.99 87.9941C108.589 87.5293 107.618 86.5996 107.064 85.4102C106.511 86.6885 105.513 87.7139 104.057 88.2129L103.154 86.832C105.246 86.1348 106.148 84.3984 106.148 82.7168V81.5137H107.967V82.7168ZM122.391 82.1152V83.4824H119.875C119.889 84.7607 120.832 86.0596 122.828 86.5723L122.021 87.9121C120.606 87.5566 119.608 86.7705 119.041 85.752C118.501 86.9141 117.503 87.8232 116.033 88.2402L115.213 86.8867C117.209 86.3193 118.125 84.8975 118.139 83.4824H115.637V82.1152H118.139V80.7617H119.902V82.1152H122.391ZM125.781 80.8164V88.3359H124.045V85.5469H122.021V84.1523H124.045V80.8164H125.781ZM121.529 88.541C124.182 88.5547 125.809 89.3887 125.822 90.8789C125.809 92.3828 124.182 93.2578 121.529 93.2578C118.891 93.2578 117.25 92.3828 117.25 90.8789C117.25 89.3887 118.891 88.5547 121.529 88.541ZM121.529 89.8809C119.875 89.8809 118.986 90.209 118.986 90.8789C118.986 91.5625 119.875 91.9316 121.529 91.9316C123.211 91.9316 124.086 91.5625 124.086 90.8789C124.086 90.209 123.211 89.8809 121.529 89.8809ZM36.1074 110.227C36.1074 107.656 36.9004 105.523 38.2129 103.678H40.1406C39.1973 105.045 38.2129 107.779 38.2129 110.227C38.2129 112.688 39.1973 115.422 40.1406 116.789H38.2129C36.9004 114.943 36.1074 112.797 36.1074 110.227ZM45.0762 114.137C43.0254 114.123 41.084 112.906 41.084 109.283C41.084 105.947 42.6836 103.965 45.1582 103.965C47.1543 103.965 48.5078 105.223 48.7129 106.85H46.6895C46.5254 106.152 45.9512 105.729 45.1582 105.729C43.8184 105.729 43.1074 106.945 43.0938 108.887H43.1895C43.6406 108.012 44.625 107.492 45.7188 107.492C47.4961 107.492 48.8223 108.832 48.8223 110.691C48.8223 112.701 47.3047 114.15 45.0762 114.137ZM45.0625 112.51C46.0742 112.51 46.8262 111.744 46.8262 110.746C46.8262 109.762 46.1016 108.982 45.0898 108.982C44.0781 108.982 43.3125 109.775 43.2988 110.746C43.3125 111.717 44.0508 112.51 45.0625 112.51ZM54.0859 114.137C51.6113 114.137 50.1074 112.291 50.1074 109.051C50.1074 105.811 51.6113 103.965 54.0859 103.965C56.5605 103.965 58.0645 105.824 58.0645 109.051C58.0645 112.305 56.5605 114.137 54.0859 114.137ZM54.0859 112.441C55.2344 112.441 55.9727 111.334 55.959 109.051C55.959 106.795 55.2344 105.646 54.0859 105.646C52.9375 105.646 52.2129 106.795 52.2129 109.051C52.1992 111.334 52.9375 112.441 54.0859 112.441ZM62.6172 103.186C64.5039 103.186 65.9395 104.361 65.9395 106.029C65.9395 107.67 64.5039 108.859 62.6172 108.859C60.6895 108.859 59.2676 107.67 59.2676 106.029C59.2676 104.361 60.6895 103.186 62.6172 103.186ZM62.6172 104.607C61.6602 104.607 60.9492 105.127 60.9629 106.029C60.9492 106.918 61.6602 107.451 62.6172 107.451C63.5605 107.451 64.2578 106.918 64.2578 106.029C64.2578 105.127 63.5605 104.607 62.6172 104.607ZM69.4941 102.816V109.051H67.7441V102.816H69.4941ZM69.4941 109.57V112.947H62.877V113.754H69.8359V115.121H61.168V111.676H67.7578V110.91H61.1406V109.57H69.4941ZM81.6621 102.83V111.908H79.9258V107.451H77.8887V106.043H79.9258V102.83H81.6621ZM81.9629 113.645V115.039H73.4043V111.115H75.1543V113.645H81.9629ZM75.8789 105.264C75.8789 106.699 76.7539 108.244 78.7363 108.887L77.875 110.268C76.4941 109.823 75.5508 108.914 75.0039 107.779C74.457 109.037 73.4658 110.035 71.9961 110.527L71.1074 109.105C73.1582 108.463 74.0879 106.836 74.1016 105.25V105.059H71.5996V103.664H78.3535V105.059H75.8789V105.264ZM92.5039 104.717V106.098H86.4883V104.717H88.6484V103.158H90.3711V104.717H92.5039ZM89.5234 106.658C91.1094 106.658 92.2441 107.889 92.2578 109.611C92.2441 111.348 91.1094 112.578 89.5234 112.578C87.9375 112.578 86.7754 111.348 86.7754 109.611C86.7754 107.889 87.9375 106.658 89.5234 106.658ZM89.5234 108.107C88.7988 108.107 88.3066 108.668 88.3066 109.611C88.3066 110.555 88.7988 111.102 89.5234 111.102C90.2207 111.102 90.7129 110.555 90.7266 109.611C90.7129 108.668 90.2207 108.107 89.5234 108.107ZM97.2617 102.816V115.258H95.6074V109.27H94.5957V114.725H92.9688V103.062H94.5957V107.875H95.6074V102.816H97.2617ZM103.428 106.207C103.428 108.217 104.453 110.363 106.545 111.238L105.602 112.605C104.132 111.983 103.12 110.746 102.566 109.229C101.999 110.876 100.967 112.243 99.5039 112.92L98.5059 111.539C100.57 110.623 101.637 108.312 101.637 106.207V105.441H98.998V104.02H106.025V105.441H103.428V106.207ZM109.02 102.816V115.258H107.256V102.816H109.02ZM122.049 109.229V110.596H110.674V109.229H115.486V108.463H112.096V103.117H120.723V104.457H113.846V105.154H120.436V106.412H113.846V107.123H120.832V108.463H117.236V109.229H122.049ZM116.361 111.17C119.109 111.156 120.682 111.895 120.695 113.207C120.682 114.547 119.109 115.258 116.361 115.258C113.572 115.258 112 114.547 112 113.207C112 111.895 113.572 111.156 116.361 111.17ZM116.361 112.455C114.57 112.455 113.736 112.688 113.75 113.207C113.736 113.74 114.57 113.973 116.361 113.973C118.111 113.973 118.932 113.74 118.945 113.207C118.932 112.688 118.111 112.455 116.361 112.455ZM134.189 112.387V113.809H122.801V112.387H127.6V110.09H124.004V103.609H125.754V105.537H131.182V103.609H132.918V110.09H129.336V112.387H134.189ZM125.754 108.695H131.182V106.932H125.754V108.695ZM138.893 110.227C138.893 112.797 138.1 114.943 136.787 116.789H134.859C135.803 115.422 136.787 112.688 136.787 110.227C136.787 107.779 135.803 105.045 134.859 103.678H136.787C138.1 105.523 138.893 107.656 138.893 110.227Z" fill="#A6A6A6"/>
<path d="M226.262 80.8301V89.9082H224.512V80.8301H226.262ZM226.59 91.6445V93.0391H217.922V89.0332H219.686V91.6445H226.59ZM220.615 82.7168C220.602 84.3574 221.477 85.9707 223.527 86.627L222.639 87.9941C221.237 87.5293 220.267 86.5996 219.713 85.4102C219.159 86.6885 218.161 87.7139 216.705 88.2129L215.803 86.832C217.895 86.1348 218.797 84.3984 218.797 82.7168V81.5137H220.615V82.7168ZM235.039 82.1152V83.4824H232.523C232.537 84.7607 233.48 86.0596 235.477 86.5723L234.67 87.9121C233.255 87.5566 232.257 86.7705 231.689 85.752C231.149 86.9141 230.151 87.8232 228.682 88.2402L227.861 86.8867C229.857 86.3193 230.773 84.8975 230.787 83.4824H228.285V82.1152H230.787V80.7617H232.551V82.1152H235.039ZM238.43 80.8164V88.3359H236.693V85.5469H234.67V84.1523H236.693V80.8164H238.43ZM234.178 88.541C236.83 88.5547 238.457 89.3887 238.471 90.8789C238.457 92.3828 236.83 93.2578 234.178 93.2578C231.539 93.2578 229.898 92.3828 229.898 90.8789C229.898 89.3887 231.539 88.5547 234.178 88.541ZM234.178 89.8809C232.523 89.8809 231.635 90.209 231.635 90.8789C231.635 91.5625 232.523 91.9316 234.178 91.9316C235.859 91.9316 236.734 91.5625 236.734 90.8789C236.734 90.209 235.859 89.8809 234.178 89.8809ZM244.746 83.6328C244.746 85.9707 245.689 88.2402 247.768 89.1426L246.701 90.5371C245.32 89.8604 244.397 88.623 243.885 87.0918C243.338 88.7188 242.381 90.0518 240.959 90.7559L239.865 89.334C241.998 88.377 242.969 85.9707 242.982 83.6328V81.7734H244.746V83.6328ZM250.543 80.8164V93.2852H248.82V86.1348H246.373V84.7266H248.82V80.8164H250.543ZM266.689 86.1211V87.3926H261.904V88.1719H265.336V91.207H258.404V91.8906H265.664V93.1758H256.695V90.0312H263.613V89.416H256.682V88.1719H260.168V87.3926H255.396V86.1211H266.689ZM261.891 80.8027V81.7871H265.623V83.0723H262.109C262.451 83.7969 263.723 84.3916 266.238 84.4941L265.732 85.7793C263.422 85.6699 261.822 85.082 261.029 84.1387C260.243 85.082 258.637 85.6699 256.312 85.7793L255.834 84.4941C258.329 84.3916 259.594 83.7969 259.949 83.0723H256.463V81.7871H260.168V80.8027H261.891ZM273.443 81.541V85.4238H269.684V86.75C271.536 86.75 272.63 86.6885 273.895 86.4492L274.059 87.8438C272.609 88.1035 271.297 88.1445 268.891 88.1445H267.961V84.125H271.693V82.9082H267.934V81.541H273.443ZM277.955 80.8301V88.4863H276.219V86.5723H274.154V85.1914H276.219V83.9336H274.154V82.5527H276.219V80.8301H277.955ZM277.955 89.0469V93.2578H276.219V90.4414H269.383V89.0469H277.955ZM293.555 82.1016V83.5098H283.342V82.1016H287.594V80.8027H289.33V82.1016H293.555ZM294.184 88.8555V90.2773H289.33V93.2715H287.594V90.2773H282.795V88.8555H294.184ZM288.469 83.9883C291.135 83.9883 292.748 84.7402 292.762 86.1211C292.748 87.502 291.135 88.2539 288.469 88.2539C285.775 88.2539 284.162 87.502 284.176 86.1211C284.162 84.7402 285.775 83.9883 288.469 83.9883ZM288.469 85.2734C286.801 85.2871 285.98 85.5469 285.98 86.1211C285.98 86.6816 286.801 86.9551 288.469 86.9551C290.109 86.9551 290.943 86.6816 290.943 86.1211C290.943 85.5469 290.109 85.2871 288.469 85.2734ZM233.966 102.816V115.258H232.202V102.816H233.966ZM230.233 104.115C230.233 107.889 228.907 111.02 224.464 113.125L223.548 111.73C226.761 110.213 228.176 108.244 228.456 105.482H224.218V104.115H230.233ZM242.579 103.719V104.498C242.579 105.359 242.579 106.604 242.292 108.148L240.583 107.984C240.802 106.788 240.856 105.886 240.87 105.141H236.181V103.719H242.579ZM239.489 106.59V108.969C240.727 108.921 241.998 108.825 243.167 108.654L243.263 109.912C240.679 110.391 237.753 110.432 235.593 110.445L235.442 109.051C236.14 109.051 236.926 109.051 237.753 109.023V106.59H239.489ZM245.628 102.816V106.604H247.132V108.066H245.628V112.127H243.837V102.816H245.628ZM246.011 113.645V115.039H237.274V111.293H239.024V113.645H246.011ZM254.774 103.65V105.045H252.3C252.313 106.494 253.182 107.896 255.171 108.477L254.337 109.844C252.963 109.427 252.013 108.593 251.466 107.52C250.912 108.777 249.9 109.775 248.403 110.268L247.515 108.887C249.579 108.237 250.509 106.624 250.536 105.045H247.993V103.65H254.774ZM257.577 102.816V105.701H259.259V107.123H257.577V110.199H255.827V102.816H257.577ZM253.503 110.445C256.087 110.432 257.7 111.32 257.7 112.838C257.7 114.355 256.087 115.258 253.503 115.258C250.864 115.258 249.237 114.355 249.237 112.838C249.237 111.32 250.864 110.432 253.503 110.445ZM253.503 111.799C251.862 111.799 250.974 112.141 250.987 112.838C250.974 113.549 251.862 113.904 253.503 113.904C255.116 113.904 255.978 113.549 255.978 112.838C255.978 112.141 255.116 111.799 253.503 111.799ZM273.45 102.816V110.309H271.7V102.816H273.45ZM273.45 110.855V115.258H271.7V112.25H264.892V110.855H273.45ZM270.388 103.541V104.936H267.886C267.899 106.392 268.815 107.923 270.853 108.531L269.964 109.885C268.569 109.454 267.585 108.559 267.024 107.424C266.457 108.654 265.445 109.632 263.989 110.117L263.087 108.764C265.138 108.101 266.095 106.487 266.108 104.936H263.552V103.541H270.388ZM285.55 102.83V111.771H283.8V102.83H285.55ZM285.878 113.645V115.039H277.21V110.869H278.974V113.645H285.878ZM278.728 103.623C280.642 103.623 282.132 104.936 282.132 106.754C282.132 108.613 280.642 109.912 278.728 109.912C276.813 109.912 275.323 108.613 275.323 106.754C275.323 104.936 276.813 103.623 278.728 103.623ZM278.728 105.141C277.757 105.127 277.019 105.742 277.032 106.754C277.019 107.793 277.757 108.395 278.728 108.395C279.671 108.395 280.409 107.793 280.409 106.754C280.409 105.742 279.671 105.127 278.728 105.141Z" fill="#858585"/>
<path fill-rule="evenodd" clip-rule="evenodd" d="M26 0C11.6406 0 0 11.6406 0 26C0 40.3594 11.6406 52 26 52H156.194V26V0H26ZM156.196 52L175.366 26L156.196 0V52Z" fill="#A6A6A6"/>
<circle cx="26" cy="26" r="20" fill="white"/>
<path d="M166 52H321.277L343 26L321.277 0H166L187.723 26L166 52Z" fill="#858585"/>
<circle cx="215" cy="26" r="20" fill="white"/>
<path d="M209.941 32.1758C206.76 32.1758 204.826 29.8027 204.826 25.6367C204.826 21.4707 206.76 19.0977 209.941 19.0977C213.123 19.0977 215.057 21.4883 215.057 25.6367C215.057 29.8203 213.123 32.1758 209.941 32.1758ZM209.941 29.9961C211.418 29.9961 212.367 28.5723 212.35 25.6367C212.35 22.7363 211.418 21.2598 209.941 21.2598C208.465 21.2598 207.533 22.7363 207.533 25.6367C207.516 28.5723 208.465 29.9961 209.941 29.9961ZM216.885 32L216.867 30.084L221.438 25.8828C222.633 24.7402 223.266 24.0371 223.266 23.0352C223.266 21.9102 222.404 21.207 221.244 21.207C220.049 21.207 219.275 21.9629 219.275 23.1758H216.762C216.744 20.6797 218.59 19.0977 221.279 19.0977C224.004 19.0977 225.814 20.6445 225.814 22.8594C225.814 24.3008 225.111 25.4961 222.492 27.8691L220.559 29.75V29.8203H225.99V32H216.885Z" fill="#858585"/>
<path d="M20.9414 32.1758C17.7598 32.1758 15.8262 29.8027 15.8262 25.6367C15.8262 21.4707 17.7598 19.0977 20.9414 19.0977C24.123 19.0977 26.0566 21.4883 26.0566 25.6367C26.0566 29.8203 24.123 32.1758 20.9414 32.1758ZM20.9414 29.9961C22.418 29.9961 23.3672 28.5723 23.3496 25.6367C23.3496 22.7363 22.418 21.2598 20.9414 21.2598C19.4648 21.2598 18.5332 22.7363 18.5332 25.6367C18.5156 28.5723 19.4648 29.9961 20.9414 29.9961ZM33.3691 19.2734V32H30.7148V21.7871H30.6445L27.7266 23.6152V21.2773L30.873 19.2734H33.3691Z" fill="#A6A6A6"/>
<path d="M61.0869 227.633C61.0732 229.861 62.0303 232.117 64.0264 233.074L62.9736 234.469C61.6406 233.812 60.7451 232.582 60.2256 231.078C59.6855 232.691 58.7217 234.011 57.3135 234.701L56.2334 233.293C58.3389 232.322 59.3369 229.943 59.3369 227.633V225.773H61.0869V227.633ZM66.3232 224.816V229.615H68.1553V231.092H66.3232V237.258H64.5732V224.816H66.3232ZM79.9814 231.775V233.17H75.1143V237.244H73.3916V233.17H68.5928V231.775H79.9814ZM78.6143 225.418V230.436H69.9326V225.418H78.6143ZM71.6553 226.799V229.068H76.8779V226.799H71.6553ZM90.7412 225.363V226.334C90.7412 227.25 90.7412 228.303 90.4951 229.643H92.0947V231.037H87.2549V232.828H90.7549V237.258H89.0049V234.195H81.8545V232.828H85.5049V231.037H80.7061V229.643H88.7314C88.9639 228.48 88.998 227.564 89.0049 226.744H82.1006V225.363H90.7412ZM102.554 229.219V230.75H107.38V232.145H96.0322V230.75H100.831V229.219H102.554ZM102.581 225.432C102.581 226.881 103.976 228.262 106.778 228.604L106.108 229.957C104.01 229.643 102.465 228.761 101.679 227.51C100.879 228.761 99.334 229.649 97.2354 229.957L96.6201 228.604C99.3682 228.262 100.804 226.84 100.804 225.432V225.021H102.581V225.432ZM101.692 232.828C104.399 232.828 106.013 233.635 106.026 235.057C106.013 236.479 104.399 237.258 101.692 237.258C98.958 237.258 97.3311 236.479 97.3311 235.057C97.3311 233.635 98.958 232.828 101.692 232.828ZM101.692 234.154C99.9561 234.154 99.0947 234.441 99.1084 235.057C99.0947 235.672 99.9561 235.959 101.692 235.959C103.388 235.959 104.263 235.672 104.276 235.057C104.263 234.441 103.388 234.154 101.692 234.154ZM119.507 231.994V233.361H114.64V237.258H112.917V233.361H108.118V231.994H119.507ZM111.181 225.295V226.73H116.403V225.295H118.153V230.791H109.458V225.295H111.181ZM111.181 229.396H116.403V228.098H111.181V229.396ZM59.8496 254.227C59.8496 251.656 60.6426 249.523 61.9551 247.678H63.8828C62.9395 249.045 61.9551 251.779 61.9551 254.227C61.9551 256.688 62.9395 259.422 63.8828 260.789H61.9551C60.6426 258.943 59.8496 256.797 59.8496 254.227ZM65.373 258L69.543 249.852V249.783H64.6895V248.102H71.6758V249.811L67.5059 258H65.373ZM76.1738 247.186C78.0605 247.186 79.4961 248.361 79.4961 250.029C79.4961 251.67 78.0605 252.859 76.1738 252.859C74.2461 252.859 72.8242 251.67 72.8242 250.029C72.8242 248.361 74.2461 247.186 76.1738 247.186ZM76.1738 248.607C75.2168 248.607 74.5059 249.127 74.5195 250.029C74.5059 250.918 75.2168 251.451 76.1738 251.451C77.1172 251.451 77.8145 250.918 77.8145 250.029C77.8145 249.127 77.1172 248.607 76.1738 248.607ZM83.0508 246.816V253.051H81.3008V246.816H83.0508ZM83.0508 253.57V256.947H76.4336V257.754H83.3926V259.121H74.7246V255.676H81.3145V254.91H74.6973V253.57H83.0508ZM98.377 246.816V259.285H96.6133V246.816H98.377ZM91.623 247.691C93.4961 247.691 94.8906 249.414 94.8906 252.121C94.8906 254.855 93.4961 256.564 91.623 256.564C89.709 256.564 88.3145 254.855 88.3281 252.121C88.3145 249.414 89.709 247.691 91.623 247.691ZM91.623 249.264C90.6523 249.264 90.0098 250.275 90.0098 252.121C90.0098 253.98 90.6523 254.979 91.623 254.979C92.5664 254.979 93.209 253.98 93.209 252.121C93.209 250.275 92.5664 249.264 91.623 249.264ZM110.791 246.816V259.258H109.109V253.037H107.947V258.656H106.307V247.021H107.947V251.629H109.109V246.816H110.791ZM102.314 248.197V254.691C103.312 254.671 104.406 254.582 105.609 254.35L105.787 255.854C104.119 256.141 102.697 256.223 101.412 256.223H100.564V248.197H102.314ZM116.15 254.227C116.15 256.797 115.357 258.943 114.045 260.789H112.117C113.061 259.422 114.045 256.688 114.045 254.227C114.045 251.779 113.061 249.045 112.117 247.678H114.045C115.357 249.523 116.15 251.656 116.15 254.227Z" fill="#6A6A6A"/>
<path d="M216.581 225.336C218.481 225.322 219.862 226.402 219.862 227.975C219.862 229.533 218.481 230.627 216.581 230.613C214.681 230.627 213.3 229.533 213.313 227.975C213.3 226.402 214.681 225.322 216.581 225.336ZM216.581 226.73C215.651 226.73 214.995 227.182 214.995 227.975C214.995 228.754 215.651 229.205 216.581 229.191C217.538 229.205 218.208 228.754 218.208 227.975C218.208 227.182 217.538 226.73 216.581 226.73ZM223.007 224.83V237.258H221.284V224.83H223.007ZM212.548 231.379C214.749 231.379 217.88 231.324 220.532 230.928L220.642 232.213C219.616 232.418 218.563 232.548 217.524 232.623V236.889H215.788V232.732C214.694 232.78 213.662 232.787 212.767 232.801L212.548 231.379ZM230.964 225.637V227.018H226.849V228.057H230.704V229.396H226.849V230.477C228.872 230.463 230.171 230.395 231.634 230.135L231.825 231.502C230.144 231.803 228.64 231.857 226.124 231.857H225.085V225.637H230.964ZM234.491 224.816V227.852H236.173V229.301H234.491V232.336H232.741V224.816H234.491ZM234.491 232.855V237.258H232.741V234.236H226.11V232.855H234.491ZM241.3 227.633C241.286 229.861 242.243 232.117 244.239 233.074L243.187 234.469C241.854 233.812 240.958 232.582 240.438 231.078C239.898 232.691 238.935 234.011 237.526 234.701L236.446 233.293C238.552 232.322 239.55 229.943 239.55 227.633V225.773H241.3V227.633ZM246.536 224.816V229.615H248.368V231.092H246.536V237.258H244.786V224.816H246.536ZM252.292 225.35C253.885 225.336 255.149 226.245 255.491 227.578H257.569V224.816H259.306V231.502H257.569V228.973H255.505C255.177 230.34 253.898 231.27 252.292 231.27C250.378 231.27 248.97 230.025 248.983 228.289C248.97 226.58 250.378 225.336 252.292 225.35ZM252.292 226.799C251.321 226.785 250.624 227.359 250.638 228.289C250.624 229.219 251.321 229.807 252.292 229.807C253.235 229.807 253.919 229.219 253.919 228.289C253.919 227.359 253.235 226.785 252.292 226.799ZM252.729 232.049V233.252H257.569V232.049H259.306V237.121H251.007V232.049H252.729ZM252.729 235.713H257.569V234.592H252.729V235.713ZM265.513 228.207C265.499 230.107 266.511 232.295 268.562 233.238L267.591 234.605C266.203 233.97 265.212 232.698 264.665 231.201C264.104 232.849 263.086 234.243 261.644 234.92L260.632 233.539C262.71 232.568 263.749 230.258 263.763 228.207V227.441H261.124V226.02H268.015V227.441H265.513V228.207ZM270.735 224.816V229.561H272.567V231.023H270.735V237.258H268.985V224.816H270.735ZM283.806 224.816V237.258H282.138V224.816H283.806ZM281.208 224.994V236.684H279.567V230.805H278.569C278.405 233.252 277.366 234.729 275.835 234.729C274.194 234.729 273.128 233.006 273.128 230.203C273.128 227.414 274.194 225.705 275.835 225.705C277.332 225.705 278.357 227.1 278.556 229.424H279.567V224.994H281.208ZM275.835 227.346C275.138 227.346 274.728 228.303 274.741 230.203C274.728 232.117 275.138 233.061 275.835 233.047C276.546 233.061 276.97 232.117 276.97 230.203C276.97 228.303 276.546 227.346 275.835 227.346ZM295.905 224.816V237.258H294.265V224.816H295.905ZM293.253 225.09V236.711H291.626V230.996H289.589C288.878 232.418 287.723 233.648 285.952 234.674L284.968 233.443C287.477 231.953 288.584 230.142 288.823 227.701H285.651V226.293H290.56C290.553 227.476 290.43 228.59 290.136 229.615H291.626V225.09H293.253ZM249.291 251.219V252.75H254.117V254.145H242.77V252.75H247.568V251.219H249.291ZM249.318 247.432C249.318 248.881 250.713 250.262 253.516 250.604L252.846 251.957C250.747 251.643 249.202 250.761 248.416 249.51C247.616 250.761 246.071 251.649 243.973 251.957L243.357 250.604C246.105 250.262 247.541 248.84 247.541 247.432V247.021H249.318V247.432ZM248.43 254.828C251.137 254.828 252.75 255.635 252.764 257.057C252.75 258.479 251.137 259.258 248.43 259.258C245.695 259.258 244.068 258.479 244.068 257.057C244.068 255.635 245.695 254.828 248.43 254.828ZM248.43 256.154C246.693 256.154 245.832 256.441 245.846 257.057C245.832 257.672 246.693 257.959 248.43 257.959C250.125 257.959 251 257.672 251.014 257.057C251 256.441 250.125 256.154 248.43 256.154ZM266.244 253.994V255.361H261.377V259.258H259.654V255.361H254.855V253.994H266.244ZM257.918 247.295V248.73H263.141V247.295H264.891V252.791H256.195V247.295H257.918ZM257.918 251.396H263.141V250.098H257.918V251.396Z" fill="#565656"/>
<path d="M0 196H153.523L175 170L153.523 144H0L21.4773 170L0 196Z" fill="#6A6A6A"/>
<path d="M166 196H321.277L343 170L321.277 144H166L187.723 170L166 196Z" fill="#565656"/>
<circle cx="48" cy="170" r="20" fill="white"/>
<circle cx="215" cy="170" r="20" fill="white"/>
<path d="M41.9414 176.176C38.7598 176.176 36.8262 173.803 36.8262 169.637C36.8262 165.471 38.7598 163.098 41.9414 163.098C45.123 163.098 47.0566 165.488 47.0566 169.637C47.0566 173.82 45.123 176.176 41.9414 176.176ZM41.9414 173.996C43.418 173.996 44.3672 172.572 44.3496 169.637C44.3496 166.736 43.418 165.26 41.9414 165.26C40.4648 165.26 39.5332 166.736 39.5332 169.637C39.5156 172.572 40.4648 173.996 41.9414 173.996ZM53.5957 176.176C50.8008 176.176 48.7969 174.629 48.7441 172.414H51.416C51.4688 173.363 52.3828 173.996 53.6133 173.996C54.8789 173.996 55.793 173.275 55.7754 172.256C55.793 171.219 54.8613 170.48 53.3672 170.48H52.1895V168.529H53.3672C54.6152 168.529 55.4941 167.844 55.4941 166.842C55.4941 165.875 54.7559 165.207 53.6309 165.207C52.5059 165.207 51.5742 165.84 51.5391 166.807H49.0078C49.043 164.609 51.0293 163.098 53.6309 163.098C56.2852 163.098 58.0605 164.662 58.043 166.684C58.0605 168.107 57.0586 169.127 55.6348 169.373V169.479C57.498 169.707 58.5352 170.85 58.5176 172.432C58.5352 174.611 56.4609 176.176 53.5957 176.176Z" fill="#6A6A6A"/>
<path d="M209.941 176.176C206.76 176.176 204.826 173.803 204.826 169.637C204.826 165.471 206.76 163.098 209.941 163.098C213.123 163.098 215.057 165.488 215.057 169.637C215.057 173.82 213.123 176.176 209.941 176.176ZM209.941 173.996C211.418 173.996 212.367 172.572 212.35 169.637C212.35 166.736 211.418 165.26 209.941 165.26C208.465 165.26 207.533 166.736 207.533 169.637C207.516 172.572 208.465 173.996 209.941 173.996ZM216.674 173.75V171.658L222.053 163.273H225.375V171.623H226.992V173.75H225.375V176H222.861V173.75H216.674ZM219.346 171.623H222.896V166.174H222.773L219.346 171.518V171.623Z" fill="#565656"/>
<path d="M73.0156 368.816V381.258H71.2793V368.816H73.0156ZM62.6113 377.744C63.5615 377.737 64.6484 377.737 65.7832 377.703V376.65C64.416 376.411 63.5273 375.563 63.541 374.395C63.5273 373 64.7988 372.057 66.6309 372.057C68.4766 372.057 69.7617 373 69.7617 374.395C69.7617 375.557 68.873 376.404 67.5059 376.65V377.648C68.5449 377.601 69.5977 377.519 70.5957 377.389L70.7188 378.674C67.998 379.139 65.0586 379.166 62.8438 379.166L62.6113 377.744ZM70.418 370.197V371.564H62.8574V370.197H65.7832V368.871H67.5195V370.197H70.418ZM66.6309 373.383C65.7832 373.383 65.1816 373.752 65.1953 374.395C65.1816 375.051 65.7832 375.406 66.6309 375.406C67.5059 375.406 68.0938 375.051 68.0938 374.395C68.0938 373.752 67.5059 373.383 66.6309 373.383ZM79.3184 370.949C79.3184 372.562 80.1797 374.162 82.1621 374.818L81.2188 376.186C79.8994 375.7 78.9902 374.784 78.4707 373.629C77.9307 374.928 76.96 375.953 75.5176 376.473L74.5742 375.105C76.6523 374.422 77.5547 372.713 77.5547 370.936V369.582H79.3184V370.949ZM85.1426 368.83V378.018H83.4062V372.877H81.0684V371.469H83.4062V368.83H85.1426ZM85.4023 379.645V381.039H76.8574V377.047H78.6211V379.645H85.4023ZM95.9844 370.717V372.098H89.9688V370.717H92.1289V369.158H93.8516V370.717H95.9844ZM93.0039 372.658C94.5898 372.658 95.7246 373.889 95.7383 375.611C95.7246 377.348 94.5898 378.578 93.0039 378.578C91.418 378.578 90.2559 377.348 90.2559 375.611C90.2559 373.889 91.418 372.658 93.0039 372.658ZM93.0039 374.107C92.2793 374.107 91.7871 374.668 91.7871 375.611C91.7871 376.555 92.2793 377.102 93.0039 377.102C93.7012 377.102 94.1934 376.555 94.207 375.611C94.1934 374.668 93.7012 374.107 93.0039 374.107ZM100.742 368.816V381.258H99.0879V375.27H98.0762V380.725H96.4492V369.062H98.0762V373.875H99.0879V368.816H100.742ZM106.908 372.207C106.908 374.217 107.934 376.363 110.025 377.238L109.082 378.605C107.612 377.983 106.601 376.746 106.047 375.229C105.479 376.876 104.447 378.243 102.984 378.92L101.986 377.539C104.051 376.623 105.117 374.312 105.117 372.207V371.441H102.479V370.02H109.506V371.441H106.908V372.207ZM112.5 368.816V381.258H110.736V368.816H112.5Z" fill="#464646"/>
<path d="M0 340H153.523L175 314L153.523 288H0L21.4773 314L0 340Z" fill="#464646"/>
<circle cx="48" cy="314" r="20" fill="white"/>
<path d="M41.9414 320.176C38.7598 320.176 36.8262 317.803 36.8262 313.637C36.8262 309.471 38.7598 307.098 41.9414 307.098C45.123 307.098 47.0566 309.488 47.0566 313.637C47.0566 317.82 45.123 320.176 41.9414 320.176ZM41.9414 317.996C43.418 317.996 44.3672 316.572 44.3496 313.637C44.3496 310.736 43.418 309.26 41.9414 309.26C40.4648 309.26 39.5332 310.736 39.5332 313.637C39.5156 316.572 40.4648 317.996 41.9414 317.996ZM53.5605 320.176C50.9062 320.176 48.9727 318.611 48.9199 316.414H51.4863C51.5391 317.416 52.4531 318.084 53.5605 318.084C54.8789 318.084 55.8105 317.152 55.8105 315.834C55.8105 314.48 54.8613 313.549 53.5254 313.531C52.5762 313.531 51.9082 313.883 51.5215 314.604H49.1309L49.8164 307.273H57.6562V309.436H51.9961L51.6445 312.652H51.75C52.2246 312.02 53.1738 311.58 54.2988 311.58C56.6367 311.58 58.377 313.32 58.377 315.764C58.377 318.33 56.4258 320.176 53.5605 320.176Z" fill="#464646"/>
</svg>
