<svg width="1120" height="142" viewBox="0 0 1120 142" fill="none" xmlns="http://www.w3.org/2000/svg">
<path d="M98.9219 90.6211V106.617H96.6895V90.6211H98.9219ZM85.5449 102.1C86.7666 102.091 88.1641 102.091 89.623 102.047V100.693C87.8652 100.386 86.7227 99.2959 86.7402 97.793C86.7227 96 88.3574 94.7871 90.7129 94.7871C93.0859 94.7871 94.7383 96 94.7383 97.793C94.7383 99.2871 93.5957 100.377 91.8379 100.693V101.977C93.1738 101.915 94.5273 101.81 95.8105 101.643L95.9688 103.295C92.4707 103.893 88.6914 103.928 85.8438 103.928L85.5449 102.1ZM95.582 92.3965V94.1543H85.8613V92.3965H89.623V90.6914H91.8555V92.3965H95.582ZM90.7129 96.4922C89.623 96.4922 88.8496 96.9668 88.8672 97.793C88.8496 98.6367 89.623 99.0938 90.7129 99.0938C91.8379 99.0938 92.5938 98.6367 92.5938 97.793C92.5938 96.9668 91.8379 96.4922 90.7129 96.4922ZM107.025 93.3633C107.025 95.4375 108.133 97.4941 110.682 98.3379L109.469 100.096C107.772 99.4717 106.604 98.2939 105.936 96.8086C105.241 98.4785 103.993 99.7969 102.139 100.465L100.926 98.707C103.598 97.8281 104.758 95.6309 104.758 93.3457V91.6055H107.025V93.3633ZM114.514 90.6387V102.451H112.281V95.8418H109.275V94.0312H112.281V90.6387H114.514ZM114.848 104.543V106.336H103.861V101.203H106.129V104.543H114.848ZM129.982 90.6387V102.311H127.732V90.6387H129.982ZM130.404 104.543V106.336H119.26V101.186H121.527V104.543H130.404ZM122.723 93.0645C122.705 95.1738 123.83 97.248 126.467 98.0918L125.324 99.8496C123.522 99.252 122.274 98.0566 121.562 96.5273C120.851 98.1709 119.567 99.4893 117.695 100.131L116.535 98.3555C119.225 97.459 120.385 95.2266 120.385 93.0645V91.5176H122.723V93.0645ZM141.268 92.291V94.0488H138.033C138.051 95.6924 139.264 97.3623 141.83 98.0215L140.793 99.7441C138.974 99.2871 137.69 98.2764 136.961 96.9668C136.267 98.4609 134.983 99.6299 133.094 100.166L132.039 98.4258C134.605 97.6963 135.783 95.8682 135.801 94.0488H132.584V92.291H135.801V90.5508H138.068V92.291H141.268ZM145.627 90.6211V100.289H143.395V96.7031H140.793V94.9102H143.395V90.6211H145.627ZM140.16 100.553C143.57 100.57 145.662 101.643 145.68 103.559C145.662 105.492 143.57 106.617 140.16 106.617C136.768 106.617 134.658 105.492 134.658 103.559C134.658 101.643 136.768 100.57 140.16 100.553ZM140.16 102.275C138.033 102.275 136.891 102.697 136.891 103.559C136.891 104.438 138.033 104.912 140.16 104.912C142.322 104.912 143.447 104.438 143.447 103.559C143.447 102.697 142.322 102.275 140.16 102.275Z" fill="#120D4D"/>
<path d="M302.051 90.6387V102.311H299.801V90.6387H302.051ZM302.473 104.543V106.336H291.328V101.186H293.596V104.543H302.473ZM294.791 93.0645C294.773 95.1738 295.898 97.248 298.535 98.0918L297.393 99.8496C295.591 99.252 294.343 98.0566 293.631 96.5273C292.919 98.1709 291.636 99.4893 289.764 100.131L288.604 98.3555C291.293 97.459 292.453 95.2266 292.453 93.0645V91.5176H294.791V93.0645ZM313.336 92.291V94.0488H310.102C310.119 95.6924 311.332 97.3623 313.898 98.0215L312.861 99.7441C311.042 99.2871 309.759 98.2764 309.029 96.9668C308.335 98.4609 307.052 99.6299 305.162 100.166L304.107 98.4258C306.674 97.6963 307.852 95.8682 307.869 94.0488H304.652V92.291H307.869V90.5508H310.137V92.291H313.336ZM317.695 90.6211V100.289H315.463V96.7031H312.861V94.9102H315.463V90.6211H317.695ZM312.229 100.553C315.639 100.57 317.73 101.643 317.748 103.559C317.73 105.492 315.639 106.617 312.229 106.617C308.836 106.617 306.727 105.492 306.727 103.559C306.727 101.643 308.836 100.57 312.229 100.553ZM312.229 102.275C310.102 102.275 308.959 102.697 308.959 103.559C308.959 104.438 310.102 104.912 312.229 104.912C314.391 104.912 315.516 104.438 315.516 103.559C315.516 102.697 314.391 102.275 312.229 102.275ZM325.816 94.2422C325.816 97.248 327.029 100.166 329.701 101.326L328.33 103.119C326.555 102.249 325.368 100.658 324.709 98.6895C324.006 100.781 322.775 102.495 320.947 103.4L319.541 101.572C322.283 100.342 323.531 97.248 323.549 94.2422V91.8516H325.816V94.2422ZM333.27 90.6211V106.652H331.055V97.459H327.908V95.6484H331.055V90.6211H333.27ZM354.029 97.4414V99.0762H347.877V100.078H352.289V103.98H343.377V104.859H352.711V106.512H341.18V102.469H350.074V101.678H341.162V100.078H345.645V99.0762H339.51V97.4414H354.029ZM347.859 90.6035V91.8691H352.658V93.5215H348.141C348.58 94.4531 350.215 95.2178 353.449 95.3496L352.799 97.002C349.828 96.8613 347.771 96.1055 346.752 94.8926C345.741 96.1055 343.676 96.8613 340.688 97.002L340.072 95.3496C343.28 95.2178 344.906 94.4531 345.363 93.5215H340.881V91.8691H345.645V90.6035H347.859ZM362.713 91.5527V96.5449H357.879V98.25C360.261 98.25 361.667 98.1709 363.293 97.8633L363.504 99.6562C361.641 99.9902 359.953 100.043 356.859 100.043H355.664V94.875H360.463V93.3105H355.629V91.5527H362.713ZM368.514 90.6387V100.482H366.281V98.0215H363.627V96.2461H366.281V94.6289H363.627V92.8535H366.281V90.6387H368.514ZM368.514 101.203V106.617H366.281V102.996H357.492V101.203H368.514ZM388.57 92.2734V94.084H375.439V92.2734H380.906V90.6035H383.139V92.2734H388.57ZM389.379 100.957V102.785H383.139V106.635H380.906V102.785H374.736V100.957H389.379ZM382.031 94.6992C385.459 94.6992 387.533 95.666 387.551 97.4414C387.533 99.2168 385.459 100.184 382.031 100.184C378.568 100.184 376.494 99.2168 376.512 97.4414C376.494 95.666 378.568 94.6992 382.031 94.6992ZM382.031 96.3516C379.887 96.3691 378.832 96.7031 378.832 97.4414C378.832 98.1621 379.887 98.5137 382.031 98.5137C384.141 98.5137 385.213 98.1621 385.213 97.4414C385.213 96.7031 384.141 96.3691 382.031 96.3516ZM311.956 119.621V135.617H309.688V119.621H311.956ZM307.157 121.291C307.157 126.143 305.452 130.168 299.739 132.875L298.562 131.082C302.692 129.131 304.512 126.6 304.872 123.049H299.423V121.291H307.157ZM323.03 120.781V121.783C323.03 122.891 323.03 124.49 322.661 126.477L320.464 126.266C320.745 124.728 320.815 123.567 320.833 122.609H314.804V120.781H323.03ZM319.058 124.473V127.531C320.648 127.47 322.283 127.347 323.786 127.127L323.909 128.744C320.587 129.359 316.825 129.412 314.048 129.43L313.854 127.637C314.751 127.637 315.762 127.637 316.825 127.602V124.473H319.058ZM326.95 119.621V124.49H328.884V126.371H326.95V131.592H324.647V119.621H326.95ZM327.442 133.543V135.336H316.21V130.52H318.46V133.543H327.442ZM338.71 120.693V122.486H335.528C335.546 124.35 336.662 126.151 339.22 126.898L338.147 128.656C336.381 128.12 335.159 127.048 334.456 125.668C333.744 127.285 332.443 128.568 330.519 129.201L329.376 127.426C332.03 126.591 333.226 124.517 333.261 122.486H329.991V120.693H338.71ZM342.313 119.621V123.33H344.476V125.158H342.313V129.113H340.063V119.621H342.313ZM337.075 129.43C340.397 129.412 342.472 130.555 342.472 132.506C342.472 134.457 340.397 135.617 337.075 135.617C333.683 135.617 331.591 134.457 331.591 132.506C331.591 130.555 333.683 129.412 337.075 129.43ZM337.075 131.17C334.966 131.17 333.823 131.609 333.841 132.506C333.823 133.42 334.966 133.877 337.075 133.877C339.149 133.877 340.257 133.42 340.257 132.506C340.257 131.609 339.149 131.17 337.075 131.17ZM362.722 119.621V129.254H360.472V119.621H362.722ZM362.722 129.957V135.617H360.472V131.75H351.718V129.957H362.722ZM358.784 120.553V122.346H355.567C355.585 124.218 356.763 126.187 359.382 126.969L358.239 128.709C356.446 128.155 355.181 127.004 354.46 125.545C353.73 127.127 352.43 128.384 350.558 129.008L349.397 127.268C352.034 126.415 353.265 124.341 353.282 122.346H349.995V120.553H358.784ZM378.278 119.639V131.135H376.028V119.639H378.278ZM378.7 133.543V135.336H367.556V129.975H369.823V133.543H378.7ZM369.507 120.658C371.968 120.658 373.884 122.346 373.884 124.684C373.884 127.074 371.968 128.744 369.507 128.744C367.046 128.744 365.13 127.074 365.13 124.684C365.13 122.346 367.046 120.658 369.507 120.658ZM369.507 122.609C368.259 122.592 367.31 123.383 367.327 124.684C367.31 126.02 368.259 126.793 369.507 126.793C370.72 126.793 371.669 126.02 371.669 124.684C371.669 123.383 370.72 122.592 369.507 122.609Z" fill="#312B82"/>
<path d="M535.75 94.2422C535.732 97.1074 536.963 100.008 539.529 101.238L538.176 103.031C536.462 102.188 535.311 100.605 534.643 98.6719C533.948 100.746 532.709 102.442 530.898 103.33L529.51 101.52C532.217 100.271 533.5 97.2129 533.5 94.2422V91.8516H535.75V94.2422ZM542.482 90.6211V96.791H544.838V98.6895H542.482V106.617H540.232V90.6211H542.482ZM558.812 90.6211V106.652H556.545V90.6211H558.812ZM550.129 91.7461C552.537 91.7461 554.33 93.9609 554.33 97.4414C554.33 100.957 552.537 103.154 550.129 103.154C547.668 103.154 545.875 100.957 545.893 97.4414C545.875 93.9609 547.668 91.7461 550.129 91.7461ZM550.129 93.7676C548.881 93.7676 548.055 95.0684 548.055 97.4414C548.055 99.832 548.881 101.115 550.129 101.115C551.342 101.115 552.168 99.832 552.168 97.4414C552.168 95.0684 551.342 93.7676 550.129 93.7676ZM574.018 98.8828V100.658H562.697V91.7988H573.895V93.6094H564.982V95.2969H573.525V97.0547H564.982V98.8828H574.018ZM575.617 102.926V104.754H560.975V102.926H575.617ZM590.4 90.6211V106.617H588.256V90.6211H590.4ZM587.061 90.8496V105.879H584.951V98.3203H583.668C583.457 101.467 582.121 103.365 580.152 103.365C578.043 103.365 576.672 101.15 576.672 97.5469C576.672 93.9609 578.043 91.7637 580.152 91.7637C582.077 91.7637 583.396 93.5566 583.65 96.5449H584.951V90.8496H587.061ZM580.152 93.873C579.256 93.873 578.729 95.1035 578.746 97.5469C578.729 100.008 579.256 101.221 580.152 101.203C581.066 101.221 581.611 100.008 581.611 97.5469C581.611 95.1035 581.066 93.873 580.152 93.873ZM542.104 120.307C544.152 120.289 545.778 121.458 546.218 123.172H548.89V119.621H551.122V128.217H548.89V124.965H546.235C545.813 126.723 544.17 127.918 542.104 127.918C539.644 127.918 537.833 126.318 537.851 124.086C537.833 121.889 539.644 120.289 542.104 120.307ZM542.104 122.17C540.856 122.152 539.96 122.891 539.978 124.086C539.96 125.281 540.856 126.037 542.104 126.037C543.317 126.037 544.196 125.281 544.196 124.086C544.196 122.891 543.317 122.152 542.104 122.17ZM542.667 128.92V130.467H548.89V128.92H551.122V135.441H540.452V128.92H542.667ZM542.667 133.631H548.89V132.189H542.667V133.631ZM567.839 131.996V133.842H553.196V131.996H559.366V129.588H554.884V124.209H563.937V122.451H554.866V120.658H566.151V125.967H557.134V127.76H566.521V129.588H561.599V131.996H567.839ZM581.796 127.021V128.814H570.476V120.957H581.673V122.768H572.69V127.021H581.796ZM583.396 131.82V133.666H568.753V131.82H583.396Z" fill="#3D49B6"/>
<path d="M749.747 91.2891C752.19 91.2715 753.966 92.6602 753.966 94.6816C753.966 96.6855 752.19 98.0918 749.747 98.0742C747.304 98.0918 745.528 96.6855 745.546 94.6816C745.528 92.6602 747.304 91.2715 749.747 91.2891ZM749.747 93.082C748.552 93.082 747.708 93.6621 747.708 94.6816C747.708 95.6836 748.552 96.2637 749.747 96.2461C750.978 96.2637 751.839 95.6836 751.839 94.6816C751.839 93.6621 750.978 93.082 749.747 93.082ZM758.009 90.6387V106.617H755.794V90.6387H758.009ZM744.562 99.0586C747.392 99.0586 751.417 98.9883 754.827 98.4785L754.968 100.131C753.649 100.395 752.296 100.562 750.96 100.658V106.143H748.728V100.799C747.321 100.86 745.994 100.869 744.843 100.887L744.562 99.0586ZM768.239 91.6758V93.4512H762.948V94.7871H767.905V96.5098H762.948V97.8984C765.55 97.8809 767.22 97.793 769.101 97.459L769.347 99.2168C767.185 99.6035 765.251 99.6738 762.017 99.6738H760.681V91.6758H768.239ZM772.774 90.6211V94.5234H774.937V96.3867H772.774V100.289H770.524V90.6211H772.774ZM772.774 100.957V106.617H770.524V102.732H761.999V100.957H772.774ZM781.528 94.2422C781.511 97.1074 782.741 100.008 785.308 101.238L783.954 103.031C782.24 102.188 781.089 100.605 780.421 98.6719C779.727 100.746 778.487 102.442 776.677 103.33L775.288 101.52C777.995 100.271 779.278 97.2129 779.278 94.2422V91.8516H781.528V94.2422ZM788.261 90.6211V96.791H790.616V98.6895H788.261V106.617H786.011V90.6211H788.261ZM795.661 91.3066C797.709 91.2891 799.335 92.458 799.774 94.1719H802.446V90.6211H804.679V99.2168H802.446V95.9648H799.792C799.37 97.7227 797.727 98.918 795.661 98.918C793.2 98.918 791.39 97.3184 791.407 95.0859C791.39 92.8887 793.2 91.2891 795.661 91.3066ZM795.661 93.1699C794.413 93.1523 793.517 93.8906 793.534 95.0859C793.517 96.2812 794.413 97.0371 795.661 97.0371C796.874 97.0371 797.753 96.2812 797.753 95.0859C797.753 93.8906 796.874 93.1523 795.661 93.1699ZM796.224 99.9199V101.467H802.446V99.9199H804.679V106.441H794.009V99.9199H796.224ZM796.224 104.631H802.446V103.189H796.224V104.631ZM812.659 94.9805C812.642 97.4238 813.942 100.236 816.579 101.449L815.331 103.207C813.547 102.39 812.272 100.755 811.569 98.8301C810.849 100.948 809.539 102.741 807.685 103.611L806.384 101.836C809.056 100.588 810.392 97.6172 810.409 94.9805V93.9961H807.017V92.168H815.876V93.9961H812.659V94.9805ZM819.374 90.6211V96.7207H821.729V98.6016H819.374V106.617H817.124V90.6211H819.374ZM836.179 90.6211V106.617H834.034V90.6211H836.179ZM832.839 90.8496V105.879H830.729V98.3203H829.446C829.235 101.467 827.899 103.365 825.931 103.365C823.821 103.365 822.45 101.15 822.45 97.5469C822.45 93.9609 823.821 91.7637 825.931 91.7637C827.855 91.7637 829.174 93.5566 829.429 96.5449H830.729V90.8496H832.839ZM825.931 93.873C825.034 93.873 824.507 95.1035 824.524 97.5469C824.507 100.008 825.034 101.221 825.931 101.203C826.845 101.221 827.39 100.008 827.39 97.5469C827.39 95.1035 826.845 93.873 825.931 93.873ZM851.735 90.6211V106.617H849.626V90.6211H851.735ZM848.325 90.9727V105.914H846.233V98.5664H843.614C842.7 100.395 841.215 101.977 838.938 103.295L837.673 101.713C840.898 99.7969 842.322 97.4678 842.63 94.3301H838.552V92.5195H844.862C844.854 94.04 844.695 95.4727 844.317 96.791H846.233V90.9727H848.325ZM791.803 125.281V127.25H798.008V129.043H783.418V127.25H789.588V125.281H791.803ZM791.838 120.412C791.838 122.275 793.631 124.051 797.234 124.49L796.373 126.23C793.675 125.826 791.688 124.692 790.678 123.084C789.649 124.692 787.663 125.835 784.965 126.23L784.174 124.49C787.707 124.051 789.553 122.223 789.553 120.412V119.885H791.838V120.412ZM790.695 129.922C794.176 129.922 796.25 130.959 796.268 132.787C796.25 134.615 794.176 135.617 790.695 135.617C787.18 135.617 785.088 134.615 785.088 132.787C785.088 130.959 787.18 129.922 790.695 129.922ZM790.695 131.627C788.463 131.627 787.355 131.996 787.373 132.787C787.355 133.578 788.463 133.947 790.695 133.947C792.875 133.947 794 133.578 794.018 132.787C794 131.996 792.875 131.627 790.695 131.627ZM813.6 128.85V130.607H807.342V135.617H805.127V130.607H798.957V128.85H813.6ZM802.895 120.236V122.082H809.609V120.236H811.859V127.303H800.68V120.236H802.895ZM802.895 125.51H809.609V123.84H802.895V125.51Z" fill="#5166D4"/>
<path d="M986.309 90.6211V106.617H984.076V90.6211H986.309ZM972.932 102.1C974.153 102.091 975.551 102.091 977.01 102.047V100.693C975.252 100.386 974.109 99.2959 974.127 97.793C974.109 96 975.744 94.7871 978.1 94.7871C980.473 94.7871 982.125 96 982.125 97.793C982.125 99.2871 980.982 100.377 979.225 100.693V101.977C980.561 101.915 981.914 101.81 983.197 101.643L983.355 103.295C979.857 103.893 976.078 103.928 973.23 103.928L972.932 102.1ZM982.969 92.3965V94.1543H973.248V92.3965H977.01V90.6914H979.242V92.3965H982.969ZM978.1 96.4922C977.01 96.4922 976.236 96.9668 976.254 97.793C976.236 98.6367 977.01 99.0938 978.1 99.0938C979.225 99.0938 979.98 98.6367 979.98 97.793C979.98 96.9668 979.225 96.4922 978.1 96.4922ZM994.412 93.3633C994.412 95.4375 995.52 97.4941 998.068 98.3379L996.855 100.096C995.159 99.4717 993.99 98.2939 993.322 96.8086C992.628 98.4785 991.38 99.7969 989.525 100.465L988.312 98.707C990.984 97.8281 992.145 95.6309 992.145 93.3457V91.6055H994.412V93.3633ZM1001.9 90.6387V102.451H999.668V95.8418H996.662V94.0312H999.668V90.6387H1001.9ZM1002.23 104.543V106.336H991.248V101.203H993.516V104.543H1002.23ZM1017.77 90.6211V106.617H1015.61V98.4785H1014.15V105.914H1012.06V91.043H1014.15V96.6855H1015.61V90.6211H1017.77ZM1010.94 92.5898C1010.92 97.0547 1009.58 100.711 1005.08 103.33L1003.78 101.783C1007.04 99.8672 1008.44 97.5205 1008.76 94.3828H1004.59V92.5898H1010.94ZM1034.12 98.8652V100.623H1019.5V98.8652H1025.68V97.8809H1021.32V91.0078H1032.42V92.7305H1023.57V93.627H1032.05V95.2441H1023.57V96.1582H1032.56V97.8809H1027.93V98.8652H1034.12ZM1026.81 101.361C1030.34 101.344 1032.36 102.293 1032.38 103.98C1032.36 105.703 1030.34 106.617 1026.81 106.617C1023.22 106.617 1021.2 105.703 1021.2 103.98C1021.2 102.293 1023.22 101.344 1026.81 101.361ZM1026.81 103.014C1024.51 103.014 1023.43 103.312 1023.45 103.98C1023.43 104.666 1024.51 104.965 1026.81 104.965C1029.06 104.965 1030.11 104.666 1030.13 103.98C1030.11 103.312 1029.06 103.014 1026.81 103.014Z" fill="#6192F2"/>
<path fill-rule="evenodd" clip-rule="evenodd" d="M26 0C11.6406 0 0 11.6406 0 26C0 40.3594 11.6406 52 26 52H207.728V26V0H26ZM207.728 52L233.221 26L207.728 0V52Z" fill="#120D4D"/>
<circle cx="26" cy="26" r="20" fill="white"/>
<path d="M221 52H427.159L456 26L427.159 0H221L249.841 26L221 52Z" fill="#312B82"/>
<path d="M444 52H648.405L677 26L648.405 0H444L472.595 26L444 52Z" fill="#3D49B6"/>
<path d="M665 52H871.159L900 26L871.159 0H665L693.841 26L665 52Z" fill="#5166D5"/>
<path d="M888 52H1091.53L1120 26L1091.53 0H888L916.473 26L888 52Z" fill="#6192F2"/>
<circle cx="276" cy="26" r="20" fill="white"/>
<circle cx="499" cy="26" r="20" fill="white"/>
<circle cx="720" cy="26" r="20" fill="white"/>
<circle cx="943" cy="26" r="20" fill="white"/>
<path d="M20.9414 32.1758C17.7598 32.1758 15.8262 29.8027 15.8262 25.6367C15.8262 21.4707 17.7598 19.0977 20.9414 19.0977C24.123 19.0977 26.0566 21.4883 26.0566 25.6367C26.0566 29.8203 24.123 32.1758 20.9414 32.1758ZM20.9414 29.9961C22.418 29.9961 23.3672 28.5723 23.3496 25.6367C23.3496 22.7363 22.418 21.2598 20.9414 21.2598C19.4648 21.2598 18.5332 22.7363 18.5332 25.6367C18.5156 28.5723 19.4648 29.9961 20.9414 29.9961ZM33.3691 19.2734V32H30.7148V21.7871H30.6445L27.7266 23.6152V21.2773L30.873 19.2734H33.3691Z" fill="#120D4D"/>
<path d="M270.941 32.1758C267.76 32.1758 265.826 29.8027 265.826 25.6367C265.826 21.4707 267.76 19.0977 270.941 19.0977C274.123 19.0977 276.057 21.4883 276.057 25.6367C276.057 29.8203 274.123 32.1758 270.941 32.1758ZM270.941 29.9961C272.418 29.9961 273.367 28.5723 273.35 25.6367C273.35 22.7363 272.418 21.2598 270.941 21.2598C269.465 21.2598 268.533 22.7363 268.533 25.6367C268.516 28.5723 269.465 29.9961 270.941 29.9961ZM277.885 32L277.867 30.084L282.438 25.8828C283.633 24.7402 284.266 24.0371 284.266 23.0352C284.266 21.9102 283.404 21.207 282.244 21.207C281.049 21.207 280.275 21.9629 280.275 23.1758H277.762C277.744 20.6797 279.59 19.0977 282.279 19.0977C285.004 19.0977 286.814 20.6445 286.814 22.8594C286.814 24.3008 286.111 25.4961 283.492 27.8691L281.559 29.75V29.8203H286.99V32H277.885Z" fill="#312B82"/>
<path d="M492.941 32.1758C489.76 32.1758 487.826 29.8027 487.826 25.6367C487.826 21.4707 489.76 19.0977 492.941 19.0977C496.123 19.0977 498.057 21.4883 498.057 25.6367C498.057 29.8203 496.123 32.1758 492.941 32.1758ZM492.941 29.9961C494.418 29.9961 495.367 28.5723 495.35 25.6367C495.35 22.7363 494.418 21.2598 492.941 21.2598C491.465 21.2598 490.533 22.7363 490.533 25.6367C490.516 28.5723 491.465 29.9961 492.941 29.9961ZM504.596 32.1758C501.801 32.1758 499.797 30.6289 499.744 28.4141H502.416C502.469 29.3633 503.383 29.9961 504.613 29.9961C505.879 29.9961 506.793 29.2754 506.775 28.2559C506.793 27.2188 505.861 26.4805 504.367 26.4805H503.189V24.5293H504.367C505.615 24.5293 506.494 23.8438 506.494 22.8418C506.494 21.875 505.756 21.207 504.631 21.207C503.506 21.207 502.574 21.8398 502.539 22.8066H500.008C500.043 20.6094 502.029 19.0977 504.631 19.0977C507.285 19.0977 509.061 20.6621 509.043 22.6836C509.061 24.1074 508.059 25.127 506.635 25.373V25.4785C508.498 25.707 509.535 26.8496 509.518 28.4316C509.535 30.6113 507.461 32.1758 504.596 32.1758Z" fill="#3D49B6"/>
<path d="M714.941 32.1758C711.76 32.1758 709.826 29.8027 709.826 25.6367C709.826 21.4707 711.76 19.0977 714.941 19.0977C718.123 19.0977 720.057 21.4883 720.057 25.6367C720.057 29.8203 718.123 32.1758 714.941 32.1758ZM714.941 29.9961C716.418 29.9961 717.367 28.5723 717.35 25.6367C717.35 22.7363 716.418 21.2598 714.941 21.2598C713.465 21.2598 712.533 22.7363 712.533 25.6367C712.516 28.5723 713.465 29.9961 714.941 29.9961ZM721.674 29.75V27.6582L727.053 19.2734H730.375V27.623H731.992V29.75H730.375V32H727.861V29.75H721.674ZM724.346 27.623H727.896V22.1738H727.773L724.346 27.5176V27.623Z" fill="#5166D4"/>
<path d="M936.941 32.1758C933.76 32.1758 931.826 29.8027 931.826 25.6367C931.826 21.4707 933.76 19.0977 936.941 19.0977C940.123 19.0977 942.057 21.4883 942.057 25.6367C942.057 29.8203 940.123 32.1758 936.941 32.1758ZM936.941 29.9961C938.418 29.9961 939.367 28.5723 939.35 25.6367C939.35 22.7363 938.418 21.2598 936.941 21.2598C935.465 21.2598 934.533 22.7363 934.533 25.6367C934.516 28.5723 935.465 29.9961 936.941 29.9961ZM948.561 32.1758C945.906 32.1758 943.973 30.6113 943.92 28.4141H946.486C946.539 29.416 947.453 30.084 948.561 30.084C949.879 30.084 950.811 29.1523 950.811 27.834C950.811 26.4805 949.861 25.5488 948.525 25.5312C947.576 25.5312 946.908 25.8828 946.521 26.6035H944.131L944.816 19.2734H952.656V21.4355H946.996L946.645 24.6523H946.75C947.225 24.0195 948.174 23.5801 949.299 23.5801C951.637 23.5801 953.377 25.3203 953.377 27.7637C953.377 30.3301 951.426 32.1758 948.561 32.1758Z" fill="#6192F2"/>
</svg>
