<svg width="1120" height="142" viewBox="0 0 1120 142" fill="none" xmlns="http://www.w3.org/2000/svg">
<path d="M79.6035 90.6211V106.617H77.3711V90.6211H79.6035ZM66.2266 102.1C67.4482 102.091 68.8457 102.091 70.3047 102.047V100.693C68.5469 100.386 67.4043 99.2959 67.4219 97.793C67.4043 96 69.0391 94.7871 71.3945 94.7871C73.7676 94.7871 75.4199 96 75.4199 97.793C75.4199 99.2871 74.2773 100.377 72.5195 100.693V101.977C73.8555 101.915 75.209 101.81 76.4922 101.643L76.6504 103.295C73.1523 103.893 69.373 103.928 66.5254 103.928L66.2266 102.1ZM76.2637 92.3965V94.1543H66.543V92.3965H70.3047V90.6914H72.5371V92.3965H76.2637ZM71.3945 96.4922C70.3047 96.4922 69.5312 96.9668 69.5488 97.793C69.5312 98.6367 70.3047 99.0938 71.3945 99.0938C72.5195 99.0938 73.2754 98.6367 73.2754 97.793C73.2754 96.9668 72.5195 96.4922 71.3945 96.4922ZM87.707 93.3633C87.707 95.4375 88.8145 97.4941 91.3633 98.3379L90.1504 100.096C88.4541 99.4717 87.2852 98.2939 86.6172 96.8086C85.9229 98.4785 84.6748 99.7969 82.8203 100.465L81.6074 98.707C84.2793 97.8281 85.4395 95.6309 85.4395 93.3457V91.6055H87.707V93.3633ZM95.1953 90.6387V102.451H92.9629V95.8418H89.957V94.0312H92.9629V90.6387H95.1953ZM95.5293 104.543V106.336H84.543V101.203H86.8105V104.543H95.5293ZM109.135 93.0645V94.8398H101.4V93.0645H104.178V91.0605H106.393V93.0645H109.135ZM105.303 95.5605C107.342 95.5605 108.801 97.1426 108.818 99.3574C108.801 101.59 107.342 103.172 105.303 103.172C103.264 103.172 101.77 101.59 101.77 99.3574C101.77 97.1426 103.264 95.5605 105.303 95.5605ZM105.303 97.4238C104.371 97.4238 103.738 98.1445 103.738 99.3574C103.738 100.57 104.371 101.273 105.303 101.273C106.199 101.273 106.832 100.57 106.85 99.3574C106.832 98.1445 106.199 97.4238 105.303 97.4238ZM115.252 90.6211V106.617H113.125V98.918H111.824V105.932H109.732V90.9375H111.824V97.125H113.125V90.6211H115.252ZM123.18 94.9805C123.18 97.5645 124.498 100.324 127.188 101.449L125.975 103.207C124.085 102.407 122.784 100.816 122.072 98.8652C121.343 100.983 120.016 102.741 118.135 103.611L116.852 101.836C119.506 100.658 120.877 97.6875 120.877 94.9805V93.9961H117.484V92.168H126.52V93.9961H123.18V94.9805ZM130.369 90.6211V106.617H128.102V90.6211H130.369ZM150.074 90.6387V102.311H147.824V90.6387H150.074ZM150.496 104.543V106.336H139.352V101.186H141.619V104.543H150.496ZM142.814 93.0645C142.797 95.1738 143.922 97.248 146.559 98.0918L145.416 99.8496C143.614 99.252 142.366 98.0566 141.654 96.5273C140.942 98.1709 139.659 99.4893 137.787 100.131L136.627 98.3555C139.316 97.459 140.477 95.2266 140.477 93.0645V91.5176H142.814V93.0645ZM161.359 92.291V94.0488H158.125C158.143 95.6924 159.355 97.3623 161.922 98.0215L160.885 99.7441C159.065 99.2871 157.782 98.2764 157.053 96.9668C156.358 98.4609 155.075 99.6299 153.186 100.166L152.131 98.4258C154.697 97.6963 155.875 95.8682 155.893 94.0488H152.676V92.291H155.893V90.5508H158.16V92.291H161.359ZM165.719 90.6211V100.289H163.486V96.7031H160.885V94.9102H163.486V90.6211H165.719ZM160.252 100.553C163.662 100.57 165.754 101.643 165.771 103.559C165.754 105.492 163.662 106.617 160.252 106.617C156.859 106.617 154.75 105.492 154.75 103.559C154.75 101.643 156.859 100.57 160.252 100.553ZM160.252 102.275C158.125 102.275 156.982 102.697 156.982 103.559C156.982 104.438 158.125 104.912 160.252 104.912C162.414 104.912 163.539 104.438 163.539 103.559C163.539 102.697 162.414 102.275 160.252 102.275ZM50.4238 129.148C50.4238 125.844 51.4434 123.102 53.1309 120.729H55.6094C54.3965 122.486 53.1309 126.002 53.1309 129.148C53.1309 132.312 54.3965 135.828 55.6094 137.586H53.1309C51.4434 135.213 50.4238 132.453 50.4238 129.148ZM61.9551 134.176C59.3184 134.158 56.8223 132.594 56.8223 127.936C56.8223 123.646 58.8789 121.098 62.0605 121.098C64.627 121.098 66.3672 122.715 66.6309 124.807H64.0293C63.8184 123.91 63.0801 123.365 62.0605 123.365C60.3379 123.365 59.4238 124.93 59.4062 127.426H59.5293C60.1094 126.301 61.375 125.633 62.7812 125.633C65.0664 125.633 66.7715 127.355 66.7715 129.746C66.7715 132.33 64.8203 134.193 61.9551 134.176ZM61.9375 132.084C63.2383 132.084 64.2051 131.1 64.2051 129.816C64.2051 128.551 63.2734 127.549 61.9727 127.549C60.6719 127.549 59.6875 128.568 59.6699 129.816C59.6875 131.064 60.6367 132.084 61.9375 132.084ZM73.5391 134.176C70.3574 134.176 68.4238 131.803 68.4238 127.637C68.4238 123.471 70.3574 121.098 73.5391 121.098C76.7207 121.098 78.6543 123.488 78.6543 127.637C78.6543 131.82 76.7207 134.176 73.5391 134.176ZM73.5391 131.996C75.0156 131.996 75.9648 130.572 75.9473 127.637C75.9473 124.736 75.0156 123.26 73.5391 123.26C72.0625 123.26 71.1309 124.736 71.1309 127.637C71.1133 130.572 72.0625 131.996 73.5391 131.996ZM84.5078 120.096C86.9336 120.096 88.7793 121.607 88.7793 123.752C88.7793 125.861 86.9336 127.391 84.5078 127.391C82.0293 127.391 80.2012 125.861 80.2012 123.752C80.2012 121.607 82.0293 120.096 84.5078 120.096ZM84.5078 121.924C83.2773 121.924 82.3633 122.592 82.3809 123.752C82.3633 124.895 83.2773 125.58 84.5078 125.58C85.7207 125.58 86.6172 124.895 86.6172 123.752C86.6172 122.592 85.7207 121.924 84.5078 121.924ZM93.3496 119.621V127.637H91.0996V119.621H93.3496ZM93.3496 128.305V132.646H84.8418V133.684H93.7891V135.441H82.6445V131.012H91.1172V130.027H82.6094V128.305H93.3496ZM108.994 119.639V131.311H106.762V125.58H104.143V123.77H106.762V119.639H108.994ZM109.381 133.543V135.336H98.377V130.291H100.627V133.543H109.381ZM101.559 122.768C101.559 124.613 102.684 126.6 105.232 127.426L104.125 129.201C102.35 128.63 101.137 127.461 100.434 126.002C99.7305 127.619 98.4561 128.902 96.5664 129.535L95.4238 127.707C98.0605 126.881 99.2559 124.789 99.2734 122.75V122.504H96.0566V120.711H104.74V122.504H101.559V122.768ZM122.934 122.064V123.84H115.199V122.064H117.977V120.061H120.191V122.064H122.934ZM119.102 124.561C121.141 124.561 122.6 126.143 122.617 128.357C122.6 130.59 121.141 132.172 119.102 132.172C117.062 132.172 115.568 130.59 115.568 128.357C115.568 126.143 117.062 124.561 119.102 124.561ZM119.102 126.424C118.17 126.424 117.537 127.145 117.537 128.357C117.537 129.57 118.17 130.273 119.102 130.273C119.998 130.273 120.631 129.57 120.648 128.357C120.631 127.145 119.998 126.424 119.102 126.424ZM129.051 119.621V135.617H126.924V127.918H125.623V134.932H123.531V119.938H125.623V126.125H126.924V119.621H129.051ZM136.979 123.98C136.979 126.564 138.297 129.324 140.986 130.449L139.773 132.207C137.884 131.407 136.583 129.816 135.871 127.865C135.142 129.983 133.814 131.741 131.934 132.611L130.65 130.836C133.305 129.658 134.676 126.688 134.676 123.98V122.996H131.283V121.168H140.318V122.996H136.979V123.98ZM144.168 119.621V135.617H141.9V119.621H144.168ZM160.92 127.865V129.623H146.295V127.865H152.482V126.881H148.123V120.008H159.215V121.73H150.373V122.627H158.846V124.244H150.373V125.158H159.355V126.881H154.732V127.865H160.92ZM153.607 130.361C157.141 130.344 159.162 131.293 159.18 132.98C159.162 134.703 157.141 135.617 153.607 135.617C150.021 135.617 148 134.703 148 132.98C148 131.293 150.021 130.344 153.607 130.361ZM153.607 132.014C151.305 132.014 150.232 132.312 150.25 132.98C150.232 133.666 151.305 133.965 153.607 133.965C155.857 133.965 156.912 133.666 156.93 132.98C156.912 132.312 155.857 132.014 153.607 132.014ZM176.529 131.926V133.754H161.887V131.926H168.057V128.973H163.434V120.641H165.684V123.119H172.662V120.641H174.895V128.973H170.289V131.926H176.529ZM165.684 127.18H172.662V124.912H165.684V127.18ZM182.576 129.148C182.576 132.453 181.557 135.213 179.869 137.586H177.391C178.604 135.828 179.869 132.312 179.869 129.148C179.869 126.002 178.604 122.486 177.391 120.729H179.869C181.557 123.102 182.576 125.844 182.576 129.148Z" fill="#A6A6A6"/>
<path d="M302.051 90.6387V102.311H299.801V90.6387H302.051ZM302.473 104.543V106.336H291.328V101.186H293.596V104.543H302.473ZM294.791 93.0645C294.773 95.1738 295.898 97.248 298.535 98.0918L297.393 99.8496C295.591 99.252 294.343 98.0566 293.631 96.5273C292.919 98.1709 291.636 99.4893 289.764 100.131L288.604 98.3555C291.293 97.459 292.453 95.2266 292.453 93.0645V91.5176H294.791V93.0645ZM313.336 92.291V94.0488H310.102C310.119 95.6924 311.332 97.3623 313.898 98.0215L312.861 99.7441C311.042 99.2871 309.759 98.2764 309.029 96.9668C308.335 98.4609 307.052 99.6299 305.162 100.166L304.107 98.4258C306.674 97.6963 307.852 95.8682 307.869 94.0488H304.652V92.291H307.869V90.5508H310.137V92.291H313.336ZM317.695 90.6211V100.289H315.463V96.7031H312.861V94.9102H315.463V90.6211H317.695ZM312.229 100.553C315.639 100.57 317.73 101.643 317.748 103.559C317.73 105.492 315.639 106.617 312.229 106.617C308.836 106.617 306.727 105.492 306.727 103.559C306.727 101.643 308.836 100.57 312.229 100.553ZM312.229 102.275C310.102 102.275 308.959 102.697 308.959 103.559C308.959 104.438 310.102 104.912 312.229 104.912C314.391 104.912 315.516 104.438 315.516 103.559C315.516 102.697 314.391 102.275 312.229 102.275ZM325.816 94.2422C325.816 97.248 327.029 100.166 329.701 101.326L328.33 103.119C326.555 102.249 325.368 100.658 324.709 98.6895C324.006 100.781 322.775 102.495 320.947 103.4L319.541 101.572C322.283 100.342 323.531 97.248 323.549 94.2422V91.8516H325.816V94.2422ZM333.27 90.6211V106.652H331.055V97.459H327.908V95.6484H331.055V90.6211H333.27ZM354.029 97.4414V99.0762H347.877V100.078H352.289V103.98H343.377V104.859H352.711V106.512H341.18V102.469H350.074V101.678H341.162V100.078H345.645V99.0762H339.51V97.4414H354.029ZM347.859 90.6035V91.8691H352.658V93.5215H348.141C348.58 94.4531 350.215 95.2178 353.449 95.3496L352.799 97.002C349.828 96.8613 347.771 96.1055 346.752 94.8926C345.741 96.1055 343.676 96.8613 340.688 97.002L340.072 95.3496C343.28 95.2178 344.906 94.4531 345.363 93.5215H340.881V91.8691H345.645V90.6035H347.859ZM362.713 91.5527V96.5449H357.879V98.25C360.261 98.25 361.667 98.1709 363.293 97.8633L363.504 99.6562C361.641 99.9902 359.953 100.043 356.859 100.043H355.664V94.875H360.463V93.3105H355.629V91.5527H362.713ZM368.514 90.6387V100.482H366.281V98.0215H363.627V96.2461H366.281V94.6289H363.627V92.8535H366.281V90.6387H368.514ZM368.514 101.203V106.617H366.281V102.996H357.492V101.203H368.514ZM388.57 92.2734V94.084H375.439V92.2734H380.906V90.6035H383.139V92.2734H388.57ZM389.379 100.957V102.785H383.139V106.635H380.906V102.785H374.736V100.957H389.379ZM382.031 94.6992C385.459 94.6992 387.533 95.666 387.551 97.4414C387.533 99.2168 385.459 100.184 382.031 100.184C378.568 100.184 376.494 99.2168 376.512 97.4414C376.494 95.666 378.568 94.6992 382.031 94.6992ZM382.031 96.3516C379.887 96.3691 378.832 96.7031 378.832 97.4414C378.832 98.1621 379.887 98.5137 382.031 98.5137C384.141 98.5137 385.213 98.1621 385.213 97.4414C385.213 96.7031 384.141 96.3691 382.031 96.3516ZM311.956 119.621V135.617H309.688V119.621H311.956ZM307.157 121.291C307.157 126.143 305.452 130.168 299.739 132.875L298.562 131.082C302.692 129.131 304.512 126.6 304.872 123.049H299.423V121.291H307.157ZM323.03 120.781V121.783C323.03 122.891 323.03 124.49 322.661 126.477L320.464 126.266C320.745 124.728 320.815 123.567 320.833 122.609H314.804V120.781H323.03ZM319.058 124.473V127.531C320.648 127.47 322.283 127.347 323.786 127.127L323.909 128.744C320.587 129.359 316.825 129.412 314.048 129.43L313.854 127.637C314.751 127.637 315.762 127.637 316.825 127.602V124.473H319.058ZM326.95 119.621V124.49H328.884V126.371H326.95V131.592H324.647V119.621H326.95ZM327.442 133.543V135.336H316.21V130.52H318.46V133.543H327.442ZM338.71 120.693V122.486H335.528C335.546 124.35 336.662 126.151 339.22 126.898L338.147 128.656C336.381 128.12 335.159 127.048 334.456 125.668C333.744 127.285 332.443 128.568 330.519 129.201L329.376 127.426C332.03 126.591 333.226 124.517 333.261 122.486H329.991V120.693H338.71ZM342.313 119.621V123.33H344.476V125.158H342.313V129.113H340.063V119.621H342.313ZM337.075 129.43C340.397 129.412 342.472 130.555 342.472 132.506C342.472 134.457 340.397 135.617 337.075 135.617C333.683 135.617 331.591 134.457 331.591 132.506C331.591 130.555 333.683 129.412 337.075 129.43ZM337.075 131.17C334.966 131.17 333.823 131.609 333.841 132.506C333.823 133.42 334.966 133.877 337.075 133.877C339.149 133.877 340.257 133.42 340.257 132.506C340.257 131.609 339.149 131.17 337.075 131.17ZM362.722 119.621V129.254H360.472V119.621H362.722ZM362.722 129.957V135.617H360.472V131.75H351.718V129.957H362.722ZM358.784 120.553V122.346H355.567C355.585 124.218 356.763 126.187 359.382 126.969L358.239 128.709C356.446 128.155 355.181 127.004 354.46 125.545C353.73 127.127 352.43 128.384 350.558 129.008L349.397 127.268C352.034 126.415 353.265 124.341 353.282 122.346H349.995V120.553H358.784ZM378.278 119.639V131.135H376.028V119.639H378.278ZM378.7 133.543V135.336H367.556V129.975H369.823V133.543H378.7ZM369.507 120.658C371.968 120.658 373.884 122.346 373.884 124.684C373.884 127.074 371.968 128.744 369.507 128.744C367.046 128.744 365.13 127.074 365.13 124.684C365.13 122.346 367.046 120.658 369.507 120.658ZM369.507 122.609C368.259 122.592 367.31 123.383 367.327 124.684C367.31 126.02 368.259 126.793 369.507 126.793C370.72 126.793 371.669 126.02 371.669 124.684C371.669 123.383 370.72 122.592 369.507 122.609Z" fill="#858585"/>
<path d="M525.397 94.2422C525.38 97.1074 526.61 100.008 529.177 101.238L527.823 103.031C526.109 102.188 524.958 100.605 524.29 98.6719C523.596 100.746 522.356 102.442 520.546 103.33L519.157 101.52C521.864 100.271 523.147 97.2129 523.147 94.2422V91.8516H525.397V94.2422ZM532.13 90.6211V96.791H534.485V98.6895H532.13V106.617H529.88V90.6211H532.13ZM549.69 99.5684V101.361H543.433V106.6H541.218V101.361H535.048V99.5684H549.69ZM547.933 91.3945V97.8457H536.771V91.3945H547.933ZM538.985 93.1699V96.0879H545.7V93.1699H538.985ZM563.524 91.3242V92.5723C563.524 93.75 563.524 95.1035 563.208 96.8262H565.265V98.6191H559.042V100.922H563.542V106.617H561.292V102.68H552.099V100.922H556.792V98.6191H550.622V96.8262H560.94C561.239 95.332 561.283 94.1543 561.292 93.0996H552.415V91.3242H563.524ZM578.712 96.2812V98.25H584.917V100.043H570.327V98.25H576.497V96.2812H578.712ZM578.747 91.4121C578.747 93.2754 580.54 95.0508 584.144 95.4902L583.282 97.2305C580.584 96.8262 578.598 95.6924 577.587 94.084C576.559 95.6924 574.572 96.835 571.874 97.2305L571.083 95.4902C574.616 95.0508 576.462 93.2227 576.462 91.4121V90.8848H578.747V91.4121ZM577.604 100.922C581.085 100.922 583.159 101.959 583.177 103.787C583.159 105.615 581.085 106.617 577.604 106.617C574.089 106.617 571.997 105.615 571.997 103.787C571.997 101.959 574.089 100.922 577.604 100.922ZM577.604 102.627C575.372 102.627 574.265 102.996 574.282 103.787C574.265 104.578 575.372 104.947 577.604 104.947C579.784 104.947 580.909 104.578 580.927 103.787C580.909 102.996 579.784 102.627 577.604 102.627ZM600.509 99.8496V101.607H594.251V106.617H592.036V101.607H585.866V99.8496H600.509ZM589.804 91.2363V93.082H596.519V91.2363H598.769V98.3027H587.589V91.2363H589.804ZM589.804 96.5098H596.519V94.8398H589.804V96.5098ZM523.807 129.148C523.807 125.844 524.826 123.102 526.514 120.729H528.992C527.779 122.486 526.514 126.002 526.514 129.148C526.514 132.312 527.779 135.828 528.992 137.586H526.514C524.826 135.213 523.807 132.453 523.807 129.148ZM530.908 134L536.27 123.523V123.436H530.029V121.273H539.012V123.471L533.65 134H530.908ZM544.795 120.096C547.221 120.096 549.066 121.607 549.066 123.752C549.066 125.861 547.221 127.391 544.795 127.391C542.316 127.391 540.488 125.861 540.488 123.752C540.488 121.607 542.316 120.096 544.795 120.096ZM544.795 121.924C543.564 121.924 542.65 122.592 542.668 123.752C542.65 124.895 543.564 125.58 544.795 125.58C546.008 125.58 546.904 124.895 546.904 123.752C546.904 122.592 546.008 121.924 544.795 121.924ZM553.637 119.621V127.637H551.387V119.621H553.637ZM553.637 128.305V132.646H545.129V133.684H554.076V135.441H542.932V131.012H551.404V130.027H542.896V128.305H553.637ZM573.342 119.621V135.652H571.074V119.621H573.342ZM564.658 120.746C567.066 120.746 568.859 122.961 568.859 126.441C568.859 129.957 567.066 132.154 564.658 132.154C562.197 132.154 560.404 129.957 560.422 126.441C560.404 122.961 562.197 120.746 564.658 120.746ZM564.658 122.768C563.41 122.768 562.584 124.068 562.584 126.441C562.584 128.832 563.41 130.115 564.658 130.115C565.871 130.115 566.697 128.832 566.697 126.441C566.697 124.068 565.871 122.768 564.658 122.768ZM589.303 119.621V135.617H587.141V127.619H585.646V134.844H583.537V119.885H585.646V125.809H587.141V119.621H589.303ZM578.404 121.396V129.746C579.688 129.72 581.094 129.605 582.641 129.307L582.869 131.24C580.725 131.609 578.896 131.715 577.244 131.715H576.154V121.396H578.404ZM596.193 129.148C596.193 132.453 595.174 135.213 593.486 137.586H591.008C592.221 135.828 593.486 132.312 593.486 129.148C593.486 126.002 592.221 122.486 591.008 120.729H593.486C595.174 123.102 596.193 125.844 596.193 129.148Z" fill="#6A6A6A"/>
<path d="M749.747 91.2891C752.19 91.2715 753.966 92.6602 753.966 94.6816C753.966 96.6855 752.19 98.0918 749.747 98.0742C747.304 98.0918 745.528 96.6855 745.546 94.6816C745.528 92.6602 747.304 91.2715 749.747 91.2891ZM749.747 93.082C748.552 93.082 747.708 93.6621 747.708 94.6816C747.708 95.6836 748.552 96.2637 749.747 96.2461C750.978 96.2637 751.839 95.6836 751.839 94.6816C751.839 93.6621 750.978 93.082 749.747 93.082ZM758.009 90.6387V106.617H755.794V90.6387H758.009ZM744.562 99.0586C747.392 99.0586 751.417 98.9883 754.827 98.4785L754.968 100.131C753.649 100.395 752.296 100.562 750.96 100.658V106.143H748.728V100.799C747.321 100.86 745.994 100.869 744.843 100.887L744.562 99.0586ZM768.239 91.6758V93.4512H762.948V94.7871H767.905V96.5098H762.948V97.8984C765.55 97.8809 767.22 97.793 769.101 97.459L769.347 99.2168C767.185 99.6035 765.251 99.6738 762.017 99.6738H760.681V91.6758H768.239ZM772.774 90.6211V94.5234H774.937V96.3867H772.774V100.289H770.524V90.6211H772.774ZM772.774 100.957V106.617H770.524V102.732H761.999V100.957H772.774ZM781.528 94.2422C781.511 97.1074 782.741 100.008 785.308 101.238L783.954 103.031C782.24 102.188 781.089 100.605 780.421 98.6719C779.727 100.746 778.487 102.442 776.677 103.33L775.288 101.52C777.995 100.271 779.278 97.2129 779.278 94.2422V91.8516H781.528V94.2422ZM788.261 90.6211V96.791H790.616V98.6895H788.261V106.617H786.011V90.6211H788.261ZM795.661 91.3066C797.709 91.2891 799.335 92.458 799.774 94.1719H802.446V90.6211H804.679V99.2168H802.446V95.9648H799.792C799.37 97.7227 797.727 98.918 795.661 98.918C793.2 98.918 791.39 97.3184 791.407 95.0859C791.39 92.8887 793.2 91.2891 795.661 91.3066ZM795.661 93.1699C794.413 93.1523 793.517 93.8906 793.534 95.0859C793.517 96.2812 794.413 97.0371 795.661 97.0371C796.874 97.0371 797.753 96.2812 797.753 95.0859C797.753 93.8906 796.874 93.1523 795.661 93.1699ZM796.224 99.9199V101.467H802.446V99.9199H804.679V106.441H794.009V99.9199H796.224ZM796.224 104.631H802.446V103.189H796.224V104.631ZM812.659 94.9805C812.642 97.4238 813.942 100.236 816.579 101.449L815.331 103.207C813.547 102.39 812.272 100.755 811.569 98.8301C810.849 100.948 809.539 102.741 807.685 103.611L806.384 101.836C809.056 100.588 810.392 97.6172 810.409 94.9805V93.9961H807.017V92.168H815.876V93.9961H812.659V94.9805ZM819.374 90.6211V96.7207H821.729V98.6016H819.374V106.617H817.124V90.6211H819.374ZM836.179 90.6211V106.617H834.034V90.6211H836.179ZM832.839 90.8496V105.879H830.729V98.3203H829.446C829.235 101.467 827.899 103.365 825.931 103.365C823.821 103.365 822.45 101.15 822.45 97.5469C822.45 93.9609 823.821 91.7637 825.931 91.7637C827.855 91.7637 829.174 93.5566 829.429 96.5449H830.729V90.8496H832.839ZM825.931 93.873C825.034 93.873 824.507 95.1035 824.524 97.5469C824.507 100.008 825.034 101.221 825.931 101.203C826.845 101.221 827.39 100.008 827.39 97.5469C827.39 95.1035 826.845 93.873 825.931 93.873ZM851.735 90.6211V106.617H849.626V90.6211H851.735ZM848.325 90.9727V105.914H846.233V98.5664H843.614C842.7 100.395 841.215 101.977 838.938 103.295L837.673 101.713C840.898 99.7969 842.322 97.4678 842.63 94.3301H838.552V92.5195H844.862C844.854 94.04 844.695 95.4727 844.317 96.791H846.233V90.9727H848.325ZM791.803 125.281V127.25H798.008V129.043H783.418V127.25H789.588V125.281H791.803ZM791.838 120.412C791.838 122.275 793.631 124.051 797.234 124.49L796.373 126.23C793.675 125.826 791.688 124.692 790.678 123.084C789.649 124.692 787.663 125.835 784.965 126.23L784.174 124.49C787.707 124.051 789.553 122.223 789.553 120.412V119.885H791.838V120.412ZM790.695 129.922C794.176 129.922 796.25 130.959 796.268 132.787C796.25 134.615 794.176 135.617 790.695 135.617C787.18 135.617 785.088 134.615 785.088 132.787C785.088 130.959 787.18 129.922 790.695 129.922ZM790.695 131.627C788.463 131.627 787.355 131.996 787.373 132.787C787.355 133.578 788.463 133.947 790.695 133.947C792.875 133.947 794 133.578 794.018 132.787C794 131.996 792.875 131.627 790.695 131.627ZM813.6 128.85V130.607H807.342V135.617H805.127V130.607H798.957V128.85H813.6ZM802.895 120.236V122.082H809.609V120.236H811.859V127.303H800.68V120.236H802.895ZM802.895 125.51H809.609V123.84H802.895V125.51Z" fill="#565656"/>
<path d="M984.234 90.6211V106.617H982.002V90.6211H984.234ZM970.857 102.1C972.079 102.091 973.477 102.091 974.936 102.047V100.693C973.178 100.386 972.035 99.2959 972.053 97.793C972.035 96 973.67 94.7871 976.025 94.7871C978.398 94.7871 980.051 96 980.051 97.793C980.051 99.2871 978.908 100.377 977.15 100.693V101.977C978.486 101.915 979.84 101.81 981.123 101.643L981.281 103.295C977.783 103.893 974.004 103.928 971.156 103.928L970.857 102.1ZM980.895 92.3965V94.1543H971.174V92.3965H974.936V90.6914H977.168V92.3965H980.895ZM976.025 96.4922C974.936 96.4922 974.162 96.9668 974.18 97.793C974.162 98.6367 974.936 99.0938 976.025 99.0938C977.15 99.0938 977.906 98.6367 977.906 97.793C977.906 96.9668 977.15 96.4922 976.025 96.4922ZM992.338 93.3633C992.338 95.4375 993.445 97.4941 995.994 98.3379L994.781 100.096C993.085 99.4717 991.916 98.2939 991.248 96.8086C990.554 98.4785 989.306 99.7969 987.451 100.465L986.238 98.707C988.91 97.8281 990.07 95.6309 990.07 93.3457V91.6055H992.338V93.3633ZM999.826 90.6387V102.451H997.594V95.8418H994.588V94.0312H997.594V90.6387H999.826ZM1000.16 104.543V106.336H989.174V101.203H991.441V104.543H1000.16ZM1013.77 93.0645V94.8398H1006.03V93.0645H1008.81V91.0605H1011.02V93.0645H1013.77ZM1009.93 95.5605C1011.97 95.5605 1013.43 97.1426 1013.45 99.3574C1013.43 101.59 1011.97 103.172 1009.93 103.172C1007.89 103.172 1006.4 101.59 1006.4 99.3574C1006.4 97.1426 1007.89 95.5605 1009.93 95.5605ZM1009.93 97.4238C1009 97.4238 1008.37 98.1445 1008.37 99.3574C1008.37 100.57 1009 101.273 1009.93 101.273C1010.83 101.273 1011.46 100.57 1011.48 99.3574C1011.46 98.1445 1010.83 97.4238 1009.93 97.4238ZM1019.88 90.6211V106.617H1017.76V98.918H1016.46V105.932H1014.36V90.9375H1016.46V97.125H1017.76V90.6211H1019.88ZM1027.81 94.9805C1027.81 97.5645 1029.13 100.324 1031.82 101.449L1030.61 103.207C1028.72 102.407 1027.42 100.816 1026.7 98.8652C1025.97 100.983 1024.65 102.741 1022.77 103.611L1021.48 101.836C1024.14 100.658 1025.51 97.6875 1025.51 94.9805V93.9961H1022.12V92.168H1031.15V93.9961H1027.81V94.9805ZM1035 90.6211V106.617H1032.73V90.6211H1035Z" fill="#464646"/>
<path fill-rule="evenodd" clip-rule="evenodd" d="M26 0C11.6406 0 0 11.6406 0 26C0 40.3594 11.6406 52 26 52H207.728V26V0H26ZM207.728 52L233.221 26L207.728 0V52Z" fill="#A6A6A6"/>
<circle cx="26" cy="26" r="20" fill="white"/>
<path d="M221 52H427.159L456 26L427.159 0H221L249.841 26L221 52Z" fill="#858585"/>
<path d="M444 52H648.405L677 26L648.405 0H444L472.595 26L444 52Z" fill="#6A6A6A"/>
<path d="M665 52H871.159L900 26L871.159 0H665L693.841 26L665 52Z" fill="#565656"/>
<path d="M888 52H1091.53L1120 26L1091.53 0H888L916.473 26L888 52Z" fill="#464646"/>
<circle cx="276" cy="26" r="20" fill="white"/>
<circle cx="499" cy="26" r="20" fill="white"/>
<circle cx="720" cy="26" r="20" fill="white"/>
<circle cx="943" cy="26" r="20" fill="white"/>
<path d="M20.9414 32.1758C17.7598 32.1758 15.8262 29.8027 15.8262 25.6367C15.8262 21.4707 17.7598 19.0977 20.9414 19.0977C24.123 19.0977 26.0566 21.4883 26.0566 25.6367C26.0566 29.8203 24.123 32.1758 20.9414 32.1758ZM20.9414 29.9961C22.418 29.9961 23.3672 28.5723 23.3496 25.6367C23.3496 22.7363 22.418 21.2598 20.9414 21.2598C19.4648 21.2598 18.5332 22.7363 18.5332 25.6367C18.5156 28.5723 19.4648 29.9961 20.9414 29.9961ZM33.3691 19.2734V32H30.7148V21.7871H30.6445L27.7266 23.6152V21.2773L30.873 19.2734H33.3691Z" fill="#A6A6A6"/>
<path d="M270.941 32.1758C267.76 32.1758 265.826 29.8027 265.826 25.6367C265.826 21.4707 267.76 19.0977 270.941 19.0977C274.123 19.0977 276.057 21.4883 276.057 25.6367C276.057 29.8203 274.123 32.1758 270.941 32.1758ZM270.941 29.9961C272.418 29.9961 273.367 28.5723 273.35 25.6367C273.35 22.7363 272.418 21.2598 270.941 21.2598C269.465 21.2598 268.533 22.7363 268.533 25.6367C268.516 28.5723 269.465 29.9961 270.941 29.9961ZM277.885 32L277.867 30.084L282.438 25.8828C283.633 24.7402 284.266 24.0371 284.266 23.0352C284.266 21.9102 283.404 21.207 282.244 21.207C281.049 21.207 280.275 21.9629 280.275 23.1758H277.762C277.744 20.6797 279.59 19.0977 282.279 19.0977C285.004 19.0977 286.814 20.6445 286.814 22.8594C286.814 24.3008 286.111 25.4961 283.492 27.8691L281.559 29.75V29.8203H286.99V32H277.885Z" fill="#858585"/>
<path d="M492.941 32.1758C489.76 32.1758 487.826 29.8027 487.826 25.6367C487.826 21.4707 489.76 19.0977 492.941 19.0977C496.123 19.0977 498.057 21.4883 498.057 25.6367C498.057 29.8203 496.123 32.1758 492.941 32.1758ZM492.941 29.9961C494.418 29.9961 495.367 28.5723 495.35 25.6367C495.35 22.7363 494.418 21.2598 492.941 21.2598C491.465 21.2598 490.533 22.7363 490.533 25.6367C490.516 28.5723 491.465 29.9961 492.941 29.9961ZM504.596 32.1758C501.801 32.1758 499.797 30.6289 499.744 28.4141H502.416C502.469 29.3633 503.383 29.9961 504.613 29.9961C505.879 29.9961 506.793 29.2754 506.775 28.2559C506.793 27.2188 505.861 26.4805 504.367 26.4805H503.189V24.5293H504.367C505.615 24.5293 506.494 23.8438 506.494 22.8418C506.494 21.875 505.756 21.207 504.631 21.207C503.506 21.207 502.574 21.8398 502.539 22.8066H500.008C500.043 20.6094 502.029 19.0977 504.631 19.0977C507.285 19.0977 509.061 20.6621 509.043 22.6836C509.061 24.1074 508.059 25.127 506.635 25.373V25.4785C508.498 25.707 509.535 26.8496 509.518 28.4316C509.535 30.6113 507.461 32.1758 504.596 32.1758Z" fill="#6A6A6A"/>
<path d="M714.941 32.1758C711.76 32.1758 709.826 29.8027 709.826 25.6367C709.826 21.4707 711.76 19.0977 714.941 19.0977C718.123 19.0977 720.057 21.4883 720.057 25.6367C720.057 29.8203 718.123 32.1758 714.941 32.1758ZM714.941 29.9961C716.418 29.9961 717.367 28.5723 717.35 25.6367C717.35 22.7363 716.418 21.2598 714.941 21.2598C713.465 21.2598 712.533 22.7363 712.533 25.6367C712.516 28.5723 713.465 29.9961 714.941 29.9961ZM721.674 29.75V27.6582L727.053 19.2734H730.375V27.623H731.992V29.75H730.375V32H727.861V29.75H721.674ZM724.346 27.623H727.896V22.1738H727.773L724.346 27.5176V27.623Z" fill="#565656"/>
<path d="M936.941 32.1758C933.76 32.1758 931.826 29.8027 931.826 25.6367C931.826 21.4707 933.76 19.0977 936.941 19.0977C940.123 19.0977 942.057 21.4883 942.057 25.6367C942.057 29.8203 940.123 32.1758 936.941 32.1758ZM936.941 29.9961C938.418 29.9961 939.367 28.5723 939.35 25.6367C939.35 22.7363 938.418 21.2598 936.941 21.2598C935.465 21.2598 934.533 22.7363 934.533 25.6367C934.516 28.5723 935.465 29.9961 936.941 29.9961ZM948.561 32.1758C945.906 32.1758 943.973 30.6113 943.92 28.4141H946.486C946.539 29.416 947.453 30.084 948.561 30.084C949.879 30.084 950.811 29.1523 950.811 27.834C950.811 26.4805 949.861 25.5488 948.525 25.5312C947.576 25.5312 946.908 25.8828 946.521 26.6035H944.131L944.816 19.2734H952.656V21.4355H946.996L946.645 24.6523H946.75C947.225 24.0195 948.174 23.5801 949.299 23.5801C951.637 23.5801 953.377 25.3203 953.377 27.7637C953.377 30.3301 951.426 32.1758 948.561 32.1758Z" fill="#464646"/>
</svg>
