<svg width="343" height="386" viewBox="0 0 343 386" fill="none" xmlns="http://www.w3.org/2000/svg">
<path d="M73.8281 80.8164V93.2578H72.0918V80.8164H73.8281ZM63.4238 89.7441C64.374 89.7373 65.4609 89.7373 66.5957 89.7031V88.6504C65.2285 88.4111 64.3398 87.5635 64.3535 86.3945C64.3398 85 65.6113 84.0566 67.4434 84.0566C69.2891 84.0566 70.5742 85 70.5742 86.3945C70.5742 87.5566 69.6855 88.4043 68.3184 88.6504V89.6484C69.3574 89.6006 70.4102 89.5186 71.4082 89.3887L71.5312 90.6738C68.8105 91.1387 65.8711 91.166 63.6562 91.166L63.4238 89.7441ZM71.2305 82.1973V83.5645H63.6699V82.1973H66.5957V80.8711H68.332V82.1973H71.2305ZM67.4434 85.3828C66.5957 85.3828 65.9941 85.752 66.0078 86.3945C65.9941 87.0508 66.5957 87.4062 67.4434 87.4062C68.3184 87.4062 68.9062 87.0508 68.9062 86.3945C68.9062 85.752 68.3184 85.3828 67.4434 85.3828ZM80.1309 82.9492C80.1309 84.5625 80.9922 86.1621 82.9746 86.8184L82.0312 88.1855C80.7119 87.7002 79.8027 86.7842 79.2832 85.6289C78.7432 86.9277 77.7725 87.9531 76.3301 88.4727L75.3867 87.1055C77.4648 86.4219 78.3672 84.7129 78.3672 82.9355V81.582H80.1309V82.9492ZM85.9551 80.8301V90.0176H84.2188V84.877H81.8809V83.4688H84.2188V80.8301H85.9551ZM86.2148 91.6445V93.0391H77.6699V89.0469H79.4336V91.6445H86.2148ZM97.9863 80.8301V89.9082H96.2363V80.8301H97.9863ZM98.3145 91.6445V93.0391H89.6465V89.0332H91.4102V91.6445H98.3145ZM92.3398 82.7168C92.3262 84.3574 93.2012 85.9707 95.252 86.627L94.3633 87.9941C92.9619 87.5293 91.9912 86.5996 91.4375 85.4102C90.8838 86.6885 89.8857 87.7139 88.4297 88.2129L87.5273 86.832C89.6191 86.1348 90.5215 84.3984 90.5215 82.7168V81.5137H92.3398V82.7168ZM106.764 82.1152V83.4824H104.248C104.262 84.7607 105.205 86.0596 107.201 86.5723L106.395 87.9121C104.979 87.5566 103.981 86.7705 103.414 85.752C102.874 86.9141 101.876 87.8232 100.406 88.2402L99.5859 86.8867C101.582 86.3193 102.498 84.8975 102.512 83.4824H100.01V82.1152H102.512V80.7617H104.275V82.1152H106.764ZM110.154 80.8164V88.3359H108.418V85.5469H106.395V84.1523H108.418V80.8164H110.154ZM105.902 88.541C108.555 88.5547 110.182 89.3887 110.195 90.8789C110.182 92.3828 108.555 93.2578 105.902 93.2578C103.264 93.2578 101.623 92.3828 101.623 90.8789C101.623 89.3887 103.264 88.5547 105.902 88.541ZM105.902 89.8809C104.248 89.8809 103.359 90.209 103.359 90.8789C103.359 91.5625 104.248 91.9316 105.902 91.9316C107.584 91.9316 108.459 91.5625 108.459 90.8789C108.459 90.209 107.584 89.8809 105.902 89.8809Z" fill="#120D4D"/>
<path d="M227.262 80.8301V89.9082H225.512V80.8301H227.262ZM227.59 91.6445V93.0391H218.922V89.0332H220.686V91.6445H227.59ZM221.615 82.7168C221.602 84.3574 222.477 85.9707 224.527 86.627L223.639 87.9941C222.237 87.5293 221.267 86.5996 220.713 85.4102C220.159 86.6885 219.161 87.7139 217.705 88.2129L216.803 86.832C218.895 86.1348 219.797 84.3984 219.797 82.7168V81.5137H221.615V82.7168ZM236.039 82.1152V83.4824H233.523C233.537 84.7607 234.48 86.0596 236.477 86.5723L235.67 87.9121C234.255 87.5566 233.257 86.7705 232.689 85.752C232.149 86.9141 231.151 87.8232 229.682 88.2402L228.861 86.8867C230.857 86.3193 231.773 84.8975 231.787 83.4824H229.285V82.1152H231.787V80.7617H233.551V82.1152H236.039ZM239.43 80.8164V88.3359H237.693V85.5469H235.67V84.1523H237.693V80.8164H239.43ZM235.178 88.541C237.83 88.5547 239.457 89.3887 239.471 90.8789C239.457 92.3828 237.83 93.2578 235.178 93.2578C232.539 93.2578 230.898 92.3828 230.898 90.8789C230.898 89.3887 232.539 88.5547 235.178 88.541ZM235.178 89.8809C233.523 89.8809 232.635 90.209 232.635 90.8789C232.635 91.5625 233.523 91.9316 235.178 91.9316C236.859 91.9316 237.734 91.5625 237.734 90.8789C237.734 90.209 236.859 89.8809 235.178 89.8809ZM245.746 83.6328C245.746 85.9707 246.689 88.2402 248.768 89.1426L247.701 90.5371C246.32 89.8604 245.397 88.623 244.885 87.0918C244.338 88.7188 243.381 90.0518 241.959 90.7559L240.865 89.334C242.998 88.377 243.969 85.9707 243.982 83.6328V81.7734H245.746V83.6328ZM251.543 80.8164V93.2852H249.82V86.1348H247.373V84.7266H249.82V80.8164H251.543ZM267.689 86.1211V87.3926H262.904V88.1719H266.336V91.207H259.404V91.8906H266.664V93.1758H257.695V90.0312H264.613V89.416H257.682V88.1719H261.168V87.3926H256.396V86.1211H267.689ZM262.891 80.8027V81.7871H266.623V83.0723H263.109C263.451 83.7969 264.723 84.3916 267.238 84.4941L266.732 85.7793C264.422 85.6699 262.822 85.082 262.029 84.1387C261.243 85.082 259.637 85.6699 257.312 85.7793L256.834 84.4941C259.329 84.3916 260.594 83.7969 260.949 83.0723H257.463V81.7871H261.168V80.8027H262.891ZM274.443 81.541V85.4238H270.684V86.75C272.536 86.75 273.63 86.6885 274.895 86.4492L275.059 87.8438C273.609 88.1035 272.297 88.1445 269.891 88.1445H268.961V84.125H272.693V82.9082H268.934V81.541H274.443ZM278.955 80.8301V88.4863H277.219V86.5723H275.154V85.1914H277.219V83.9336H275.154V82.5527H277.219V80.8301H278.955ZM278.955 89.0469V93.2578H277.219V90.4414H270.383V89.0469H278.955ZM294.555 82.1016V83.5098H284.342V82.1016H288.594V80.8027H290.33V82.1016H294.555ZM295.184 88.8555V90.2773H290.33V93.2715H288.594V90.2773H283.795V88.8555H295.184ZM289.469 83.9883C292.135 83.9883 293.748 84.7402 293.762 86.1211C293.748 87.502 292.135 88.2539 289.469 88.2539C286.775 88.2539 285.162 87.502 285.176 86.1211C285.162 84.7402 286.775 83.9883 289.469 83.9883ZM289.469 85.2734C287.801 85.2871 286.98 85.5469 286.98 86.1211C286.98 86.6816 287.801 86.9551 289.469 86.9551C291.109 86.9551 291.943 86.6816 291.943 86.1211C291.943 85.5469 291.109 85.2871 289.469 85.2734ZM234.966 102.816V115.258H233.202V102.816H234.966ZM231.233 104.115C231.233 107.889 229.907 111.02 225.464 113.125L224.548 111.73C227.761 110.213 229.176 108.244 229.456 105.482H225.218V104.115H231.233ZM243.579 103.719V104.498C243.579 105.359 243.579 106.604 243.292 108.148L241.583 107.984C241.802 106.788 241.856 105.886 241.87 105.141H237.181V103.719H243.579ZM240.489 106.59V108.969C241.727 108.921 242.998 108.825 244.167 108.654L244.263 109.912C241.679 110.391 238.753 110.432 236.593 110.445L236.442 109.051C237.14 109.051 237.926 109.051 238.753 109.023V106.59H240.489ZM246.628 102.816V106.604H248.132V108.066H246.628V112.127H244.837V102.816H246.628ZM247.011 113.645V115.039H238.274V111.293H240.024V113.645H247.011ZM255.774 103.65V105.045H253.3C253.313 106.494 254.182 107.896 256.171 108.477L255.337 109.844C253.963 109.427 253.013 108.593 252.466 107.52C251.912 108.777 250.9 109.775 249.403 110.268L248.515 108.887C250.579 108.237 251.509 106.624 251.536 105.045H248.993V103.65H255.774ZM258.577 102.816V105.701H260.259V107.123H258.577V110.199H256.827V102.816H258.577ZM254.503 110.445C257.087 110.432 258.7 111.32 258.7 112.838C258.7 114.355 257.087 115.258 254.503 115.258C251.864 115.258 250.237 114.355 250.237 112.838C250.237 111.32 251.864 110.432 254.503 110.445ZM254.503 111.799C252.862 111.799 251.974 112.141 251.987 112.838C251.974 113.549 252.862 113.904 254.503 113.904C256.116 113.904 256.978 113.549 256.978 112.838C256.978 112.141 256.116 111.799 254.503 111.799ZM274.45 102.816V110.309H272.7V102.816H274.45ZM274.45 110.855V115.258H272.7V112.25H265.892V110.855H274.45ZM271.388 103.541V104.936H268.886C268.899 106.392 269.815 107.923 271.853 108.531L270.964 109.885C269.569 109.454 268.585 108.559 268.024 107.424C267.457 108.654 266.445 109.632 264.989 110.117L264.087 108.764C266.138 108.101 267.095 106.487 267.108 104.936H264.552V103.541H271.388ZM286.55 102.83V111.771H284.8V102.83H286.55ZM286.878 113.645V115.039H278.21V110.869H279.974V113.645H286.878ZM279.728 103.623C281.642 103.623 283.132 104.936 283.132 106.754C283.132 108.613 281.642 109.912 279.728 109.912C277.813 109.912 276.323 108.613 276.323 106.754C276.323 104.936 277.813 103.623 279.728 103.623ZM279.728 105.141C278.757 105.127 278.019 105.742 278.032 106.754C278.019 107.793 278.757 108.395 279.728 108.395C280.671 108.395 281.409 107.793 281.409 106.754C281.409 105.742 280.671 105.127 279.728 105.141Z" fill="#312B82"/>
<path fill-rule="evenodd" clip-rule="evenodd" d="M26 0C11.6406 0 0 11.6406 0 26C0 40.3594 11.6406 52 26 52H156.193H156.194V51.9983L175.362 26L156.194 0.00173847V0H156.193H26Z" fill="#120D4D"/>
<circle cx="26" cy="26" r="20" fill="white"/>
<path d="M166 52H321.277L343 26L321.277 0H166L187.723 26L166 52Z" fill="#312B82"/>
<circle cx="214" cy="26" r="20" fill="white"/>
<path d="M20.9414 32.1758C17.7598 32.1758 15.8262 29.8027 15.8262 25.6367C15.8262 21.4707 17.7598 19.0977 20.9414 19.0977C24.123 19.0977 26.0566 21.4883 26.0566 25.6367C26.0566 29.8203 24.123 32.1758 20.9414 32.1758ZM20.9414 29.9961C22.418 29.9961 23.3672 28.5723 23.3496 25.6367C23.3496 22.7363 22.418 21.2598 20.9414 21.2598C19.4648 21.2598 18.5332 22.7363 18.5332 25.6367C18.5156 28.5723 19.4648 29.9961 20.9414 29.9961ZM33.3691 19.2734V32H30.7148V21.7871H30.6445L27.7266 23.6152V21.2773L30.873 19.2734H33.3691Z" fill="#120D4D"/>
<path d="M208.941 32.1758C205.76 32.1758 203.826 29.8027 203.826 25.6367C203.826 21.4707 205.76 19.0977 208.941 19.0977C212.123 19.0977 214.057 21.4883 214.057 25.6367C214.057 29.8203 212.123 32.1758 208.941 32.1758ZM208.941 29.9961C210.418 29.9961 211.367 28.5723 211.35 25.6367C211.35 22.7363 210.418 21.2598 208.941 21.2598C207.465 21.2598 206.533 22.7363 206.533 25.6367C206.516 28.5723 207.465 29.9961 208.941 29.9961ZM215.885 32L215.867 30.084L220.438 25.8828C221.633 24.7402 222.266 24.0371 222.266 23.0352C222.266 21.9102 221.404 21.207 220.244 21.207C219.049 21.207 218.275 21.9629 218.275 23.1758H215.762C215.744 20.6797 217.59 19.0977 220.279 19.0977C223.004 19.0977 224.814 20.6445 224.814 22.8594C224.814 24.3008 224.111 25.4961 221.492 27.8691L219.559 29.75V29.8203H224.99V32H215.885Z" fill="#312B82"/>
<path d="M68.25 227.633C68.2363 229.861 69.1934 232.117 71.1895 233.074L70.1367 234.469C68.8037 233.812 67.9082 232.582 67.3887 231.078C66.8486 232.691 65.8848 234.011 64.4766 234.701L63.3965 233.293C65.502 232.322 66.5 229.943 66.5 227.633V225.773H68.25V227.633ZM73.4863 224.816V229.615H75.3184V231.092H73.4863V237.258H71.7363V224.816H73.4863ZM86.1875 224.816V237.285H84.4238V224.816H86.1875ZM79.4336 225.691C81.3066 225.691 82.7012 227.414 82.7012 230.121C82.7012 232.855 81.3066 234.564 79.4336 234.564C77.5195 234.564 76.125 232.855 76.1387 230.121C76.125 227.414 77.5195 225.691 79.4336 225.691ZM79.4336 227.264C78.4629 227.264 77.8203 228.275 77.8203 230.121C77.8203 231.98 78.4629 232.979 79.4336 232.979C80.377 232.979 81.0195 231.98 81.0195 230.121C81.0195 228.275 80.377 227.264 79.4336 227.264ZM98.0137 231.242V232.623H89.209V225.732H97.918V227.141H90.9863V228.453H97.6309V229.82H90.9863V231.242H98.0137ZM99.2578 234.387V235.809H87.8691V234.387H99.2578ZM110.756 224.816V237.258H109.088V224.816H110.756ZM108.158 224.994V236.684H106.518V230.805H105.52C105.355 233.252 104.316 234.729 102.785 234.729C101.145 234.729 100.078 233.006 100.078 230.203C100.078 227.414 101.145 225.705 102.785 225.705C104.282 225.705 105.308 227.1 105.506 229.424H106.518V224.994H108.158ZM102.785 227.346C102.088 227.346 101.678 228.303 101.691 230.203C101.678 232.117 102.088 233.061 102.785 233.047C103.496 233.061 103.92 232.117 103.92 230.203C103.92 228.303 103.496 227.346 102.785 227.346ZM73.1924 247.35C74.7852 247.336 76.0498 248.245 76.3916 249.578H78.4697V246.816H80.2061V253.502H78.4697V250.973H76.4053C76.0771 252.34 74.7988 253.27 73.1924 253.27C71.2783 253.27 69.8701 252.025 69.8838 250.289C69.8701 248.58 71.2783 247.336 73.1924 247.35ZM73.1924 248.799C72.2217 248.785 71.5244 249.359 71.5381 250.289C71.5244 251.219 72.2217 251.807 73.1924 251.807C74.1357 251.807 74.8193 251.219 74.8193 250.289C74.8193 249.359 74.1357 248.785 73.1924 248.799ZM73.6299 254.049V255.252H78.4697V254.049H80.2061V259.121H71.9072V254.049H73.6299ZM73.6299 257.713H78.4697V256.592H73.6299V257.713ZM93.208 256.441V257.877H81.8193V256.441H86.6182V254.568H83.1318V250.385H90.1729V249.018H83.1182V247.623H91.8955V251.752H84.8818V253.146H92.1826V254.568H88.3545V256.441H93.208ZM104.063 252.572V253.967H95.2588V247.855H103.968V249.264H96.9814V252.572H104.063ZM105.308 256.305V257.74H93.9189V256.305H105.308Z" fill="#3D49B6"/>
<path d="M216.581 225.336C218.481 225.322 219.862 226.402 219.862 227.975C219.862 229.533 218.481 230.627 216.581 230.613C214.681 230.627 213.3 229.533 213.313 227.975C213.3 226.402 214.681 225.322 216.581 225.336ZM216.581 226.73C215.651 226.73 214.995 227.182 214.995 227.975C214.995 228.754 215.651 229.205 216.581 229.191C217.538 229.205 218.208 228.754 218.208 227.975C218.208 227.182 217.538 226.73 216.581 226.73ZM223.007 224.83V237.258H221.284V224.83H223.007ZM212.548 231.379C214.749 231.379 217.88 231.324 220.532 230.928L220.642 232.213C219.616 232.418 218.563 232.548 217.524 232.623V236.889H215.788V232.732C214.694 232.78 213.662 232.787 212.767 232.801L212.548 231.379ZM230.964 225.637V227.018H226.849V228.057H230.704V229.396H226.849V230.477C228.872 230.463 230.171 230.395 231.634 230.135L231.825 231.502C230.144 231.803 228.64 231.857 226.124 231.857H225.085V225.637H230.964ZM234.491 224.816V227.852H236.173V229.301H234.491V232.336H232.741V224.816H234.491ZM234.491 232.855V237.258H232.741V234.236H226.11V232.855H234.491ZM241.3 227.633C241.286 229.861 242.243 232.117 244.239 233.074L243.187 234.469C241.854 233.812 240.958 232.582 240.438 231.078C239.898 232.691 238.935 234.011 237.526 234.701L236.446 233.293C238.552 232.322 239.55 229.943 239.55 227.633V225.773H241.3V227.633ZM246.536 224.816V229.615H248.368V231.092H246.536V237.258H244.786V224.816H246.536ZM252.292 225.35C253.885 225.336 255.149 226.245 255.491 227.578H257.569V224.816H259.306V231.502H257.569V228.973H255.505C255.177 230.34 253.898 231.27 252.292 231.27C250.378 231.27 248.97 230.025 248.983 228.289C248.97 226.58 250.378 225.336 252.292 225.35ZM252.292 226.799C251.321 226.785 250.624 227.359 250.638 228.289C250.624 229.219 251.321 229.807 252.292 229.807C253.235 229.807 253.919 229.219 253.919 228.289C253.919 227.359 253.235 226.785 252.292 226.799ZM252.729 232.049V233.252H257.569V232.049H259.306V237.121H251.007V232.049H252.729ZM252.729 235.713H257.569V234.592H252.729V235.713ZM265.513 228.207C265.499 230.107 266.511 232.295 268.562 233.238L267.591 234.605C266.203 233.97 265.212 232.698 264.665 231.201C264.104 232.849 263.086 234.243 261.644 234.92L260.632 233.539C262.71 232.568 263.749 230.258 263.763 228.207V227.441H261.124V226.02H268.015V227.441H265.513V228.207ZM270.735 224.816V229.561H272.567V231.023H270.735V237.258H268.985V224.816H270.735ZM283.806 224.816V237.258H282.138V224.816H283.806ZM281.208 224.994V236.684H279.567V230.805H278.569C278.405 233.252 277.366 234.729 275.835 234.729C274.194 234.729 273.128 233.006 273.128 230.203C273.128 227.414 274.194 225.705 275.835 225.705C277.332 225.705 278.357 227.1 278.556 229.424H279.567V224.994H281.208ZM275.835 227.346C275.138 227.346 274.728 228.303 274.741 230.203C274.728 232.117 275.138 233.061 275.835 233.047C276.546 233.061 276.97 232.117 276.97 230.203C276.97 228.303 276.546 227.346 275.835 227.346ZM295.905 224.816V237.258H294.265V224.816H295.905ZM293.253 225.09V236.711H291.626V230.996H289.589C288.878 232.418 287.723 233.648 285.952 234.674L284.968 233.443C287.477 231.953 288.584 230.142 288.823 227.701H285.651V226.293H290.56C290.553 227.476 290.43 228.59 290.136 229.615H291.626V225.09H293.253ZM249.291 251.219V252.75H254.117V254.145H242.77V252.75H247.568V251.219H249.291ZM249.318 247.432C249.318 248.881 250.713 250.262 253.516 250.604L252.846 251.957C250.747 251.643 249.202 250.761 248.416 249.51C247.616 250.761 246.071 251.649 243.973 251.957L243.357 250.604C246.105 250.262 247.541 248.84 247.541 247.432V247.021H249.318V247.432ZM248.43 254.828C251.137 254.828 252.75 255.635 252.764 257.057C252.75 258.479 251.137 259.258 248.43 259.258C245.695 259.258 244.068 258.479 244.068 257.057C244.068 255.635 245.695 254.828 248.43 254.828ZM248.43 256.154C246.693 256.154 245.832 256.441 245.846 257.057C245.832 257.672 246.693 257.959 248.43 257.959C250.125 257.959 251 257.672 251.014 257.057C251 256.441 250.125 256.154 248.43 256.154ZM266.244 253.994V255.361H261.377V259.258H259.654V255.361H254.855V253.994H266.244ZM257.918 247.295V248.73H263.141V247.295H264.891V252.791H256.195V247.295H257.918ZM257.918 251.396H263.141V250.098H257.918V251.396Z" fill="#5166D4"/>
<path d="M0 196H153.523L175 170L153.523 144H0L21.4773 170L0 196Z" fill="#3D49B6"/>
<path d="M166 196H321.277L343 170L321.277 144H166L187.723 170L166 196Z" fill="#5166D5"/>
<circle cx="48" cy="170" r="20" fill="white"/>
<circle cx="214" cy="170" r="20" fill="white"/>
<path d="M41.9414 176.176C38.7598 176.176 36.8262 173.803 36.8262 169.637C36.8262 165.471 38.7598 163.098 41.9414 163.098C45.123 163.098 47.0566 165.488 47.0566 169.637C47.0566 173.82 45.123 176.176 41.9414 176.176ZM41.9414 173.996C43.418 173.996 44.3672 172.572 44.3496 169.637C44.3496 166.736 43.418 165.26 41.9414 165.26C40.4648 165.26 39.5332 166.736 39.5332 169.637C39.5156 172.572 40.4648 173.996 41.9414 173.996ZM53.5957 176.176C50.8008 176.176 48.7969 174.629 48.7441 172.414H51.416C51.4688 173.363 52.3828 173.996 53.6133 173.996C54.8789 173.996 55.793 173.275 55.7754 172.256C55.793 171.219 54.8613 170.48 53.3672 170.48H52.1895V168.529H53.3672C54.6152 168.529 55.4941 167.844 55.4941 166.842C55.4941 165.875 54.7559 165.207 53.6309 165.207C52.5059 165.207 51.5742 165.84 51.5391 166.807H49.0078C49.043 164.609 51.0293 163.098 53.6309 163.098C56.2852 163.098 58.0605 164.662 58.043 166.684C58.0605 168.107 57.0586 169.127 55.6348 169.373V169.479C57.498 169.707 58.5352 170.85 58.5176 172.432C58.5352 174.611 56.4609 176.176 53.5957 176.176Z" fill="#3D49B6"/>
<path d="M208.941 176.176C205.76 176.176 203.826 173.803 203.826 169.637C203.826 165.471 205.76 163.098 208.941 163.098C212.123 163.098 214.057 165.488 214.057 169.637C214.057 173.82 212.123 176.176 208.941 176.176ZM208.941 173.996C210.418 173.996 211.367 172.572 211.35 169.637C211.35 166.736 210.418 165.26 208.941 165.26C207.465 165.26 206.533 166.736 206.533 169.637C206.516 172.572 207.465 173.996 208.941 173.996ZM215.674 173.75V171.658L221.053 163.273H224.375V171.623H225.992V173.75H224.375V176H221.861V173.75H215.674ZM218.346 171.623H221.896V166.174H221.773L218.346 171.518V171.623Z" fill="#5166D4"/>
<path d="M74.1289 368.816V381.258H72.3926V368.816H74.1289ZM63.7246 377.744C64.6748 377.737 65.7617 377.737 66.8965 377.703V376.65C65.5293 376.411 64.6406 375.563 64.6543 374.395C64.6406 373 65.9121 372.057 67.7441 372.057C69.5898 372.057 70.875 373 70.875 374.395C70.875 375.557 69.9863 376.404 68.6191 376.65V377.648C69.6582 377.601 70.7109 377.519 71.709 377.389L71.832 378.674C69.1113 379.139 66.1719 379.166 63.957 379.166L63.7246 377.744ZM71.5312 370.197V371.564H63.9707V370.197H66.8965V368.871H68.6328V370.197H71.5312ZM67.7441 373.383C66.8965 373.383 66.2949 373.752 66.3086 374.395C66.2949 375.051 66.8965 375.406 67.7441 375.406C68.6191 375.406 69.207 375.051 69.207 374.395C69.207 373.752 68.6191 373.383 67.7441 373.383ZM80.4316 370.949C80.4316 372.562 81.293 374.162 83.2754 374.818L82.332 376.186C81.0127 375.7 80.1035 374.784 79.584 373.629C79.0439 374.928 78.0732 375.953 76.6309 376.473L75.6875 375.105C77.7656 374.422 78.668 372.713 78.668 370.936V369.582H80.4316V370.949ZM86.2559 368.83V378.018H84.5195V372.877H82.1816V371.469H84.5195V368.83H86.2559ZM86.5156 379.645V381.039H77.9707V377.047H79.7344V379.645H86.5156ZM98.6016 368.816V381.258H96.9199V374.928H95.7852V380.711H94.1582V369.145H95.7852V373.533H96.9199V368.816H98.6016ZM93.2832 370.348C93.2695 373.82 92.2305 376.664 88.7305 378.701L87.7188 377.498C90.2549 376.008 91.3418 374.183 91.5879 371.742H88.3477V370.348H93.2832ZM111.316 375.229V376.596H99.9414V375.229H104.754V374.463H101.363V369.117H109.99V370.457H103.113V371.154H109.703V372.412H103.113V373.123H110.1V374.463H106.504V375.229H111.316ZM105.629 377.17C108.377 377.156 109.949 377.895 109.963 379.207C109.949 380.547 108.377 381.258 105.629 381.258C102.84 381.258 101.268 380.547 101.268 379.207C101.268 377.895 102.84 377.156 105.629 377.17ZM105.629 378.455C103.838 378.455 103.004 378.688 103.018 379.207C103.004 379.74 103.838 379.973 105.629 379.973C107.379 379.973 108.199 379.74 108.213 379.207C108.199 378.688 107.379 378.455 105.629 378.455Z" fill="#6192F2"/>
<path d="M0 340H153.523L175 314L153.523 288H0L21.4773 314L0 340Z" fill="#6192F2"/>
<circle cx="49" cy="314" r="20" fill="white"/>
<path d="M42.9414 320.176C39.7598 320.176 37.8262 317.803 37.8262 313.637C37.8262 309.471 39.7598 307.098 42.9414 307.098C46.123 307.098 48.0566 309.488 48.0566 313.637C48.0566 317.82 46.123 320.176 42.9414 320.176ZM42.9414 317.996C44.418 317.996 45.3672 316.572 45.3496 313.637C45.3496 310.736 44.418 309.26 42.9414 309.26C41.4648 309.26 40.5332 310.736 40.5332 313.637C40.5156 316.572 41.4648 317.996 42.9414 317.996ZM54.5605 320.176C51.9062 320.176 49.9727 318.611 49.9199 316.414H52.4863C52.5391 317.416 53.4531 318.084 54.5605 318.084C55.8789 318.084 56.8105 317.152 56.8105 315.834C56.8105 314.48 55.8613 313.549 54.5254 313.531C53.5762 313.531 52.9082 313.883 52.5215 314.604H50.1309L50.8164 307.273H58.6562V309.436H52.9961L52.6445 312.652H52.75C53.2246 312.02 54.1738 311.58 55.2988 311.58C57.6367 311.58 59.377 313.32 59.377 315.764C59.377 318.33 57.4258 320.176 54.5605 320.176Z" fill="#6192F2"/>
</svg>
