<svg width="343" height="280" viewBox="0 0 343 280" fill="none" xmlns="http://www.w3.org/2000/svg">
<path fill-rule="evenodd" clip-rule="evenodd" d="M26 0C11.6406 0 0 11.6406 0 26C0 40.3594 11.6406 52 26 52H157.651H157.653V51.9984L177 26L157.653 0.00159936V0H157.651H26Z" fill="#120D4D"/>
<path d="M166 52H321.277L343 26L321.277 0H166L187.723 26L166 52Z" fill="#312B82"/>
<path d="M0 204H155.277L177 178L155.277 152H0L21.7227 178L0 204Z" fill="#3D49B6"/>
<path d="M166 204H321.277L343 178L321.277 152H166L187.723 178L166 204Z" fill="#5166D4"/>
<path d="M59.3996 82.2V96.44H57.4156V82.2H59.3996ZM47.4956 92.44C48.5836 92.424 49.8156 92.424 51.1116 92.392V91.176C49.5596 90.888 48.5516 89.912 48.5516 88.6C48.5516 87 50.0076 85.928 52.1036 85.912C54.1996 85.928 55.6716 87 55.6876 88.6C55.6716 89.928 54.6476 90.888 53.0956 91.176V92.312C54.2796 92.264 55.4796 92.168 56.6156 92.024L56.7436 93.496C53.6556 94.024 50.2956 94.056 47.7516 94.04L47.4956 92.44ZM47.7836 85.368V83.8H51.1116V82.264H53.1276V83.8H56.4236V85.368H47.7836ZM50.4396 88.6C50.4396 89.352 51.1276 89.752 52.1036 89.752C53.0956 89.752 53.7676 89.352 53.7676 88.6C53.7676 87.864 53.0956 87.448 52.1036 87.448C51.1276 87.448 50.4396 87.864 50.4396 88.6ZM73.3238 82.232V92.984H71.3078V91.832H68.5878V90.488H71.3078V82.232H73.3238ZM61.1958 88.536C63.8198 88.504 67.3398 88.488 70.3478 88.088L70.4438 89.528C69.3238 89.72 68.1718 89.848 67.0198 89.928V92.632H65.0038V94.584H73.6438V96.184H63.0198V91.928H65.0038V90.056C63.7398 90.104 62.5238 90.104 61.4518 90.104L61.1958 88.536ZM62.2518 85.272C62.2678 83.752 63.7238 82.712 65.8358 82.712C67.9158 82.712 69.3878 83.752 69.3878 85.272C69.3878 86.792 67.9158 87.768 65.8358 87.768C63.7238 87.768 62.2678 86.792 62.2518 85.272ZM64.1398 85.272C64.1398 85.96 64.8278 86.328 65.8358 86.328C66.7958 86.328 67.4838 85.96 67.4998 85.272C67.4838 84.552 66.7958 84.168 65.8358 84.184C64.8278 84.168 64.1398 84.552 64.1398 85.272ZM87.0559 82.2V96.44H85.0399V82.2H87.0559ZM75.1519 92.408C78.8159 90.664 80.4319 88.424 80.7519 85.272H75.8879V83.704H82.7679C82.7839 88.008 81.2639 91.608 76.1759 94.008L75.1519 92.408ZM96.884 83.256V84.152C96.884 85.128 96.884 86.536 96.564 88.312L94.612 88.12C94.868 86.76 94.932 85.736 94.948 84.888H89.588V83.256H96.884ZM88.724 89.336C89.524 89.336 90.436 89.336 91.38 89.32V86.52H93.364V89.256C94.772 89.192 96.228 89.08 97.556 88.888L97.684 90.328C94.708 90.872 91.38 90.92 88.916 90.936L88.724 89.336ZM90.836 96.184V91.896H92.82V94.584H100.82V96.184H90.836ZM98.324 92.856V82.2H100.372V86.552H102.1V88.216H100.372V92.856H98.324ZM114.648 82.232V92.6H112.664V82.232H114.648ZM102.712 89.112C105.08 88.296 106.12 86.312 106.136 84.376V83H108.184V84.376C108.184 86.264 109.192 88.104 111.544 88.856L110.52 90.424C108.904 89.896 107.8 88.824 107.176 87.464C106.536 88.92 105.4 90.104 103.736 90.68L102.712 89.112ZM105.112 96.184V91.608H107.128V94.584H115.032V96.184H105.112ZM124.668 83.704V85.272H121.82C121.836 86.712 122.908 88.2 125.18 88.792L124.252 90.328C122.636 89.912 121.5 89.032 120.86 87.88C120.236 89.192 119.084 90.232 117.404 90.712L116.476 89.144C118.764 88.488 119.82 86.872 119.836 85.272H116.956V83.704H119.836V82.168H121.852V83.704H124.668ZM118.812 93.72C118.812 92.024 120.684 91.064 123.708 91.064C126.732 91.064 128.604 92.024 128.604 93.72C128.604 95.448 126.732 96.44 123.708 96.44C120.684 96.44 118.812 95.448 118.812 93.72ZM120.796 93.72C120.796 94.504 121.82 94.92 123.708 94.936C125.628 94.92 126.62 94.504 126.62 93.72C126.62 92.952 125.628 92.568 123.708 92.568C121.82 92.568 120.796 92.952 120.796 93.72ZM124.252 87.64V86.04H126.588V82.2H128.572V90.808H126.588V87.64H124.252Z" fill="#120D4D"/>
<path d="M245.982 83.448V84.824C245.966 86.568 245.966 88.52 245.438 91.384L243.486 91.224C243.95 88.616 243.966 86.712 243.966 85.048H235.454V83.448H245.982ZM234.174 94.712V93.08H236.926V88.6H238.942V93.08H240.51V88.6H242.462V93.08H247.166V94.712H234.174ZM260.994 88.856V90.424H257.858V91.768H259.394V96.44H257.41V93.336H249.442V91.768H251.074V90.424H248.002V88.856H260.994ZM249.314 85.304C249.298 83.56 251.346 82.488 254.498 82.488C257.618 82.488 259.65 83.56 259.65 85.304C259.65 87.032 257.618 88.104 254.498 88.12C251.346 88.104 249.298 87.032 249.314 85.304ZM251.394 85.304C251.362 86.136 252.498 86.568 254.498 86.552C256.45 86.568 257.602 86.136 257.602 85.304C257.602 84.472 256.45 84.04 254.498 84.056C252.498 84.04 251.362 84.472 251.394 85.304ZM253.09 91.768H255.874V90.424H253.09V91.768ZM269.094 83.256V89.592H262.246V83.256H269.094ZM263.59 93.624C263.574 91.896 265.478 90.824 268.454 90.84C271.382 90.824 273.254 91.896 273.254 93.624C273.254 95.416 271.382 96.456 268.454 96.472C265.478 96.456 263.574 95.416 263.59 93.624ZM264.23 87.992H267.11V84.824H264.23V87.992ZM265.574 93.624C265.574 94.488 266.598 94.872 268.454 94.872C270.294 94.872 271.286 94.488 271.27 93.624C271.286 92.824 270.294 92.408 268.454 92.408C266.598 92.408 265.574 92.824 265.574 93.624ZM271.11 90.456V82.2H273.126V85.432H275.046V87.032H273.126V90.456H271.11ZM230.664 112.104C230.664 114.264 231.816 116.76 234.152 117.832L233.032 119.4C231.448 118.68 230.328 117.224 229.704 115.528C229.064 117.4 227.896 118.984 226.248 119.752L225.096 118.184C227.464 117.08 228.664 114.44 228.68 112.104V111.208H225.672V109.576H233.544V111.208H230.664V112.104ZM234.632 122.44V108.2H236.648V113.64H238.728V115.304H236.648V122.44H234.632ZM243.692 112.552C243.692 114.712 244.46 116.872 246.476 117.96L245.388 119.4C244.108 118.744 243.26 117.592 242.764 116.216C242.268 117.72 241.436 119 240.14 119.752L238.988 118.248C241.036 117.064 241.804 114.744 241.804 112.552V112.232H239.532V110.632H241.804V108.712H243.66V110.632H245.932V112.232H243.692V112.552ZM245.1 115.24V113.608H246.764V108.456H248.62V121.768H246.764V115.24H245.1ZM249.644 122.44V108.2H251.532V122.44H249.644ZM268.664 108.232V116.264H266.68V108.232H268.664ZM256.696 114.44C259.096 113.72 260.136 111.896 260.152 110.12V108.744H262.2V110.12C262.2 111.848 263.256 113.512 265.56 114.216L264.568 115.752C262.936 115.256 261.816 114.264 261.192 112.984C260.552 114.376 259.384 115.48 257.688 116.008L256.696 114.44ZM259.128 122.28V116.904H268.664V122.28H259.128ZM261.112 120.68H266.712V118.472H261.112V120.68ZM275.836 111.432C275.82 113.992 276.908 116.552 279.196 117.64L277.98 119.24C276.476 118.488 275.436 117.096 274.844 115.384C274.22 117.224 273.132 118.728 271.516 119.528L270.3 117.896C272.7 116.792 273.82 114.072 273.82 111.432V109.32H275.836V111.432ZM279.804 122.44V108.2H281.82V113.704H283.9V115.368H281.82V122.44H279.804Z" fill="#312B82"/>
<path d="M80.0719 235.672V247H78.0239L73.0639 239.8H72.9679V247H70.6319V235.672H72.6799L77.6399 242.872H77.7359V235.672H80.0719ZM84.3273 235.672V247H81.9913V235.672H84.3273ZM90.2093 247H86.2413V235.672H90.2733C93.6653 235.688 95.7613 237.8 95.7453 241.336C95.7613 244.872 93.6653 247 90.2093 247ZM88.5773 244.984H90.1133C92.2733 244.984 93.4093 243.864 93.4093 241.336C93.4093 238.808 92.2733 237.704 90.1453 237.688H88.5773V244.984ZM98.6918 247H96.1638L100.068 235.672H103.108L107.012 247H104.484L103.636 244.408H99.5398L98.6918 247ZM100.132 242.552H103.044L101.636 238.232H101.54L100.132 242.552ZM62.5622 260.232V270.6H60.5782V260.232H62.5622ZM50.6262 267.112C52.9942 266.296 54.0342 264.312 54.0502 262.376V261H56.0982V262.376C56.0982 264.264 57.1062 266.104 59.4582 266.856L58.4342 268.424C56.8182 267.896 55.7142 266.824 55.0902 265.464C54.4502 266.92 53.3142 268.104 51.6502 268.68L50.6262 267.112ZM53.0262 274.184V269.608H55.0422V272.584H62.9462V274.184H53.0262ZM72.5823 261.704V263.272H69.7343C69.7503 264.712 70.8223 266.2 73.0943 266.792L72.1663 268.328C70.5503 267.912 69.4143 267.032 68.7743 265.88C68.1503 267.192 66.9983 268.232 65.3183 268.712L64.3903 267.144C66.6783 266.488 67.7343 264.872 67.7503 263.272H64.8703V261.704H67.7503V260.168H69.7663V261.704H72.5823ZM66.7263 271.72C66.7263 270.024 68.5983 269.064 71.6223 269.064C74.6463 269.064 76.5183 270.024 76.5183 271.72C76.5183 273.448 74.6463 274.44 71.6223 274.44C68.5983 274.44 66.7263 273.448 66.7263 271.72ZM68.7103 271.72C68.7103 272.504 69.7343 272.92 71.6223 272.936C73.5423 272.92 74.5343 272.504 74.5343 271.72C74.5343 270.952 73.5423 270.568 71.6223 270.568C69.7343 270.568 68.7103 270.952 68.7103 271.72ZM72.1663 265.64V264.04H74.5023V260.2H76.4863V268.808H74.5023V265.64H72.1663ZM89.6819 261.064V267.048H82.7379V261.064H89.6819ZM83.4739 272.904C86.3219 272.664 87.8259 271.544 88.0179 270.536H84.0499V269.064H88.0819V267.88H90.0979V269.064H94.1299V270.536H90.1619C90.3859 271.528 91.8739 272.632 94.7059 272.904L94.0339 274.408C91.6499 274.184 89.9699 273.32 89.1059 272.2C88.2419 273.336 86.5619 274.168 84.1779 274.408L83.4739 272.904ZM84.6899 265.512H87.6979V262.632H84.6899V265.512ZM91.9219 268.296V260.2H93.9059V268.296H91.9219ZM111.422 260.232V268.264H109.438V260.232H111.422ZM99.4536 266.44C101.854 265.72 102.894 263.896 102.91 262.12V260.744H104.958V262.12C104.958 263.848 106.014 265.512 108.318 266.216L107.326 267.752C105.694 267.256 104.574 266.264 103.95 264.984C103.31 266.376 102.142 267.48 100.446 268.008L99.4536 266.44ZM101.886 274.28V268.904H111.422V274.28H101.886ZM103.87 272.68H109.47V270.472H103.87V272.68ZM118.594 263.432C118.578 265.992 119.666 268.552 121.954 269.64L120.738 271.24C119.234 270.488 118.194 269.096 117.602 267.384C116.978 269.224 115.89 270.728 114.274 271.528L113.058 269.896C115.458 268.792 116.578 266.072 116.578 263.432V261.32H118.594V263.432ZM122.562 274.44V260.2H124.578V265.704H126.658V267.368H124.578V274.44H122.562Z" fill="#3D49B6"/>
<path d="M230.16 234.84V236.536H233.072V234.84H235.088V241.048H228.176V234.84H230.16ZM229.616 243.512V241.976H239.056V245.848H231.6V246.776H239.472V248.344H229.648V244.408H237.072V243.512H229.616ZM230.16 239.512H233.072V238.04H230.16V239.512ZM237.04 241.464V234.2H239.056V236.984H240.976V238.584H239.056V241.464H237.04ZM245.108 242.296V243.832H251.028V242.296H253.012V248.28H243.156V242.296H245.108ZM241.588 241.368V239.8H250.756C251.028 238.408 251.076 237.336 251.06 236.376H243.188V234.776H253.076V235.928C253.06 237.016 253.06 238.184 252.74 239.8H254.612V241.368H241.588ZM245.108 246.68H251.028V245.336H245.108V246.68ZM268.408 241.56V243.096H255.384V241.56H260.888V240.664H257.016V234.552H266.872V236.088H259V236.888H266.552V238.328H259V239.16H267V240.664H262.872V241.56H268.408ZM256.92 246.104C256.904 244.6 258.712 243.752 261.88 243.768C265.032 243.752 266.824 244.6 266.84 246.104C266.824 247.624 265.032 248.44 261.88 248.44C258.712 248.44 256.904 247.624 256.92 246.104ZM258.904 246.104C258.888 246.696 259.848 246.968 261.88 246.968C263.896 246.968 264.84 246.696 264.856 246.104C264.84 245.496 263.896 245.224 261.88 245.24C259.848 245.224 258.888 245.496 258.904 246.104ZM282.268 245.176V246.776H269.244V245.176H274.748V242.52H270.62V235.128H272.636V237.336H278.844V235.128H280.828V242.52H276.7V245.176H282.268ZM272.636 240.952H278.844V238.904H272.636V240.952Z" fill="#5166D4"/>
<circle cx="30" cy="26" r="20" fill="white"/>
<circle cx="217" cy="26" r="20" fill="white"/>
<path d="M24.9414 32.1758C21.7598 32.1758 19.8262 29.8027 19.8262 25.6367C19.8262 21.4707 21.7598 19.0977 24.9414 19.0977C28.123 19.0977 30.0566 21.4883 30.0566 25.6367C30.0566 29.8203 28.123 32.1758 24.9414 32.1758ZM24.9414 29.9961C26.418 29.9961 27.3672 28.5723 27.3496 25.6367C27.3496 22.7363 26.418 21.2598 24.9414 21.2598C23.4648 21.2598 22.5332 22.7363 22.5332 25.6367C22.5156 28.5723 23.4648 29.9961 24.9414 29.9961ZM37.3691 19.2734V32H34.7148V21.7871H34.6445L31.7266 23.6152V21.2773L34.873 19.2734H37.3691Z" fill="#120D4D"/>
<path d="M211.941 32.1758C208.76 32.1758 206.826 29.8027 206.826 25.6367C206.826 21.4707 208.76 19.0977 211.941 19.0977C215.123 19.0977 217.057 21.4883 217.057 25.6367C217.057 29.8203 215.123 32.1758 211.941 32.1758ZM211.941 29.9961C213.418 29.9961 214.367 28.5723 214.35 25.6367C214.35 22.7363 213.418 21.2598 211.941 21.2598C210.465 21.2598 209.533 22.7363 209.533 25.6367C209.516 28.5723 210.465 29.9961 211.941 29.9961ZM218.885 32L218.867 30.084L223.438 25.8828C224.633 24.7402 225.266 24.0371 225.266 23.0352C225.266 21.9102 224.404 21.207 223.244 21.207C222.049 21.207 221.275 21.9629 221.275 23.1758H218.762C218.744 20.6797 220.59 19.0977 223.279 19.0977C226.004 19.0977 227.814 20.6445 227.814 22.8594C227.814 24.3008 227.111 25.4961 224.492 27.8691L222.559 29.75V29.8203H227.99V32H218.885Z" fill="#312B82"/>
<circle cx="217" cy="178" r="20" fill="white"/>
<path d="M211.941 184.176C208.76 184.176 206.826 181.803 206.826 177.637C206.826 173.471 208.76 171.098 211.941 171.098C215.123 171.098 217.057 173.488 217.057 177.637C217.057 181.82 215.123 184.176 211.941 184.176ZM211.941 181.996C213.418 181.996 214.367 180.572 214.35 177.637C214.35 174.736 213.418 173.26 211.941 173.26C210.465 173.26 209.533 174.736 209.533 177.637C209.516 180.572 210.465 181.996 211.941 181.996ZM218.674 181.75V179.658L224.053 171.273H227.375V179.623H228.992V181.75H227.375V184H224.861V181.75H218.674ZM221.346 179.623H224.896V174.174H224.773L221.346 179.518V179.623Z" fill="#5166D4"/>
<circle cx="51" cy="178" r="20" fill="white"/>
<path d="M45.94 184.18C42.754 184.18 40.828 181.804 40.828 177.628C40.828 173.47 42.772 171.094 45.94 171.112C49.108 171.094 51.052 173.488 51.052 177.628C51.052 181.822 49.126 184.18 45.94 184.18ZM43.528 177.628C43.51 180.58 44.464 181.984 45.94 181.984C47.416 181.984 48.37 180.58 48.352 177.628C48.352 174.73 47.416 173.272 45.94 173.272C44.482 173.272 43.528 174.73 43.528 177.628ZM57.6068 184.18C54.7988 184.18 52.8008 182.632 52.7468 180.436H55.4108C55.4648 181.354 56.3828 181.984 57.6068 181.984C58.8848 181.984 59.7848 181.282 59.7668 180.256C59.7848 179.23 58.8668 178.492 57.3548 178.492H56.2028V176.548H57.3548C58.6328 176.53 59.4968 175.846 59.4788 174.82C59.4968 173.866 58.7588 173.2 57.6428 173.2C56.5088 173.2 55.5728 173.83 55.5548 174.82H52.9988C53.0528 172.624 55.0328 171.094 57.6428 171.112C60.2888 171.094 62.0528 172.678 62.0348 174.676C62.0528 176.116 61.0628 177.124 59.6228 177.376V177.484C61.5128 177.7 62.5388 178.834 62.5388 180.436C62.5388 182.614 60.4688 184.18 57.6068 184.18Z" fill="#5166D4"/>
</svg>
