<svg width="1119" height="145" viewBox="0 0 1119 145" fill="none" xmlns="http://www.w3.org/2000/svg">
<path d="M108.374 92.7425L108.394 108.739L106.161 108.741L106.141 92.7453L108.374 92.7425ZM95.0111 104.238C96.2328 104.228 97.6303 104.226 99.0892 104.18L99.0875 102.826C97.3293 102.521 96.1853 101.433 96.201 99.9297C96.1812 98.1368 97.8144 96.9218 100.17 96.9189C102.543 96.9159 104.197 98.1267 104.199 99.9197C104.201 101.414 103.06 102.505 101.302 102.824L101.304 104.107C102.64 104.044 103.993 103.937 105.276 103.768L105.436 105.42C101.939 106.022 98.1599 106.062 95.3123 106.066L95.0111 104.238ZM105.036 94.5221L105.038 96.2799L95.3175 96.2922L95.3153 94.5344L99.077 94.5296L99.0749 92.8246L101.307 92.8217L101.309 94.5268L105.036 94.5221ZM100.172 98.624C99.0822 98.6253 98.3093 99.1009 98.328 99.9271C98.3114 100.771 99.0855 101.227 100.175 101.226C101.3 101.224 102.056 100.766 102.055 99.9224C102.053 99.0962 101.297 98.6225 100.172 98.624ZM124.036 92.7403L124.051 104.816L121.801 104.819L121.799 103.554L118.741 103.558L118.739 102.028L121.797 102.024L121.786 92.7431L124.036 92.7403ZM124.405 106.644L124.407 108.437L112.489 108.452L112.483 103.671L114.716 103.668L114.713 101.541C113.28 101.604 111.918 101.615 110.705 101.617L110.439 99.8415C113.375 99.8202 117.33 99.78 120.704 99.3539L120.829 100.953C119.564 101.166 118.255 101.317 116.963 101.415L116.967 104.456L114.717 104.459L114.719 106.656L124.405 106.644ZM115.634 93.2958C117.954 93.2753 119.626 94.451 119.628 96.156C119.63 97.8611 117.962 98.9706 115.641 98.9736C113.268 98.9766 111.614 97.8712 111.612 96.1661C111.61 94.4611 113.243 93.2813 115.634 93.2958ZM115.636 94.9306C114.494 94.932 113.721 95.3725 113.739 96.1635C113.723 96.9369 114.497 97.3578 115.639 97.3564C116.711 97.355 117.484 96.9322 117.501 96.1587C117.482 95.3677 116.708 94.9292 115.636 94.9306ZM139.487 92.7032L139.507 108.699L137.239 108.702L137.219 92.7061L139.487 92.7032ZM134.69 94.3792C134.696 99.2308 132.996 103.258 127.287 105.973L126.107 104.181C130.235 102.225 132.051 99.6911 132.407 96.1399L126.958 96.1468L126.956 94.389L134.69 94.3792ZM150.563 93.8494L150.564 94.8513C150.565 95.9588 150.567 97.5584 150.201 99.5452L148.003 99.337C148.282 97.7986 148.351 96.6383 148.368 95.6803L142.338 95.6879L142.336 93.8598L150.563 93.8494ZM146.595 97.5458L146.598 100.604C148.189 100.541 149.824 100.416 151.326 100.194L151.451 101.811C148.13 102.431 144.368 102.488 141.591 102.509L141.395 100.716C142.292 100.715 143.303 100.714 144.366 100.678L144.362 97.5486L146.595 97.5458ZM154.481 92.6843L154.487 97.5534L156.421 97.551L156.423 99.4318L154.489 99.4343L154.496 104.655L152.193 104.658L152.178 92.6872L154.481 92.6843ZM154.991 106.606L154.993 108.398L143.761 108.413L143.755 103.596L146.005 103.593L146.008 106.617L154.991 106.606ZM170.547 92.6816L170.562 104.353L168.312 104.356L168.297 92.6844L170.547 92.6816ZM170.987 106.585L170.989 108.378L159.845 108.392L159.838 103.242L162.106 103.239L162.11 106.597L170.987 106.585ZM163.291 95.1165C163.276 97.2259 164.403 99.2987 167.041 100.139L165.901 101.898C164.098 101.303 162.849 100.109 162.135 98.5809C161.425 100.225 160.144 101.545 158.272 102.189L157.11 100.415C159.798 99.5155 160.956 97.2816 160.953 95.1195L160.951 93.5726L163.289 93.5697L163.291 95.1165ZM181.835 94.3197L181.837 96.0775L178.602 96.0816C178.622 97.7251 179.837 99.3935 182.404 100.049L181.369 101.773C179.55 101.319 178.265 100.31 177.534 99.0009C176.841 100.496 175.56 101.666 173.671 102.205L172.614 100.466C175.179 99.7334 176.355 97.9037 176.37 96.0844L173.153 96.0884L173.151 94.3306L176.368 94.3266L176.366 92.5863L178.633 92.5835L178.635 94.3237L181.835 94.3197ZM186.192 92.6442L186.204 102.312L183.972 102.315L183.967 98.7291L181.366 98.7324L181.363 96.9394L183.965 96.9361L183.959 92.6471L186.192 92.6442ZM180.738 102.583C184.148 102.596 186.241 103.666 186.261 105.582C186.246 107.515 184.155 108.643 180.745 108.647C177.353 108.652 175.242 107.529 175.239 105.596C175.237 103.68 177.345 102.605 180.738 102.583ZM180.74 104.305C178.613 104.308 177.471 104.731 177.472 105.593C177.473 106.472 178.616 106.945 180.743 106.942C182.905 106.939 184.03 106.463 184.029 105.584C184.027 104.723 182.902 104.303 180.74 104.305Z" fill="#120D4D"/>
<path d="M412.035 93.7476L412.036 95.3121C412.021 97.2633 412.024 99.4605 411.448 102.678L409.251 102.487C409.774 99.5601 409.789 97.3804 409.787 95.5259L400.207 95.538L400.204 93.7626L412.035 93.7476ZM413.367 104.574L413.369 106.402L398.779 106.421L398.777 104.593L401.888 104.589L401.882 99.5612L404.114 99.5584L404.12 104.586L405.878 104.584L405.872 99.5562L408.087 99.5534L408.093 104.581L413.367 104.574ZM428.917 99.8084L428.919 101.584L425.404 101.588L425.406 103.082L427.146 103.08L427.153 108.336L424.92 108.339L424.916 104.841L415.951 104.852L415.949 103.094L417.777 103.092L417.775 101.598L414.33 101.602L414.327 99.8268L428.917 99.8084ZM421.613 92.6633C425.129 92.6413 427.416 93.8513 427.436 95.8024C427.42 97.7536 425.137 98.9694 421.621 98.9738C418.088 98.9783 415.784 97.7683 415.781 95.8171C415.779 93.866 418.08 92.6502 421.613 92.6633ZM421.615 94.4035C419.383 94.4063 418.1 94.9001 418.119 95.8142C418.103 96.7634 419.387 97.2364 421.619 97.2336C423.834 97.2308 425.116 96.7546 425.115 95.8053C425.114 94.8913 423.83 94.4007 421.615 94.4035ZM420.044 103.089L423.191 103.085L423.189 101.591L420.042 101.595L420.044 103.089ZM438.032 93.4863L438.041 100.623L430.36 100.633L430.351 93.496L438.032 93.4863ZM432.568 95.2686L432.572 98.8369L435.824 98.8328L435.82 95.2645L432.568 95.2686ZM442.566 92.3204L442.571 95.9415L444.733 95.9388L444.735 97.7493L442.573 97.7521L442.578 101.602L440.328 101.604L440.316 92.3233L442.566 92.3204ZM437.34 102.013C440.627 102.008 442.738 103.201 442.74 105.17C442.743 107.156 440.635 108.337 437.348 108.341C433.99 108.345 431.862 107.17 431.86 105.184C431.857 103.215 433.982 102.017 437.34 102.013ZM437.342 103.788C435.233 103.791 434.091 104.267 434.11 105.181C434.093 106.13 435.236 106.568 437.346 106.565C439.42 106.563 440.527 106.122 440.526 105.173C440.524 104.259 439.416 103.785 437.342 103.788ZM394.857 125.74C394.843 128.183 396.147 130.994 398.785 132.204L397.539 133.963C395.754 133.148 394.478 131.515 393.772 129.591C393.054 131.71 391.747 133.505 389.893 134.377L388.59 132.603C391.261 131.352 392.593 128.38 392.607 125.743L392.606 124.759L389.213 124.763L389.211 122.935L398.07 122.923L398.073 124.752L394.856 124.756L394.857 125.74ZM401.566 121.372L401.574 127.472L403.93 127.469L403.932 129.35L401.577 129.353L401.587 137.368L399.337 137.371L399.316 121.375L401.566 121.372ZM409.5 126.231C409.503 128.657 410.385 131.082 412.654 132.309L411.426 133.946C409.984 133.209 409.024 131.91 408.468 130.346C407.908 132.052 406.952 133.494 405.503 134.34L404.217 132.654C406.518 131.315 407.377 128.713 407.391 126.234L407.39 125.865L404.807 125.868L404.804 124.075L407.388 124.072L407.385 121.91L409.477 121.907L409.48 124.069L412.011 124.066L412.014 125.859L409.5 125.862L409.5 126.231ZM418.336 121.351L418.356 137.347L416.229 137.35L416.209 121.354L418.336 121.351ZM415.067 121.619L415.086 136.613L412.976 136.616L412.967 129.25L411.086 129.253L411.084 127.425L412.965 127.422L412.957 121.621L415.067 121.619ZM437.602 121.344L437.613 130.362L435.363 130.365L435.352 121.347L437.602 121.344ZM437.614 131.1L437.622 137.147L426.899 137.161L426.891 131.114L437.614 131.1ZM429.108 132.886L429.111 135.365L435.422 135.357L435.419 132.878L429.108 132.886ZM430.345 123.48C430.329 125.432 431.509 127.276 434.094 128.081L433.007 129.788C431.178 129.254 429.911 128.148 429.188 126.716C428.461 128.273 427.162 129.505 425.255 130.096L424.163 128.34C426.834 127.528 428.009 125.487 428.007 123.483L428.005 121.936L430.343 121.934L430.345 123.48ZM445.657 124.938C445.643 127.803 446.877 130.702 449.445 131.929L448.094 133.724C446.379 132.882 445.226 131.301 444.555 129.369C443.863 131.444 442.626 133.142 440.817 134.032L439.426 132.223C442.131 130.971 443.411 127.911 443.407 124.94L443.404 122.55L445.654 122.547L445.657 124.938ZM452.385 121.308L452.393 127.478L454.748 127.475L454.75 129.373L452.395 129.376L452.405 137.304L450.155 137.307L450.135 121.311L452.385 121.308Z" fill="#312B82"/>
<path d="M687.132 93.6641L687.148 106.391L684.862 106.394L679.262 98.3147L679.157 98.3148L679.167 106.401L676.53 106.404L676.514 93.6775L678.835 93.6746L684.4 101.753L684.523 101.753L684.512 93.6674L687.132 93.6641ZM691.913 93.6581L691.929 106.385L689.292 106.388L689.276 93.6614L691.913 93.6581ZM698.556 106.376L694.073 106.382L694.057 93.6553L698.592 93.6496C702.424 93.6448 704.765 96.0325 704.77 99.9875C704.775 103.978 702.441 106.371 698.556 106.376ZM696.707 104.111L698.447 104.109C700.873 104.106 702.137 102.839 702.134 99.9909C702.13 97.1608 700.863 95.9143 698.455 95.9174L696.697 95.9196L696.707 104.111ZM708.101 106.364L705.253 106.368L709.649 93.6357L713.042 93.6314L717.452 106.352L714.622 106.356L713.669 103.422L709.064 103.427L708.101 106.364ZM709.729 101.37L712.999 101.366L711.393 96.4987L711.305 96.4988L709.729 101.37ZM667.487 121.054L667.502 132.726L665.252 132.729L665.237 121.057L667.487 121.054ZM667.927 134.958L667.929 136.751L656.785 136.765L656.778 131.615L659.046 131.612L659.05 134.969L667.927 134.958ZM660.231 123.489C660.216 125.598 661.343 127.671 663.981 128.512L662.841 130.271C661.038 129.676 659.789 128.482 659.075 126.953C658.365 128.598 657.084 129.918 655.212 130.562L654.05 128.788C656.738 127.888 657.896 125.654 657.893 123.492L657.891 121.945L660.229 121.942L660.231 123.489ZM678.775 122.692L678.777 124.45L675.542 124.454C675.562 126.098 676.777 127.766 679.344 128.422L678.309 130.146C676.489 129.691 675.205 128.682 674.474 127.373C673.781 128.868 672.5 130.039 670.611 130.578L669.554 128.839C672.119 128.106 673.295 126.276 673.31 124.457L670.093 124.461L670.091 122.703L673.308 122.699L673.306 120.959L675.573 120.956L675.575 122.696L678.775 122.692ZM683.132 121.017L683.144 130.685L680.912 130.688L680.907 127.102L678.306 127.105L678.303 125.312L680.905 125.309L680.899 121.02L683.132 121.017ZM677.678 130.955C681.088 130.969 683.181 132.038 683.201 133.954C683.186 135.888 681.095 137.015 677.685 137.02C674.293 137.024 672.182 135.902 672.179 133.968C672.177 132.052 674.285 130.977 677.678 130.955ZM677.68 132.678C675.553 132.681 674.411 133.104 674.412 133.965C674.413 134.844 675.556 135.317 677.683 135.315C679.845 135.312 680.97 134.836 680.969 133.957C680.967 133.096 679.842 132.675 677.68 132.678ZM697.987 121.965L697.995 128.697L690.173 128.707L690.164 121.975L697.987 121.965ZM692.381 123.712L692.385 126.947L695.76 126.942L695.756 123.708L692.381 123.712ZM702.731 120.992L702.743 130.062L700.51 130.065L700.499 120.995L702.731 120.992ZM703.025 130.941L703.027 132.611L698.545 132.617C698.792 133.706 700.482 134.961 703.646 135.264L702.892 136.953C700.229 136.71 698.338 135.746 697.37 134.481C696.378 135.766 694.481 136.709 691.8 136.967L691.025 135.28C694.233 135.021 695.918 133.736 696.154 132.62L691.672 132.625L691.67 130.955L696.223 130.95L696.221 129.631L698.471 129.628L698.473 130.947L703.025 130.941ZM722.454 120.985L722.466 130.002L720.216 130.005L720.204 120.988L722.454 120.985ZM722.466 130.741L722.474 136.787L711.751 136.801L711.744 130.754L722.466 130.741ZM713.961 132.527L713.964 135.005L720.275 134.997L720.271 132.519L713.961 132.527ZM715.197 123.121C715.182 125.072 716.362 126.916 718.947 127.722L717.859 129.428C716.031 128.894 714.763 127.788 714.041 126.357C713.313 127.913 712.014 129.145 710.108 129.737L709.016 127.98C711.687 127.168 712.862 125.128 712.859 123.124L712.857 121.577L715.195 121.574L715.197 123.121ZM730.509 124.578C730.495 127.443 731.73 130.342 734.298 131.569L732.946 133.364C731.231 132.523 730.078 130.942 729.408 129.009C728.716 131.084 727.479 132.782 725.669 133.672L724.278 131.863C726.984 130.612 728.263 127.552 728.259 124.581L728.256 122.19L730.506 122.187L730.509 124.578ZM737.237 120.949L737.245 127.118L739.601 127.115L739.603 129.014L737.247 129.017L737.257 136.945L735.007 136.947L734.987 120.951L737.237 120.949Z" fill="#3D49B6"/>
<path d="M948.691 92.4022L948.693 94.3007L951.963 94.2965L951.96 92.3981L954.21 92.3953L954.219 99.3738L946.467 99.3836L946.458 92.405L948.691 92.4022ZM948.697 97.6229L951.967 97.6188L951.965 95.984L948.695 95.9882L948.697 97.6229ZM958.674 91.6689L958.678 94.7802L960.84 94.7775L960.843 96.5881L958.681 96.5908L958.685 99.8076L956.435 99.8104L956.424 91.6718L958.674 91.6689ZM958.685 100.405L958.691 104.747L950.306 104.758L950.307 105.795L959.149 105.784L959.151 107.559L948.112 107.573L948.107 103.161L956.456 103.15L956.455 102.148L948.07 102.159L948.068 100.419L958.685 100.405ZM965.506 100.766L965.508 102.471L972.17 102.462L972.168 100.757L974.383 100.755L974.392 107.469L963.317 107.483L963.309 100.769L965.506 100.766ZM965.512 105.67L972.174 105.662L972.173 104.168L965.51 104.176L965.512 105.67ZM974.443 92.2994L974.444 93.5826C974.446 94.7955 974.448 96.0963 974.081 97.9073L976.19 97.9046L976.192 99.6976L961.55 99.7161L961.547 97.9231L971.848 97.9101C972.163 96.3628 972.205 95.1587 972.213 94.0952L963.336 94.1064L963.333 92.3134L974.443 92.2994ZM991.696 99.8714L991.699 101.629L977.074 101.648L977.071 99.8898L983.259 99.882L983.258 98.8977L978.898 98.9032L978.89 92.0301L989.981 92.0161L989.984 93.7388L981.142 93.7499L981.143 94.6464L989.616 94.6357L989.618 96.2529L981.145 96.2636L981.146 97.1777L990.129 97.1663L990.131 98.889L985.508 98.8948L985.509 99.8792L991.696 99.8714ZM984.387 102.377C987.92 102.355 989.943 103.301 989.963 104.989C989.947 106.711 987.927 107.628 984.394 107.633C980.808 107.637 978.785 106.726 978.783 105.003C978.781 103.315 980.801 102.364 984.387 102.377ZM984.389 104.029C982.086 104.032 981.015 104.332 981.033 105C981.016 105.686 982.089 105.983 984.392 105.98C986.642 105.977 987.696 105.677 987.713 104.992C987.694 104.324 986.639 104.026 984.389 104.029ZM1007.31 103.912L1007.31 105.74L992.671 105.759L992.668 103.931L998.838 103.923L998.835 100.97L994.212 100.976L994.201 92.6436L996.451 92.6408L996.454 95.1193L1003.43 95.1105L1003.43 92.6319L1005.66 92.6291L1005.67 100.961L1001.07 100.967L1001.07 103.92L1007.31 103.912ZM996.459 99.1798L1003.44 99.171L1003.43 96.9034L996.456 96.9122L996.459 99.1798Z" fill="#5166D4"/>
<path fill-rule="evenodd" clip-rule="evenodd" d="M26.0078 2.22523C11.6484 2.24336 0.0225095 13.8986 0.0406391 28.258C0.0587687 42.6174 11.714 54.2433 26.0734 54.2252L258.117 53.9322L289.753 27.8923L258.051 1.93226L26.0078 2.22523Z" fill="#120D4D"/>
<circle cx="26.0409" cy="28.2252" r="20" transform="rotate(-0.0723394 26.0409 28.2252)" fill="white"/>
<path d="M275.073 53.9108L530.36 53.5885L566.04 27.5435L530.294 1.58857L275.008 1.91089L310.754 27.8658L275.073 53.9108Z" fill="#312B82"/>
<path d="M552.073 53.5612L805.605 53.2411L841.04 27.1964L805.539 1.24118L552.008 1.56128L587.509 27.5165L552.073 53.5612Z" fill="#3D49B6"/>
<path d="M826.073 53.2153L1082.24 52.8919L1118.04 26.8466L1082.17 0.89191L826.008 1.21533L861.877 27.1701L826.073 53.2153Z" fill="#5166D5"/>
<circle cx="337.041" cy="27.8326" r="20" transform="rotate(-0.0723394 337.041 27.8326)" fill="white"/>
<circle cx="615.041" cy="27.4816" r="20" transform="rotate(-0.0723394 615.041 27.4816)" fill="white"/>
<circle cx="889.041" cy="27.1356" r="20" transform="rotate(-0.0723394 889.041 27.1356)" fill="white"/>
<path d="M20.9896 34.4075C17.808 34.4115 15.8714 32.0409 15.8661 27.8749C15.8609 23.7089 17.7915 21.3334 20.9731 21.3294C24.1547 21.3254 26.0914 23.7136 26.0966 27.862C26.1019 32.0456 24.1713 34.4035 20.9896 34.4075ZM20.9869 32.2278C22.4634 32.226 23.4109 30.8009 23.3896 27.8654C23.3859 24.965 22.4524 23.4896 20.9758 23.4915C19.4993 23.4934 18.5695 24.9711 18.5732 27.8715C18.5593 30.8071 19.5103 32.2297 20.9869 32.2278ZM33.4011 21.4895L33.4171 34.216L30.7628 34.2194L30.7499 24.0065L30.6796 24.0066L27.764 25.8384L27.761 23.5005L30.905 21.4926L33.4011 21.4895Z" fill="#120D4D"/>
<path d="M331.99 34.0147C328.808 34.0187 326.871 31.6481 326.866 27.4821C326.861 23.3161 328.791 20.9406 331.973 20.9366C335.155 20.9326 337.091 23.3207 337.097 27.4692C337.102 31.6528 335.171 34.0107 331.99 34.0147ZM331.987 31.835C333.463 31.8331 334.411 30.4081 334.39 27.4726C334.386 24.5722 333.452 23.0968 331.976 23.0987C330.499 23.1006 329.57 24.5783 329.573 27.4787C329.559 30.4142 330.51 31.8369 331.987 31.835ZM338.933 33.8302L338.913 31.9142L343.478 27.7072C344.672 26.5631 345.304 25.8592 345.302 24.8573C345.301 23.7323 344.439 23.0302 343.278 23.0317C342.083 23.0332 341.311 23.79 341.312 25.0029L338.799 25.0061C338.778 22.51 340.622 20.9257 343.311 20.9223C346.036 20.9188 347.848 22.4634 347.851 24.6783C347.853 26.1197 347.151 27.3159 344.535 29.6922L342.604 31.5755L342.604 31.6458L348.035 31.639L348.038 33.8187L338.933 33.8302Z" fill="#312B82"/>
<path d="M608.988 33.6651C605.806 33.6691 603.869 31.2985 603.864 27.1325C603.859 22.9665 605.79 20.591 608.971 20.587C612.153 20.583 614.089 22.9711 614.095 27.1196C614.1 31.3032 612.169 33.6611 608.988 33.6651ZM608.985 31.4854C610.461 31.4835 611.409 30.0585 611.388 27.123C611.384 24.2226 610.45 22.7472 608.974 22.7491C607.497 22.7509 606.568 24.2287 606.571 27.1291C606.557 30.0646 607.508 31.4873 608.985 31.4854ZM620.642 33.6504C617.847 33.6539 615.841 32.1096 615.786 29.8948L618.458 29.8914C618.511 30.8406 619.426 31.4722 620.657 31.4707C621.922 31.4691 622.836 30.7472 622.817 29.7277C622.833 28.6906 621.9 27.9535 620.406 27.9554L619.229 27.9568L619.226 26.0057L620.404 26.0042C621.652 26.0026 622.53 25.316 622.529 24.314C622.527 23.3472 621.788 22.6802 620.663 22.6816C619.538 22.683 618.607 23.317 618.573 24.2838L616.042 24.287C616.075 22.0897 618.059 20.5755 620.661 20.5722C623.315 20.5689 625.092 22.1311 625.077 24.1526C625.097 25.5764 624.096 26.5972 622.672 26.8451L622.673 26.9505C624.536 27.1767 625.575 28.318 625.559 29.9C625.579 32.0797 623.507 33.6468 620.642 33.6504Z" fill="#3D49B6"/>
<path d="M883.988 33.3179C880.806 33.3219 878.869 30.9513 878.864 26.7853C878.859 22.6193 880.79 20.2438 883.971 20.2398C887.153 20.2358 889.089 22.624 889.095 26.7724C889.1 30.956 887.169 33.3139 883.988 33.3179ZM883.985 31.1382C885.461 31.1364 886.409 29.7113 886.388 26.7758C886.384 23.8754 885.45 22.4001 883.974 22.4019C882.497 22.4038 881.568 23.8815 881.571 26.7819C881.557 29.7175 882.508 31.1401 883.985 31.1382ZM890.717 30.8836L890.714 28.7918L896.083 20.4003L899.405 20.3961L899.416 28.7457L901.033 28.7437L901.035 30.8706L899.418 30.8727L899.421 33.1227L896.907 33.1258L896.905 30.8758L890.717 30.8836ZM893.386 28.7533L896.937 28.7488L896.93 23.2996L896.807 23.2998L893.386 28.6478L893.386 28.7533Z" fill="#5166D4"/>
</svg>
