<svg width="24" height="24" viewBox="0 0 24 24" fill="none" xmlns="http://www.w3.org/2000/svg">
<path fill-rule="evenodd" clip-rule="evenodd" d="M4.40625 10.125C4.40625 6.96662 6.96662 4.40625 10.125 4.40625C13.2834 4.40625 15.8438 6.96662 15.8438 10.125C15.8438 13.2834 13.2834 15.8438 10.125 15.8438C6.96662 15.8438 4.40625 13.2834 4.40625 10.125ZM10.125 3.09375C6.24175 3.09375 3.09375 6.24175 3.09375 10.125C3.09375 14.0083 6.24175 17.1562 10.125 17.1562C11.8303 17.1562 13.3938 16.5492 14.6112 15.5393L20.536 21.464L21.464 20.536L15.5393 14.6112C16.5492 13.3938 17.1562 11.8303 17.1562 10.125C17.1562 6.24175 14.0083 3.09375 10.125 3.09375Z" fill="#999999"/>
</svg>
