<svg width="80" height="28" viewBox="0 0 80 28" fill="none" xmlns="http://www.w3.org/2000/svg">
<g clip-path="url(#clip0_51_457)">
<path d="M16.834 6.61118L17.0455 6.3488L17.6579 5.60808C19.4951 3.42629 21.0577 1.39789 22.0281 0.0012207C22.4717 0.088008 22.7036 0.110209 23.1675 0.110209C23.6741 0.110209 23.9691 0.088008 24.5408 0.0012207C24.14 0.481578 24.0342 0.590567 23.1044 1.57147C20.9091 3.92683 20.4656 4.42939 18.9865 6.19541L19.2612 6.60917C21.2245 9.57608 22.492 11.5177 23.0413 12.3896C24.0769 13.9821 24.1807 14.1556 24.6038 14.7672C23.7168 14.6804 23.2529 14.6582 22.5978 14.6582C21.9427 14.6582 21.5419 14.6804 20.8033 14.7672C19.4097 12.4118 18.3538 10.6599 16.9174 8.45794L16.7282 8.13097V8.67591C16.7282 11.5116 16.6651 13.3705 16.8136 14.7672C16.1585 14.6804 15.8208 14.6582 15.1453 14.6582C14.4698 14.6582 14.0894 14.6804 13.3936 14.7672C13.5421 12.8256 13.6255 9.90305 13.6255 6.41339C13.6255 3.94903 13.5197 1.13551 13.3936 0.0012207C14.3437 0.088008 14.7669 0.110209 15.2511 0.110209C15.778 0.110209 16.1381 0.088008 16.8136 0.0012207C16.7078 1.61587 16.6651 3.18611 16.6244 6.3488V6.87155L16.836 6.60917L16.834 6.61118Z" fill="#120D4D"/>
<path d="M29.9019 8.00461V8.72515C29.9019 10.8403 30.0097 12.8041 30.2254 14.768C29.4502 14.6812 29.0637 14.659 28.3516 14.659C27.6843 14.659 27.318 14.6812 26.6304 14.768C26.8033 12.7174 26.8664 10.471 26.8664 5.93383C26.8664 3.68745 26.7809 1.37447 26.6304 0C27.4055 0.0867873 27.8145 0.108989 28.5245 0.108989C28.8907 0.108989 29.5357 0.0867873 30.3108 0.0444028C31.0433 0.0222014 31.6679 0 32.0768 0C33.4766 0 34.445 0.240179 35.1978 0.785122C36.0808 1.41685 36.5976 2.46435 36.5976 3.66525C36.5976 4.97311 36.0381 6.06502 35.0269 6.76335C34.5529 7.06812 34.0361 7.3083 33.1755 7.52627C33.8001 8.57377 34.3596 9.46789 36.4043 12.6306L37.4582 14.2876L37.7817 14.768C36.7278 14.6812 36.2313 14.659 35.6495 14.659C35.0249 14.659 34.6383 14.6812 33.8835 14.768C33.6027 14.223 33.4969 14.005 32.8499 12.8708C32.2681 11.8233 31.6658 10.7556 31.0636 9.70806C30.4817 8.66056 30.3739 8.46479 30.0952 8.00663H29.9019V8.00461ZM30.4024 7.1105C32.0646 7.1105 33.0453 5.97217 33.0453 4.02047C33.0453 2.30289 32.205 1.31594 30.7625 1.31594C30.7625 1.31594 30.5021 1.33814 29.9813 1.35832C29.9406 2.2383 29.9202 4.2768 29.9019 7.0883C30.142 7.1105 30.2417 7.1105 30.4024 7.1105Z" fill="#120D4D"/>
<path d="M42.872 10.7071C42.9148 12.235 42.9371 13.0847 42.9575 13.2805C43.1508 13.3027 43.3644 13.3027 43.4275 13.3027C44.4529 13.3027 46.5037 13.1715 47.7 13.0403C47.6145 13.4339 47.5942 13.6074 47.5942 13.9122C47.5942 14.2392 47.6145 14.435 47.7 14.8507C46.3959 14.7861 44.4732 14.7417 43.6614 14.7417C42.4428 14.7417 40.691 14.7861 39.5171 14.8507C39.688 11.8616 39.7531 10.029 39.7531 7.63124C39.7531 4.9267 39.6676 1.91539 39.5171 0.0827637C40.8416 0.213954 42.2088 0.256338 43.8547 0.256338C45.1365 0.256338 45.9055 0.234137 47.8282 0.0827637C47.7427 0.476334 47.7224 0.714494 47.7224 1.04348C47.7224 1.39265 47.7427 1.58842 47.8282 1.95979C46.1192 1.8286 44.0683 1.69741 43.2342 1.69741C43.2118 1.69741 43.106 1.69741 42.9555 1.71961L42.9351 2.00218L42.8924 3.57242L42.872 4.46653V5.18707L42.8497 6.10338V6.38594C44.3878 6.38594 46.0764 6.32136 47.7 6.21237C47.5942 6.58374 47.5718 6.77951 47.5718 7.10648C47.5718 7.43344 47.5942 7.62922 47.7 8.00059C46.225 7.9138 43.9605 7.80481 43.106 7.80481H42.8497C42.8293 7.9582 42.8293 8.04499 42.8293 8.06719L42.8497 9.31047L42.872 10.7071Z" fill="#120D4D"/>
<path d="M52.0336 4.38383C52.0132 5.16895 52.0132 5.6917 52.0132 6.60801C52.0132 10.0755 52.119 12.8244 52.3326 14.766C51.8443 14.6792 51.6104 14.657 51.2909 14.657C50.9715 14.657 50.7599 14.6792 50.3774 14.766C50.526 11.9747 50.589 9.29034 50.589 5.47372C50.589 3.16074 50.5463 2.02645 50.3774 -0.00195312C50.8881 0.0848341 51.1648 0.107036 51.5676 0.107036C51.9501 0.107036 52.121 0.0848341 52.4384 -0.00195312C53.2258 0.978945 53.0712 1.30995 55.9846 4.45044C57.4943 6.06508 59.4108 7.72009 61.5593 10.2067V7.63331C61.5389 3.77228 61.5389 3.37871 61.3884 -0.00195312C61.8339 0.0848341 62.0252 0.107036 62.3019 0.107036C62.5358 0.107036 62.7474 0.0848341 63.2805 -0.00195312C63.0262 3.31413 62.9834 5.18914 62.9611 9.72629L62.9407 12.344V13.8053C62.9407 14.1101 62.9407 14.3502 62.9611 14.766C62.4931 14.6792 62.2815 14.657 61.9824 14.657C61.7057 14.657 61.5572 14.6792 61.2175 14.766C58.4118 11.2986 57.2623 9.98867 52.4791 4.83997L52.0336 4.38181V4.38383Z" fill="#120D4D"/>
<path d="M0 25.1804C0 25.1804 7.94893 21.6323 18.3393 19.9994C28.7297 18.3666 36.3368 18.7037 40.8799 18.6472C45.4231 18.5907 53.4839 19.3798 57.5733 19.7734C61.6627 20.167 73.4712 22.1954 80 25.8001C80 25.8001 72.2789 21.3497 63.2781 19.6039C54.2774 17.858 46.8411 16.9558 40.8799 16.8993C34.9187 16.8428 23.7593 17.7127 17.204 19.1518C7.2104 21.3477 0 25.1804 0 25.1804Z" fill="#120D4D"/>
<path d="M6.61621 24.2278H7.08009V26.0422L8.89489 24.2278H9.47677L7.98749 25.689L9.60088 27.8829H9.05969L7.67417 26.0019L7.08212 26.5892V27.8829H6.61825V24.2278H6.61621Z" fill="#120D4D"/>
<path d="M9.80615 26.569C9.80615 25.8445 10.2741 25.2551 11.0228 25.2551C11.7715 25.2551 12.2354 25.8445 12.2354 26.569C12.2354 27.2936 11.7776 27.883 11.0228 27.883C10.268 27.883 9.80615 27.2936 9.80615 26.569ZM11.8325 26.569C11.8325 26.018 11.5599 25.5781 11.0248 25.5781C10.4898 25.5781 10.211 26.018 10.211 26.569C10.211 27.12 10.4877 27.554 11.0248 27.554C11.562 27.554 11.8325 27.12 11.8325 26.569Z" fill="#120D4D"/>
<path d="M13.1412 25.679H13.1514C13.3121 25.4227 13.5888 25.2087 13.9448 25.2087C14.0222 25.2087 14.0628 25.2188 14.1157 25.239V25.6386H14.0995C14.0384 25.6185 13.9957 25.6124 13.9143 25.6124C13.5013 25.6124 13.1412 25.9192 13.1412 26.4157V27.883H12.7241V25.239H13.1412V25.679Z" fill="#120D4D"/>
<path d="M14.2622 26.5649C14.2622 25.798 14.7668 25.1743 15.5257 25.1743C16.3252 25.1743 16.7525 25.7879 16.7525 26.6618H14.6915C14.722 27.1987 15.017 27.6084 15.5521 27.6084C15.9387 27.6084 16.1971 27.4247 16.2886 27.0655H16.6955C16.5714 27.6326 16.1543 27.9555 15.5521 27.9555C14.7383 27.9555 14.2642 27.3319 14.2642 26.5649H14.2622ZM14.6996 26.351H16.3028C16.2764 25.8242 16.0038 25.5013 15.5257 25.5013C15.0475 25.5013 14.7627 25.8686 14.7017 26.351H14.6996Z" fill="#120D4D"/>
<path d="M18.8682 27.5155H18.8621C18.7014 27.7194 18.4287 27.9353 17.975 27.9353C17.4705 27.9353 17.0737 27.6992 17.0737 27.1986C17.0737 26.575 17.5681 26.4478 18.2334 26.3449C18.6098 26.2884 18.8723 26.2521 18.8723 25.9675C18.8723 25.6829 18.6566 25.5012 18.2741 25.5012C17.8408 25.5012 17.6251 25.6849 17.6088 26.0845H17.206C17.2223 25.5739 17.562 25.1904 18.268 25.1904C18.8356 25.1904 19.2527 25.4003 19.2527 26.028V27.2854C19.2527 27.4994 19.3036 27.6185 19.5355 27.566H19.5518V27.8667C19.5009 27.8869 19.4338 27.9071 19.326 27.9071C19.0533 27.9071 18.9089 27.784 18.8682 27.5135V27.5155ZM18.8784 26.908V26.4579C18.74 26.5447 18.4979 26.6113 18.27 26.6517C17.853 26.7284 17.5173 26.799 17.5173 27.1886C17.5173 27.5418 17.796 27.6185 18.0686 27.6185C18.6261 27.6185 18.8784 27.2148 18.8784 26.908Z" fill="#120D4D"/>
<path d="M21.5312 24.2761H24.1334V24.6798H21.9951V25.8343H23.9381V26.2238H21.9951V27.5074H24.1965V27.9313H21.5312V24.2761Z" fill="#120D4D"/>
<path d="M24.5566 26.5346C24.5566 25.6869 25.049 25.1924 25.6858 25.1924C26.048 25.1924 26.3267 25.37 26.4915 25.6122H26.5017V24.2761H26.9045V27.8021H26.5017V27.4913H26.4915C26.2982 27.7375 26.0581 27.8768 25.696 27.8768C24.9941 27.8768 24.5566 27.354 24.5566 26.5346ZM26.5261 26.5386C26.5261 25.9473 26.2372 25.5335 25.7062 25.5335C25.2199 25.5335 24.9697 25.9675 24.9697 26.5386C24.9697 27.1098 25.2179 27.5397 25.7102 27.5397C26.2819 27.5397 26.5261 27.1159 26.5261 26.5386Z" fill="#120D4D"/>
<path d="M29.3194 27.8727V27.5175H29.3092C29.122 27.7678 28.9002 27.9313 28.5239 27.9313C27.9908 27.9313 27.647 27.6124 27.647 27.0775V25.2893H28.0539V27.0674C28.0539 27.4025 28.2695 27.5962 28.6378 27.5962C29.0508 27.5962 29.3173 27.2874 29.3173 26.8777V25.2893H29.7263V27.8727H29.3173H29.3194Z" fill="#120D4D"/>
<path d="M30.3022 26.5547C30.3022 25.8201 30.7763 25.2227 31.5372 25.2227C32.1394 25.2227 32.5402 25.5658 32.6277 26.1047H32.2228C32.1638 25.7615 31.9217 25.5516 31.5372 25.5516C30.994 25.5516 30.7132 25.9977 30.7132 26.5568C30.7132 27.1158 30.994 27.5558 31.5372 27.5558C31.9523 27.5558 32.1984 27.3217 32.233 26.9281H32.6277C32.5728 27.5356 32.174 27.8888 31.5372 27.8888C30.7763 27.8888 30.3022 27.2914 30.3022 26.5568V26.5547Z" fill="#120D4D"/>
<path d="M34.6358 27.5217H34.6297C34.4689 27.7195 34.1963 27.9294 33.7426 27.9294C33.238 27.9294 32.8413 27.7013 32.8413 27.2149C32.8413 26.6094 33.3357 26.4863 34.001 26.3854C34.3774 26.3309 34.6398 26.2966 34.6398 26.018C34.6398 25.7395 34.4242 25.5659 34.0417 25.5659C33.6083 25.5659 33.3927 25.7456 33.3764 26.1311H32.9736C32.9898 25.6346 33.3296 25.2632 34.0356 25.2632C34.6032 25.2632 35.0203 25.467 35.0203 26.0766V27.2976C35.0203 27.5055 35.0712 27.6206 35.3031 27.5701H35.3194V27.8628C35.2685 27.8829 35.2014 27.9031 35.0935 27.9031C34.8209 27.9031 34.6765 27.7841 34.6358 27.5217ZM34.6459 26.9303V26.4944C34.5076 26.5791 34.2655 26.6437 34.0376 26.6821C33.6205 26.7567 33.2848 26.8254 33.2848 27.2028C33.2848 27.5459 33.5636 27.6185 33.8362 27.6185C34.3937 27.6185 34.6459 27.227 34.6459 26.9283V26.9303Z" fill="#120D4D"/>
<path d="M35.3945 25.2894H35.7811V24.4558H36.1982V25.2894H36.7129V25.6264H36.1982V27.344C36.1982 27.5277 36.2958 27.5902 36.4667 27.5902C36.5501 27.5902 36.6417 27.5701 36.6885 27.5539H36.7048V27.9112C36.6071 27.9313 36.4932 27.9475 36.3691 27.9475C36.0293 27.9475 35.7811 27.8102 35.7811 27.4369V25.6264H35.3945V25.2894Z" fill="#120D4D"/>
<path d="M37.2544 24.2761H37.6715V24.7868H37.2544V24.2761ZM37.2544 25.2893H37.6715V27.9333H37.2544V25.2893Z" fill="#120D4D"/>
<path d="M38.1211 26.5527C38.1211 25.8201 38.5951 25.2227 39.354 25.2227C40.1129 25.2227 40.5809 25.8201 40.5809 26.5527C40.5809 27.2854 40.117 27.8828 39.354 27.8828C38.5911 27.8828 38.1211 27.2854 38.1211 26.5527ZM40.1719 26.5527C40.1719 25.9957 39.8952 25.5496 39.354 25.5496C38.8128 25.5496 38.53 25.9936 38.53 26.5527C38.53 27.1118 38.8108 27.5498 39.354 27.5498C39.8972 27.5498 40.1719 27.1098 40.1719 26.5527Z" fill="#120D4D"/>
<path d="M41.5128 25.6204H41.523C41.7142 25.3802 41.9807 25.2268 42.3673 25.2268C42.9248 25.2268 43.2645 25.5174 43.2645 26.0422V27.8264H42.8474V26.0765C42.8474 25.7475 42.6216 25.5598 42.2452 25.5598C41.822 25.5598 41.5128 25.8444 41.5128 26.2622V27.8244H41.0957V25.2833H41.5128V25.6184V25.6204Z" fill="#120D4D"/>
<path d="M45.4492 24.2742H45.9131V27.9293H45.4492V24.2742Z" fill="#120D4D"/>
<path d="M46.5826 26.0987C46.5826 25.025 47.2316 24.1914 48.3303 24.1914C49.1909 24.1914 49.7117 24.6819 49.8094 25.358H49.3557C49.2682 24.9039 48.902 24.591 48.3201 24.591C47.5103 24.591 47.0566 25.2409 47.0566 26.0987C47.0566 26.9565 47.5571 27.5963 48.3242 27.5963C49.02 27.5963 49.3496 27.126 49.3964 26.5892H49.8541C49.848 26.9525 49.6731 27.3601 49.4106 27.6165C49.1522 27.8667 48.7758 28 48.3079 28C47.2621 28 46.5806 27.2068 46.5806 26.0987H46.5826Z" fill="#120D4D"/>
<path d="M50.1226 24.2742H53.0401V24.6778H51.8133V27.9293H51.3494V24.6778H50.1226V24.2742Z" fill="#120D4D"/>
<path d="M54.8081 24.2903H55.2862L56.9281 26.7748C57.0481 26.9605 57.1905 27.235 57.1905 27.235H57.2007V24.2923H57.6239V27.8647H57.16L55.508 25.3761C55.392 25.2005 55.2415 24.9321 55.2415 24.9321H55.2313V27.8647H54.8081V24.2923V24.2903Z" fill="#120D4D"/>
<path d="M58.2628 26.5772C58.2628 25.8223 58.7592 25.2087 59.5038 25.2087C60.2892 25.2087 60.7103 25.8122 60.7103 26.672H58.6819C58.7124 27.2008 59.0013 27.6025 59.5283 27.6025C59.9087 27.6025 60.161 27.4208 60.2526 27.0696H60.6534C60.5313 27.6287 60.1203 27.9456 59.5283 27.9456C58.7267 27.9456 58.2607 27.332 58.2607 26.5772H58.2628ZM58.6941 26.3652H60.2709C60.2465 25.8465 59.9759 25.5297 59.5059 25.5297C59.0359 25.5297 58.7551 25.8909 58.6941 26.3652Z" fill="#120D4D"/>
<path d="M60.9727 25.3337H61.341V24.5405H61.7377V25.3337H62.228V25.6546H61.7377V27.2895C61.7377 27.4651 61.8313 27.5236 61.992 27.5236C62.0714 27.5236 62.1589 27.5034 62.2036 27.4893H62.2179V27.8304C62.1243 27.8506 62.0165 27.8647 61.8985 27.8647C61.575 27.8647 61.339 27.7335 61.339 27.3783V25.6567H60.9707V25.3357L60.9727 25.3337Z" fill="#120D4D"/>
<path d="M62.3545 25.3357H62.7817L63.2293 26.8918C63.2883 27.1017 63.3677 27.4327 63.3677 27.4327H63.3779C63.3779 27.4327 63.4511 27.1017 63.506 26.9019L63.9333 25.3357H64.3504L64.7634 26.9019C64.8183 27.1057 64.8855 27.4327 64.8855 27.4327H64.8956C64.8956 27.4327 64.975 27.1017 65.038 26.8918L65.5101 25.3357H65.9231L65.093 27.8566H64.684L64.2609 26.3307C64.2018 26.1208 64.1388 25.8039 64.1388 25.8039H64.1286C64.1286 25.8039 64.0594 26.1208 64.0004 26.3307L63.5732 27.8566H63.1602L62.3545 25.3357Z" fill="#120D4D"/>
<path d="M66.0918 26.5387C66.0918 25.808 66.5638 25.2126 67.3186 25.2126C68.0734 25.2126 68.5414 25.808 68.5414 26.5387C68.5414 27.2693 68.0795 27.8647 67.3186 27.8647C66.5577 27.8647 66.0918 27.2713 66.0918 26.5387ZM68.1345 26.5387C68.1345 25.9836 67.8598 25.5396 67.3186 25.5396C66.7774 25.5396 66.4987 25.9836 66.4987 26.5387C66.4987 27.0937 66.7795 27.5317 67.3186 27.5317C67.8578 27.5317 68.1345 27.0937 68.1345 26.5387Z" fill="#120D4D"/>
<path d="M69.4425 25.6546H69.4526C69.6134 25.3983 69.8901 25.1843 70.2461 25.1843C70.3234 25.1843 70.3641 25.1944 70.417 25.2146V25.6142H70.4007C70.3397 25.594 70.297 25.588 70.2156 25.588C69.8026 25.588 69.4425 25.8948 69.4425 26.3913V27.8586H69.0254V25.2146H69.4425V25.6546Z" fill="#120D4D"/>
<path d="M71.5914 26.45L71.2008 26.8133V27.8567H70.7837V24.25H71.2008V26.3632L72.3706 25.2491H72.9016L71.8803 26.1876L73.0237 27.8567H72.5334L71.5894 26.45H71.5914Z" fill="#120D4D"/>
</g>
<defs>
<clipPath id="clip0_51_457">
<rect width="80" height="28" fill="white"/>
</clipPath>
</defs>
</svg>
