<svg id="logo" xmlns="http://www.w3.org/2000/svg" width="74.275" height="29.179" viewBox="0 0 74.275 29.179">
  <path id="패스_5362" data-name="패스 5362" d="M19.146,29.807l1.413,5.35a7.576,7.576,0,0,0,.681.762l-1.877-7.1a7.107,7.107,0,0,0-.218.989Zm.269-1.156,2.665,7.97a7.231,7.231,0,0,0,.621.4l-3.027-9.052a6.538,6.538,0,0,0-.26.68Zm3.074,2.765-2.2-4.547c-.1.151-.2.3-.287.464l5.128,10.576c.181.034.365.06.55.08l-2.208-4.556a3.9,3.9,0,0,1-.979-2.016Zm1.964,2.8,2.157,3.813c.174,0,.346-.011.516-.024l-1.963-3.469A4.077,4.077,0,0,1,24.452,34.22Zm2.044.542a4.121,4.121,0,0,1-.516-.034l2.056,3.151c.16-.032.318-.071.474-.113l-1.958-3H26.5Zm2.852-1.145L31.657,36c.11-.1.22-.21.324-.322l-2.321-2.4a3.9,3.9,0,0,1-.31.339Zm4.569-2.98L23.5,24.216c-.168.073-.332.149-.492.232l4.016,2.47A4.076,4.076,0,0,1,29.9,28.693l4.011,2.472c0-.114.008-.229.008-.344,0-.061,0-.123,0-.185Zm-11.365-.71-1.893-3.343,1.981,3.032a3.769,3.769,0,0,1,.213-.515l-1.8-2.759L22.962,28.9a4.054,4.054,0,0,1,.269-.405l-1.806-2.417,1.927,2.264A4.245,4.245,0,0,1,23.666,28l-1.884-2.214,2.025,2.09a4.157,4.157,0,0,1,.365-.278l-2.05-2.122L24.329,27.5a4.121,4.121,0,0,1,.426-.23l-2.321-2.115,2.52,2.027a3.733,3.733,0,0,1,.519-.168l-2.735-2.206,3.038,2.144a4.054,4.054,0,0,1,.7-.066l-3.454-2.438a7.4,7.4,0,0,0-2.726,2.416l2.156,3.811a3.78,3.78,0,0,1,.1-.747Zm-3.48.9a7.051,7.051,0,0,0,.72,3.1l-.7-3.582C19.079,30.505,19.071,30.662,19.071,30.823Zm.635-2.918,3.9,9.566c.191.079.387.148.585.211L19.984,27.358a6.079,6.079,0,0,0-.277.544ZM32,25.976l-6.091-2.341a7.464,7.464,0,0,0-.928.126l7.6,2.922a7.533,7.533,0,0,0-.582-.71Zm1.72,3.16L24.095,24c-.191.066-.381.133-.564.211l10.306,5.5c-.031-.195-.072-.388-.119-.578Zm-.586-1.554-8.29-3.79c-.233.051-.461.113-.683.185l9.264,4.234a6.7,6.7,0,0,0-.291-.629ZM26.5,23.608c-.066,0-.133,0-.2,0l4.731,1.493a7.528,7.528,0,0,0-4.531-1.5Zm3.97,8,2.775,2.231q.1-.214.188-.435l-2.889-2.321A4.008,4.008,0,0,1,30.47,31.607Zm-.418,1.109L32.552,35c.091-.123.178-.251.261-.38L30.259,32.29a4.43,4.43,0,0,1-.208.426Zm.464-2.419,3.194,2.255c.039-.158.074-.322.1-.483l-3.448-2.439a3.824,3.824,0,0,1,.15.67ZM28.42,34.289l2.173,2.551c.129-.083.257-.17.381-.259l-2.155-2.531a4.177,4.177,0,0,1-.4.239Zm-1.127.4,2.085,2.789c.145-.059.288-.124.429-.192l-2.035-2.719a4.3,4.3,0,0,1-.481.12Z" transform="translate(-19.071 -16.244)" fill="#fff"/>
  <path id="패스_5363" data-name="패스 5363" d="M34.324,30.933,37.7,38.3V37.188l-3.372-7.37Zm0-2.974L37.7,36.695V35.4L34.324,26.67ZM37.135,23.6l.56,2.454V23.6ZM30.271,45.846a7.5,7.5,0,0,0,1.886-.244l-1.886-.212Zm4.053-8.076,2.63,3.311-2.63-2.925v.257c0,.139-.007.277-.021.412l2.306,2.566-2.34-2.308a4.161,4.161,0,0,1-.123.531l2.139,2.11-2.2-1.923a4.123,4.123,0,0,1-.194.446l2.094,1.828-2.177-1.678a4.014,4.014,0,0,1-.251.392l2.139,1.651-2.236-1.519a4.093,4.093,0,0,1-.309.35l2.286,1.554L33.022,41.39a4.217,4.217,0,0,1-.383.312L35.2,43.221l-2.725-1.4a3.912,3.912,0,0,1-.487.271l3,1.542L31.729,42.2a4.228,4.228,0,0,1-.7.2L34.8,44.056l-4.3-1.592c-.074.005-.149.008-.223.008v.4l4.3,1.592a7.452,7.452,0,0,0,2.736-3.685l-2.984-3.758Zm0-14.165v.276l3.372,10.6V32.951L34.724,23.6Zm1.445,0,1.923,7.634v-1.9L36.245,23.6Zm-5.5,20.8,3.131.743c.214-.1.422-.21.625-.328l-3.756-.892Zm0-.752L34.062,44.8a6.048,6.048,0,0,0,.507-.332l-4.3-1.3Zm0,1.483,2.177.378A7.131,7.131,0,0,0,33.3,45.2l-3.031-.531Zm4.053-11.924,3.3,6.2a7.455,7.455,0,0,0,.066-.862l-3.368-6.322Zm0,1.817,3.159,5.146c.055-.22.1-.444.133-.672l-3.292-5.362Zm0,1.487,2.984,4.266c.062-.187.119-.377.167-.571l-3.153-4.5Z" transform="translate(-22.844 -16.667)" fill="#fff"/>
  <path id="패스_5364" data-name="패스 5364" d="M49.648,37.963l5.5-1.373a7.524,7.524,0,0,0,.785-.663L48.63,37.749A7.891,7.891,0,0,0,49.648,37.963Zm-1.194-.26,8.205-2.59c.147-.194.285-.4.412-.6L47.758,37.45c.227.094.461.18.7.253ZM51.3,34.716l-4.681,2.14c.156.1.313.193.477.28l10.889-4.974c.034-.178.066-.357.084-.537l-4.692,2.147a4.1,4.1,0,0,1-2.074.944Zm2.887-1.905,3.925-2.1c0-.168-.011-.335-.025-.5l-3.568,1.9a4.041,4.041,0,0,1-.329.692Zm.556-1.99a3.813,3.813,0,0,1-.034.5l3.245-2c-.035-.156-.074-.308-.118-.46l-3.094,1.9a.334.334,0,0,1,0,.056ZM53.566,28.05l2.46-2.242c-.108-.109-.218-.214-.332-.317l-2.473,2.255a4.075,4.075,0,0,1,.344.3ZM50.5,23.612,43.891,33.725c.073.163.151.323.236.477l2.545-3.895a3.937,3.937,0,0,1,1.826-2.8l2.548-3.9c-.116-.005-.235-.009-.353-.009-.066,0-.129,0-.193,0Zm-.729,11.046-3.441,1.837,3.121-1.923a4.536,4.536,0,0,1-.531-.206l-2.838,1.749,2.632-1.857a4.464,4.464,0,0,1-.418-.265l-2.486,1.757,2.332-1.873a3.682,3.682,0,0,1-.345-.308L45.511,35.4l2.153-1.966a4.031,4.031,0,0,1-.29-.355l-2.181,1.99,2.074-2.149a4.049,4.049,0,0,1-.237-.412l-2.177,2.255,2.088-2.454a3.724,3.724,0,0,1-.173-.5L44.5,34.478l2.207-2.95a3.879,3.879,0,0,1-.066-.678L44.131,34.2a7.3,7.3,0,0,0,2.488,2.653l3.921-2.094a4.372,4.372,0,0,1-.77-.105Zm.923,3.382a7.585,7.585,0,0,0,3.194-.7l-3.684.684c.164.006.326.014.491.014Zm-3.005-.619,9.847-3.785c.08-.186.151-.377.216-.57L47.126,37.151c.182.1.371.186.561.267ZM45.7,25.484,43.289,31.4a6.877,6.877,0,0,0,.133.9l3.009-7.388a7.65,7.65,0,0,0-.729.564Zm3.25-1.671-5.285,9.339c.066.188.137.372.218.55L49.55,23.689c-.2.034-.4.074-.6.119Zm-1.6.569-3.9,8.05q.081.34.192.663L48,24.1c-.222.085-.438.178-.649.282Zm-4.09,6.446c0,.066,0,.133.005.2l1.537-4.6a7.052,7.052,0,0,0-1.539,4.394ZM51.5,26.967l2.295-2.7c-.146-.066-.294-.127-.446-.183L50.959,26.9a4.083,4.083,0,0,1,.542.066Zm1.14.407,2.348-2.429c-.127-.088-.256-.172-.389-.253l-2.4,2.48a4.377,4.377,0,0,1,.442.2Zm-2.486-.455,2.321-3.1c-.164-.04-.332-.074-.5-.1l-2.506,3.352a4.024,4.024,0,0,1,.684-.151Zm4.112,2.037,2.627-2.111c-.086-.125-.175-.249-.265-.369l-2.606,2.093a3.945,3.945,0,0,1,.241.387Zm.407,1.095,2.872-2.025c-.06-.142-.128-.281-.2-.416l-2.8,1.976a3.8,3.8,0,0,1,.123.466Z" transform="translate(-27.463 -16.244)" fill="#fff"/>
  <path id="패스_5365" data-name="패스 5365" d="M60.57,27.807l3.374,4.124v-.724L60.57,27.082Zm0,1.6,3.374,3.647v-.674L60.57,28.735Zm0-3.468,3.374,4.681v-.785L60.57,25.156Zm0,12.114h.815l-.816-.3Zm1.452-14.391,1.923,3.5v-.961l-1.393-2.546ZM60.57,30.811l3.374,3.232v-.635l-3.374-3.23Zm0-7.148v.058l3.374,5.342V28.2L61.08,23.664Zm3.357,0h-.511l.531,1.119V23.7Zm-3.357,8.39,3.374,2.862v-.6L60.57,31.46Zm0,5.571,1.2.432H63.11l-2.541-.913Zm0-1.608L63.945,37.7V37.2L60.57,35.51Zm0,.825,2.84,1.215h.534v-.265L60.57,36.347Zm0-1.7,3.374,1.941v-.524L60.57,34.615Zm0-1.964,3.374,2.529v-.57L60.57,32.608Zm0,1.021,3.374,2.22v-.544L60.57,33.65Z" transform="translate(-33.4 -16.263)" fill="#fff"/>
  <path id="패스_5366" data-name="패스 5366" d="M76.71,23.677l-5.5,1.374a7.4,7.4,0,0,0-.787.663l7.309-1.822a7.455,7.455,0,0,0-1.017-.216Zm1.194.265L69.7,26.529a6.276,6.276,0,0,0-.414.6L78.6,24.191a7.162,7.162,0,0,0-.7-.252Zm-2.847,2.984,4.679-2.14c-.154-.1-.314-.193-.475-.28L68.37,29.484c-.035.176-.062.353-.084.535l4.69-2.146a4.112,4.112,0,0,1,2.078-.948Zm-2.888,1.907-3.923,2.1c0,.166.011.332.025.5l3.572-1.905a3.793,3.793,0,0,1,.325-.691Zm-.556,1.99a3.77,3.77,0,0,1,.035-.5l-3.245,2c.035.156.076.308.121.464l3.09-1.907a.361.361,0,0,1,0-.057Zm1.179,2.765-2.46,2.246c.108.107.218.213.332.313l2.473-2.255A3.82,3.82,0,0,1,72.791,33.589Zm3.07,4.439,6.607-10.113c-.074-.162-.153-.322-.239-.476l-2.545,3.895a3.923,3.923,0,0,1-1.825,2.793l-2.548,3.9c.118.005.235.009.355.009.061,0,.127,0,.191-.007Zm.729-11.044,3.441-1.836-3.12,1.923a4.08,4.08,0,0,1,.531.208l2.841-1.751-2.633,1.857a3.838,3.838,0,0,1,.418.265l2.483-1.757-2.33,1.873a3.847,3.847,0,0,1,.346.306l2.28-1.834L78.693,28.2c.1.112.2.232.29.353l2.181-1.99-2.073,2.145a4.221,4.221,0,0,1,.237.413L81.5,26.872l-2.088,2.45a4.034,4.034,0,0,1,.175.505l2.27-2.667-2.207,2.95a3.871,3.871,0,0,1,.066.678l2.508-3.355a7.34,7.34,0,0,0-2.487-2.653l-3.923,2.095a4.292,4.292,0,0,1,.77.106ZM75.667,23.6a7.6,7.6,0,0,0-3.2.7l3.683-.682c-.162-.007-.325-.014-.488-.014Zm3,.617-9.847,3.789c-.082.186-.153.376-.218.568l10.625-4.086c-.182-.1-.371-.186-.562-.269Zm1.99,11.94,2.41-5.913a6.78,6.78,0,0,0-.133-.9l-3.01,7.384a7.743,7.743,0,0,0,.729-.562ZM77.407,37.83l5.29-9.351c-.066-.188-.137-.37-.219-.55L76.811,37.943c.2-.025.4-.066.592-.11Zm1.6-.57,3.9-8.056c-.054-.225-.118-.447-.192-.663l-4.364,9A7.051,7.051,0,0,0,79,37.262ZM83.1,30.816c0-.066,0-.133-.005-.2l-1.539,4.6a7.049,7.049,0,0,0,1.54-4.4Zm-8.24,3.86L72.563,37.37c.146.066.294.126.446.183L75.4,34.745a4.024,4.024,0,0,1-.538-.07Zm-1.138-.405L71.371,36.7c.127.089.258.174.39.253l2.4-2.478A4.26,4.26,0,0,1,73.719,34.27Zm2.49.45-2.321,3.1c.164.036.328.066.5.1l2.505-3.351a4.1,4.1,0,0,1-.685.147ZM72.1,32.685,69.471,34.8c.086.127.174.249.269.37l2.6-2.095a3.5,3.5,0,0,1-.249-.385Zm-.407-1.1-2.872,2.026c.061.141.127.281.2.417l2.8-1.976a4.384,4.384,0,0,1-.127-.468Z" transform="translate(-36.13 -16.243)" fill="#fff"/>
  <path id="패스_5367" data-name="패스 5367" d="M68.242,30.15l1.485,4.571h.486L68.242,28.65Zm0-3.34,3.13,7.911h.243v-.65l-3.374-8.52Zm3.374-14.305H68.242v4.08l3.374,2.791v-.6l-3.368-2.785,3.368,2.446v-.574l-3.093-2.246,3.093,1.963V17.03l-2.852-1.808,2.852,1.566v-.531L69,14.817l2.62,1.233v-.514L69.191,14.4l2.425.956v-.5l-2.255-.893,2.255.729V14.2L69.5,13.52l2.111.54v-.478l-2-.513,2,.381v-.472L69.7,12.614l1.911.241ZM68.242,34.721h.62l-.62-1.731Zm0-10.329,3.374,7.169V30.474L68.242,23.3Zm0-5.519,3.374,4.076V22.22l-3.374-4.078Zm0-1.619,3.374,3.167v-.636l-3.374-3.168Zm0,.753L71.616,21.6v-.677l-3.374-3.592Zm0,3.072L71.616,26.4v-.862l-3.374-5.315Zm0-1.2,3.374,4.642v-.788l-3.374-4.642Zm0,2.667,3.374,6.137v-.962l-3.374-6.136Z" transform="translate(-36.05 -12.505)" fill="#fff"/>
  <path id="패스_5368" data-name="패스 5368" d="M99.909,29.812l1.413,5.349a7.38,7.38,0,0,0,.681.762l-1.877-7.1A7.02,7.02,0,0,0,99.909,29.812Zm.269-1.156,2.666,7.97a7.321,7.321,0,0,0,.621.4l-3.029-9.05C100.341,28.2,100.254,28.423,100.178,28.656Zm3.074,2.763-2.2-4.547c-.1.151-.2.306-.288.464l5.123,10.577c.181.034.365.061.552.08l-2.207-4.555a3.905,3.905,0,0,1-.978-2.017Zm1.964,2.8,2.155,3.814c.175,0,.348-.011.517-.025l-1.962-3.466A4.045,4.045,0,0,1,105.216,34.224Zm2.044.543a4.7,4.7,0,0,1-.517-.034l2.059,3.149c.161-.032.319-.07.475-.113l-1.965-3Zm2.852-1.146,2.309,2.387c.113-.1.22-.211.326-.323l-2.321-2.4a4.091,4.091,0,0,1-.312.335Zm4.57-2.98-10.412-6.419c-.167.071-.332.147-.492.231l4.01,2.472a4.065,4.065,0,0,1,2.876,1.773l4.012,2.472c.005-.114.009-.227.009-.343,0-.061,0-.127,0-.186Zm-11.369-.711-1.889-3.342,1.98,3.032a3.4,3.4,0,0,1,.215-.515l-1.8-2.759,1.913,2.559a4.007,4.007,0,0,1,.265-.408l-1.805-2.416,1.927,2.263a4.216,4.216,0,0,1,.316-.335l-1.887-2.215,2.023,2.091a4.469,4.469,0,0,1,.363-.279l-2.05-2.122,2.212,2.016a4.019,4.019,0,0,1,.424-.23L103.2,25.157l2.52,2.025a4.078,4.078,0,0,1,.519-.166l-2.744-2.208,3.037,2.144a4.2,4.2,0,0,1,.7-.066l-3.454-2.436a7.373,7.373,0,0,0-2.728,2.415l2.155,3.81a3.821,3.821,0,0,1,.113-.746Zm-3.48.9a7.045,7.045,0,0,0,.721,3.1l-.7-3.582c-.009.159-.017.316-.017.477Zm.635-2.918,3.9,9.566c.19.078.387.146.586.211l-4.205-10.325q-.149.267-.277.545Zm12.292-1.929-6.091-2.342a7.625,7.625,0,0,0-.928.127l7.6,2.918a7.585,7.585,0,0,0-.578-.706Zm1.72,3.16L104.857,24c-.19.066-.378.133-.564.212l10.306,5.5c-.031-.2-.072-.391-.118-.58Zm-.587-1.553L105.6,23.795c-.229.052-.458.114-.681.186l9.264,4.234a6.474,6.474,0,0,0-.289-.632Zm-6.632-3.974c-.066,0-.137,0-.2.006l4.734,1.493a7.53,7.53,0,0,0-4.53-1.5Zm3.974,8,2.773,2.232c.066-.143.133-.286.189-.435l-2.889-2.321a4.292,4.292,0,0,1-.074.522Zm-.419,1.109,2.5,2.282c.09-.124.178-.251.261-.38l-2.555-2.333a4.139,4.139,0,0,1-.208.428Zm.464-2.418,3.192,2.255c.04-.158.074-.32.1-.483l-3.448-2.436a3.791,3.791,0,0,1,.151.661ZM109.185,34.3l2.172,2.551c.128-.084.255-.17.381-.259l-2.157-2.53a4.349,4.349,0,0,1-.4.235Zm-1.127.4,2.087,2.79c.145-.059.288-.125.428-.194l-2.036-2.719a4.1,4.1,0,0,1-.483.118Z" transform="translate(-47.191 -16.246)" fill="#fff"/>
  <path id="패스_5369" data-name="패스 5369" d="M120.5,37.967v-.02l-3.411-12.582v1.928l2.895,10.673Zm0-14.564h-.443l.443.515Zm0,10.108-3.309-9.689L120.5,31.8V30.484l-2.839-6.844,2.839,5.77V28.27l-2.383-4.841,2.383,4.153V26.573L118.68,23.4h-1.592v1.679l3.41,9.993Zm-3.4,4.456h.511l-.521-3.8v3.728Zm3.4-13.87-.525-.7h-.623l1.151,1.525Zm0,1.119L119.3,23.4h-.6l1.8,2.719Zm-1.462,12.752-1.949-9.6V30.9l1.435,7.065Z" transform="translate(-53.003 -16.175)" fill="#fff"/>
  <path id="패스_5370" data-name="패스 5370" d="M92.685,23.4v.02L96.1,36V34.077L93.2,23.4Zm0,14.564h.444l-.444-.514Zm0-10.108L96,37.545l-3.31-7.972v1.312l2.841,6.845-2.841-5.77V33.1l2.387,4.845L92.685,33.79V34.8L94.5,37.966H96.1V36.288L92.684,26.3Zm3.4-4.456h-.629l.64,3.92V23.474Zm-3.4,13.873.525.694h.629l-1.153-1.525Zm0-1.119,1.2,1.812h.6l-1.8-2.719ZM94.147,23.4,96.1,33V30.468L94.662,23.4Z" transform="translate(-44.49 -16.175)" fill="#fff"/>
  <path id="패스_5371" data-name="패스 5371" d="M128.249,43.88a1.99,1.99,0,0,0,1.472-.613,2.029,2.029,0,0,0,.613-1.485,1.98,1.98,0,0,0-.613-1.471,2.016,2.016,0,0,0-1.486-.615,2.056,2.056,0,0,0-.8.154l1.653.526-1.857-.422a2.247,2.247,0,0,0-.464.357l-.036.04,2.277.492-2.418-.332a2.154,2.154,0,0,0-.274.449l2.641.358-2.712-.168a1.979,1.979,0,0,0-.086.474l2.767.17-2.771.03a2.284,2.284,0,0,0,.06.478l2.719-.031-2.659.225a1.873,1.873,0,0,0,.233.461l2.46-.212-2.334.379c.042.05.087.1.133.145a2.084,2.084,0,0,0,.332.274l1.93-.326-1.733.444a2.071,2.071,0,0,0,.95.22Z" transform="translate(-56.059 -21.965)" fill="#fff"/>
  <path id="패스_5372" data-name="패스 5372" d="M19.146,29.807l1.413,5.35a7.576,7.576,0,0,0,.681.762l-1.877-7.1a7.107,7.107,0,0,0-.218.989Zm.269-1.156,2.665,7.97a7.231,7.231,0,0,0,.621.4l-3.027-9.052a6.538,6.538,0,0,0-.26.68Zm3.074,2.765-2.2-4.547c-.1.151-.2.3-.287.464l5.128,10.576c.181.034.365.06.55.08l-2.208-4.556a3.9,3.9,0,0,1-.979-2.016Zm1.964,2.8,2.157,3.813c.174,0,.346-.011.516-.024l-1.963-3.469A4.077,4.077,0,0,1,24.452,34.22Zm2.044.542a4.121,4.121,0,0,1-.516-.034l2.056,3.151c.16-.032.318-.071.474-.113l-1.958-3H26.5Zm2.852-1.145L31.657,36c.11-.1.22-.21.324-.322l-2.321-2.4a3.9,3.9,0,0,1-.31.339Zm4.569-2.98L23.5,24.216c-.168.073-.332.149-.492.232l4.016,2.47A4.076,4.076,0,0,1,29.9,28.693l4.011,2.472c0-.114.008-.229.008-.344,0-.061,0-.123,0-.185Zm-11.365-.71-1.893-3.343,1.981,3.032a3.769,3.769,0,0,1,.213-.515l-1.8-2.759L22.962,28.9a4.054,4.054,0,0,1,.269-.405l-1.806-2.417,1.927,2.264A4.245,4.245,0,0,1,23.666,28l-1.884-2.214,2.025,2.09a4.157,4.157,0,0,1,.365-.278l-2.05-2.122L24.329,27.5a4.121,4.121,0,0,1,.426-.23l-2.321-2.115,2.52,2.027a3.733,3.733,0,0,1,.519-.168l-2.735-2.206,3.038,2.144a4.054,4.054,0,0,1,.7-.066l-3.454-2.438a7.4,7.4,0,0,0-2.726,2.416l2.156,3.811a3.78,3.78,0,0,1,.1-.747Zm-3.48.9a7.051,7.051,0,0,0,.72,3.1l-.7-3.582C19.079,30.505,19.071,30.662,19.071,30.823Zm.635-2.918,3.9,9.566c.191.079.387.148.585.211L19.984,27.358a6.079,6.079,0,0,0-.277.544ZM32,25.976l-6.091-2.341a7.464,7.464,0,0,0-.928.126l7.6,2.922a7.533,7.533,0,0,0-.582-.71Zm1.72,3.16L24.095,24c-.191.066-.381.133-.564.211l10.306,5.5c-.031-.195-.072-.388-.119-.578Zm-.586-1.554-8.29-3.79c-.233.051-.461.113-.683.185l9.264,4.234a6.7,6.7,0,0,0-.291-.629ZM26.5,23.608c-.066,0-.133,0-.2,0l4.731,1.493a7.528,7.528,0,0,0-4.531-1.5Zm3.97,8,2.775,2.231q.1-.214.188-.435l-2.889-2.321A4.008,4.008,0,0,1,30.47,31.607Zm-.418,1.109L32.552,35c.091-.123.178-.251.261-.38L30.259,32.29a4.43,4.43,0,0,1-.208.426Zm.464-2.419,3.194,2.255c.039-.158.074-.322.1-.483l-3.448-2.439a3.824,3.824,0,0,1,.15.67ZM28.42,34.289l2.173,2.551c.129-.083.257-.17.381-.259l-2.155-2.531a4.177,4.177,0,0,1-.4.239Zm-1.127.4,2.085,2.789c.145-.059.288-.124.429-.192l-2.035-2.719a4.3,4.3,0,0,1-.481.12Z" transform="translate(-19.071 -16.244)" fill="#fff"/>
  <path id="패스_5373" data-name="패스 5373" d="M34.324,30.933,37.7,38.3V37.188l-3.372-7.37Zm0-2.974L37.7,36.695V35.4L34.324,26.67ZM37.135,23.6l.56,2.454V23.6ZM30.271,45.846a7.5,7.5,0,0,0,1.886-.244l-1.886-.212Zm4.053-8.076,2.63,3.311-2.63-2.925v.257c0,.139-.007.277-.021.412l2.306,2.566-2.34-2.308a4.161,4.161,0,0,1-.123.531l2.139,2.11-2.2-1.923a4.123,4.123,0,0,1-.194.446l2.094,1.828-2.177-1.678a4.014,4.014,0,0,1-.251.392l2.139,1.651-2.236-1.519a4.093,4.093,0,0,1-.309.35l2.286,1.554L33.022,41.39a4.217,4.217,0,0,1-.383.312L35.2,43.221l-2.725-1.4a3.912,3.912,0,0,1-.487.271l3,1.542L31.729,42.2a4.228,4.228,0,0,1-.7.2L34.8,44.056l-4.3-1.592c-.074.005-.149.008-.223.008v.4l4.3,1.592a7.452,7.452,0,0,0,2.736-3.685l-2.984-3.758Zm0-14.165v.276l3.372,10.6V32.951L34.724,23.6Zm1.445,0,1.923,7.634v-1.9L36.245,23.6Zm-5.5,20.8,3.131.743c.214-.1.422-.21.625-.328l-3.756-.892Zm0-.752L34.062,44.8a6.048,6.048,0,0,0,.507-.332l-4.3-1.3Zm0,1.483,2.177.378A7.131,7.131,0,0,0,33.3,45.2l-3.031-.531Zm4.053-11.924,3.3,6.2a7.455,7.455,0,0,0,.066-.862l-3.368-6.322Zm0,1.817,3.159,5.146c.055-.22.1-.444.133-.672l-3.292-5.362Zm0,1.487,2.984,4.266c.062-.187.119-.377.167-.571l-3.153-4.5Z" transform="translate(-22.844 -16.667)" fill="#fff"/>
  <path id="패스_5374" data-name="패스 5374" d="M49.648,37.963l5.5-1.373a7.524,7.524,0,0,0,.785-.663L48.63,37.749A7.891,7.891,0,0,0,49.648,37.963Zm-1.194-.26,8.205-2.59c.147-.194.285-.4.412-.6L47.758,37.45c.227.094.461.18.7.253ZM51.3,34.716l-4.681,2.14c.156.1.313.193.477.28l10.889-4.974c.034-.178.066-.357.084-.537l-4.692,2.147a4.1,4.1,0,0,1-2.074.944Zm2.887-1.905,3.925-2.1c0-.168-.011-.335-.025-.5l-3.568,1.9a4.041,4.041,0,0,1-.329.692Zm.556-1.99a3.813,3.813,0,0,1-.034.5l3.245-2c-.035-.156-.074-.308-.118-.46l-3.094,1.9a.334.334,0,0,1,0,.056ZM53.566,28.05l2.46-2.242c-.108-.109-.218-.214-.332-.317l-2.473,2.255a4.075,4.075,0,0,1,.344.3ZM50.5,23.612,43.891,33.725c.073.163.151.323.236.477l2.545-3.895a3.937,3.937,0,0,1,1.826-2.8l2.548-3.9c-.116-.005-.235-.009-.353-.009-.066,0-.129,0-.193,0Zm-.729,11.046-3.441,1.837,3.121-1.923a4.536,4.536,0,0,1-.531-.206l-2.838,1.749,2.632-1.857a4.464,4.464,0,0,1-.418-.265l-2.486,1.757,2.332-1.873a3.682,3.682,0,0,1-.345-.308L45.511,35.4l2.153-1.966a4.031,4.031,0,0,1-.29-.355l-2.181,1.99,2.074-2.149a4.049,4.049,0,0,1-.237-.412l-2.177,2.255,2.088-2.454a3.724,3.724,0,0,1-.173-.5L44.5,34.478l2.207-2.95a3.879,3.879,0,0,1-.066-.678L44.131,34.2a7.3,7.3,0,0,0,2.488,2.653l3.921-2.094a4.372,4.372,0,0,1-.77-.105Zm.923,3.382a7.585,7.585,0,0,0,3.194-.7l-3.684.684c.164.006.326.014.491.014Zm-3.005-.619,9.847-3.785c.08-.186.151-.377.216-.57L47.126,37.151c.182.1.371.186.561.267ZM45.7,25.484,43.289,31.4a6.877,6.877,0,0,0,.133.9l3.009-7.388a7.65,7.65,0,0,0-.729.564Zm3.25-1.671-5.285,9.339c.066.188.137.372.218.55L49.55,23.689c-.2.034-.4.074-.6.119Zm-1.6.569-3.9,8.05q.081.34.192.663L48,24.1c-.222.085-.438.178-.649.282Zm-4.09,6.446c0,.066,0,.133.005.2l1.537-4.6a7.052,7.052,0,0,0-1.539,4.394ZM51.5,26.967l2.295-2.7c-.146-.066-.294-.127-.446-.183L50.959,26.9a4.083,4.083,0,0,1,.542.066Zm1.14.407,2.348-2.429c-.127-.088-.256-.172-.389-.253l-2.4,2.48a4.377,4.377,0,0,1,.442.2Zm-2.486-.455,2.321-3.1c-.164-.04-.332-.074-.5-.1l-2.506,3.352a4.024,4.024,0,0,1,.684-.151Zm4.112,2.037,2.627-2.111c-.086-.125-.175-.249-.265-.369l-2.606,2.093a3.945,3.945,0,0,1,.241.387Zm.407,1.095,2.872-2.025c-.06-.142-.128-.281-.2-.416l-2.8,1.976a3.8,3.8,0,0,1,.123.466Z" transform="translate(-27.463 -16.244)" fill="#fff"/>
  <path id="패스_5375" data-name="패스 5375" d="M60.57,27.807l3.374,4.124v-.724L60.57,27.082Zm0,1.6,3.374,3.647v-.674L60.57,28.735Zm0-3.468,3.374,4.681v-.785L60.57,25.156Zm0,12.114h.815l-.816-.3Zm1.452-14.391,1.923,3.5v-.961l-1.393-2.546ZM60.57,30.811l3.374,3.232v-.635l-3.374-3.23Zm0-7.148v.058l3.374,5.342V28.2L61.08,23.664Zm3.357,0h-.511l.531,1.119V23.7Zm-3.357,8.39,3.374,2.862v-.6L60.57,31.46Zm0,5.571,1.2.432H63.11l-2.541-.913Zm0-1.608L63.945,37.7V37.2L60.57,35.51Zm0,.825,2.84,1.215h.534v-.265L60.57,36.347Zm0-1.7,3.374,1.941v-.524L60.57,34.615Zm0-1.964,3.374,2.529v-.57L60.57,32.608Zm0,1.021,3.374,2.22v-.544L60.57,33.65Z" transform="translate(-33.4 -16.263)" fill="#fff"/>
  <path id="패스_5376" data-name="패스 5376" d="M76.71,23.677l-5.5,1.374a7.4,7.4,0,0,0-.787.663l7.309-1.822a7.455,7.455,0,0,0-1.017-.216Zm1.194.265L69.7,26.529a6.276,6.276,0,0,0-.414.6L78.6,24.191a7.162,7.162,0,0,0-.7-.252Zm-2.847,2.984,4.679-2.14c-.154-.1-.314-.193-.475-.28L68.37,29.484c-.035.176-.062.353-.084.535l4.69-2.146a4.112,4.112,0,0,1,2.078-.948Zm-2.888,1.907-3.923,2.1c0,.166.011.332.025.5l3.572-1.905a3.793,3.793,0,0,1,.325-.691Zm-.556,1.99a3.77,3.77,0,0,1,.035-.5l-3.245,2c.035.156.076.308.121.464l3.09-1.907a.361.361,0,0,1,0-.057Zm1.179,2.765-2.46,2.246c.108.107.218.213.332.313l2.473-2.255A3.82,3.82,0,0,1,72.791,33.589Zm3.07,4.439,6.607-10.113c-.074-.162-.153-.322-.239-.476l-2.545,3.895a3.923,3.923,0,0,1-1.825,2.793l-2.548,3.9c.118.005.235.009.355.009.061,0,.127,0,.191-.007Zm.729-11.044,3.441-1.836-3.12,1.923a4.08,4.08,0,0,1,.531.208l2.841-1.751-2.633,1.857a3.838,3.838,0,0,1,.418.265l2.483-1.757-2.33,1.873a3.847,3.847,0,0,1,.346.306l2.28-1.834L78.693,28.2c.1.112.2.232.29.353l2.181-1.99-2.073,2.145a4.221,4.221,0,0,1,.237.413L81.5,26.872l-2.088,2.45a4.034,4.034,0,0,1,.175.505l2.27-2.667-2.207,2.95a3.871,3.871,0,0,1,.066.678l2.508-3.355a7.34,7.34,0,0,0-2.487-2.653l-3.923,2.095a4.292,4.292,0,0,1,.77.106ZM75.667,23.6a7.6,7.6,0,0,0-3.2.7l3.683-.682c-.162-.007-.325-.014-.488-.014Zm3,.617-9.847,3.789c-.082.186-.153.376-.218.568l10.625-4.086c-.182-.1-.371-.186-.562-.269Zm1.99,11.94,2.41-5.913a6.78,6.78,0,0,0-.133-.9l-3.01,7.384a7.743,7.743,0,0,0,.729-.562ZM77.407,37.83l5.29-9.351c-.066-.188-.137-.37-.219-.55L76.811,37.943c.2-.025.4-.066.592-.11Zm1.6-.57,3.9-8.056c-.054-.225-.118-.447-.192-.663l-4.364,9A7.051,7.051,0,0,0,79,37.262ZM83.1,30.816c0-.066,0-.133-.005-.2l-1.539,4.6a7.049,7.049,0,0,0,1.54-4.4Zm-8.24,3.86L72.563,37.37c.146.066.294.126.446.183L75.4,34.745a4.024,4.024,0,0,1-.538-.07Zm-1.138-.405L71.371,36.7c.127.089.258.174.39.253l2.4-2.478A4.26,4.26,0,0,1,73.719,34.27Zm2.49.45-2.321,3.1c.164.036.328.066.5.1l2.505-3.351a4.1,4.1,0,0,1-.685.147ZM72.1,32.685,69.471,34.8c.086.127.174.249.269.37l2.6-2.095a3.5,3.5,0,0,1-.249-.385Zm-.407-1.1-2.872,2.026c.061.141.127.281.2.417l2.8-1.976a4.384,4.384,0,0,1-.127-.468Z" transform="translate(-36.13 -16.243)" fill="#fff"/>
  <path id="패스_5377" data-name="패스 5377" d="M68.242,30.15l1.485,4.571h.486L68.242,28.65Zm0-3.34,3.13,7.911h.243v-.65l-3.374-8.52Zm3.374-14.305H68.242v4.08l3.374,2.791v-.6l-3.368-2.785,3.368,2.446v-.574l-3.093-2.246,3.093,1.963V17.03l-2.852-1.808,2.852,1.566v-.531L69,14.817l2.62,1.233v-.514L69.191,14.4l2.425.956v-.5l-2.255-.893,2.255.729V14.2L69.5,13.52l2.111.54v-.478l-2-.513,2,.381v-.472L69.7,12.614l1.911.241ZM68.242,34.721h.62l-.62-1.731Zm0-10.329,3.374,7.169V30.474L68.242,23.3Zm0-5.519,3.374,4.076V22.22l-3.374-4.078Zm0-1.619,3.374,3.167v-.636l-3.374-3.168Zm0,.753L71.616,21.6v-.677l-3.374-3.592Zm0,3.072L71.616,26.4v-.862l-3.374-5.315Zm0-1.2,3.374,4.642v-.788l-3.374-4.642Zm0,2.667,3.374,6.137v-.962l-3.374-6.136Z" transform="translate(-36.05 -12.505)" fill="#fff"/>
  <path id="패스_5378" data-name="패스 5378" d="M99.909,29.812l1.413,5.349a7.38,7.38,0,0,0,.681.762l-1.877-7.1A7.02,7.02,0,0,0,99.909,29.812Zm.269-1.156,2.666,7.97a7.321,7.321,0,0,0,.621.4l-3.029-9.05C100.341,28.2,100.254,28.423,100.178,28.656Zm3.074,2.763-2.2-4.547c-.1.151-.2.306-.288.464l5.123,10.577c.181.034.365.061.552.08l-2.207-4.555a3.905,3.905,0,0,1-.978-2.017Zm1.964,2.8,2.155,3.814c.175,0,.348-.011.517-.025l-1.962-3.466A4.045,4.045,0,0,1,105.216,34.224Zm2.044.543a4.7,4.7,0,0,1-.517-.034l2.059,3.149c.161-.032.319-.07.475-.113l-1.965-3Zm2.852-1.146,2.309,2.387c.113-.1.22-.211.326-.323l-2.321-2.4a4.091,4.091,0,0,1-.312.335Zm4.57-2.98-10.412-6.419c-.167.071-.332.147-.492.231l4.01,2.472a4.065,4.065,0,0,1,2.876,1.773l4.012,2.472c.005-.114.009-.227.009-.343,0-.061,0-.127,0-.186Zm-11.369-.711-1.889-3.342,1.98,3.032a3.4,3.4,0,0,1,.215-.515l-1.8-2.759,1.913,2.559a4.007,4.007,0,0,1,.265-.408l-1.805-2.416,1.927,2.263a4.216,4.216,0,0,1,.316-.335l-1.887-2.215,2.023,2.091a4.469,4.469,0,0,1,.363-.279l-2.05-2.122,2.212,2.016a4.019,4.019,0,0,1,.424-.23L103.2,25.157l2.52,2.025a4.078,4.078,0,0,1,.519-.166l-2.744-2.208,3.037,2.144a4.2,4.2,0,0,1,.7-.066l-3.454-2.436a7.373,7.373,0,0,0-2.728,2.415l2.155,3.81a3.821,3.821,0,0,1,.113-.746Zm-3.48.9a7.045,7.045,0,0,0,.721,3.1l-.7-3.582c-.009.159-.017.316-.017.477Zm.635-2.918,3.9,9.566c.19.078.387.146.586.211l-4.205-10.325q-.149.267-.277.545Zm12.292-1.929-6.091-2.342a7.625,7.625,0,0,0-.928.127l7.6,2.918a7.585,7.585,0,0,0-.578-.706Zm1.72,3.16L104.857,24c-.19.066-.378.133-.564.212l10.306,5.5c-.031-.2-.072-.391-.118-.58Zm-.587-1.553L105.6,23.795c-.229.052-.458.114-.681.186l9.264,4.234a6.474,6.474,0,0,0-.289-.632Zm-6.632-3.974c-.066,0-.137,0-.2.006l4.734,1.493a7.53,7.53,0,0,0-4.53-1.5Zm3.974,8,2.773,2.232c.066-.143.133-.286.189-.435l-2.889-2.321a4.292,4.292,0,0,1-.074.522Zm-.419,1.109,2.5,2.282c.09-.124.178-.251.261-.38l-2.555-2.333a4.139,4.139,0,0,1-.208.428Zm.464-2.418,3.192,2.255c.04-.158.074-.32.1-.483l-3.448-2.436a3.791,3.791,0,0,1,.151.661ZM109.185,34.3l2.172,2.551c.128-.084.255-.17.381-.259l-2.157-2.53a4.349,4.349,0,0,1-.4.235Zm-1.127.4,2.087,2.79c.145-.059.288-.125.428-.194l-2.036-2.719a4.1,4.1,0,0,1-.483.118Z" transform="translate(-47.191 -16.246)" fill="#fff"/>
  <path id="패스_5379" data-name="패스 5379" d="M120.5,37.967v-.02l-3.411-12.582v1.928l2.895,10.673Zm0-14.564h-.443l.443.515Zm0,10.108-3.309-9.689L120.5,31.8V30.484l-2.839-6.844,2.839,5.77V28.27l-2.383-4.841,2.383,4.153V26.573L118.68,23.4h-1.592v1.679l3.41,9.993Zm-3.4,4.456h.511l-.521-3.8v3.728Zm3.4-13.87-.525-.7h-.623l1.151,1.525Zm0,1.119L119.3,23.4h-.6l1.8,2.719Zm-1.462,12.752-1.949-9.6V30.9l1.435,7.065Z" transform="translate(-53.003 -16.175)" fill="#fff"/>
  <path id="패스_5380" data-name="패스 5380" d="M92.685,23.4v.02L96.1,36V34.077L93.2,23.4Zm0,14.564h.444l-.444-.514Zm0-10.108L96,37.545l-3.31-7.972v1.312l2.841,6.845-2.841-5.77V33.1l2.387,4.845L92.685,33.79V34.8L94.5,37.966H96.1V36.288L92.684,26.3Zm3.4-4.456h-.629l.64,3.92V23.474Zm-3.4,13.873.525.694h.629l-1.153-1.525Zm0-1.119,1.2,1.812h.6l-1.8-2.719ZM94.147,23.4,96.1,33V30.468L94.662,23.4Z" transform="translate(-44.49 -16.175)" fill="#fff"/>
  <path id="패스_5381" data-name="패스 5381" d="M128.249,43.88a1.99,1.99,0,0,0,1.472-.613,2.029,2.029,0,0,0,.613-1.485,1.98,1.98,0,0,0-.613-1.471,2.016,2.016,0,0,0-1.486-.615,2.056,2.056,0,0,0-.8.154l1.653.526-1.857-.422a2.247,2.247,0,0,0-.464.357l-.036.04,2.277.492-2.418-.332a2.154,2.154,0,0,0-.274.449l2.641.358-2.712-.168a1.979,1.979,0,0,0-.086.474l2.767.17-2.771.03a2.284,2.284,0,0,0,.06.478l2.719-.031-2.659.225a1.873,1.873,0,0,0,.233.461l2.46-.212-2.334.379c.042.05.087.1.133.145a2.084,2.084,0,0,0,.332.274l1.93-.326-1.733.444a2.071,2.071,0,0,0,.95.22Z" transform="translate(-56.059 -21.965)" fill="#fff"/>
</svg>
