<svg xmlns="http://www.w3.org/2000/svg" width="76.936" height="18.906" viewBox="0 0 76.936 18.906">
  <g id="로고" transform="translate(-1.49 -0.375)">
    <g id="Layer_1" data-name="Layer 1" transform="translate(1.49 0.375)">
      <path id="패스_5382" data-name="패스 5382" d="M0,7.449c.058-.032.052-.1.074-.155a1.07,1.07,0,0,1,2.065.344c.006.124,0,.25,0,.38.084-.006.1-.075.127-.117A3.079,3.079,0,0,1,4.644,6.657,4.052,4.052,0,0,1,5.9,6.75,2.916,2.916,0,0,1,7.695,8.064c.049.078.079.155.169.022a3.306,3.306,0,0,1,2.983-1.44A3.536,3.536,0,0,1,14.5,9.858a6.641,6.641,0,0,1,.068.927q0,2.912,0,5.824c0,.164-.042.212-.208.21q-.873-.016-1.746,0c-.161,0-.195-.048-.194-.2q.007-2.872,0-5.744a2.909,2.909,0,0,0-.2-1.161,1.8,1.8,0,0,0-1.923-1.059,2.036,2.036,0,0,0-1.915,1.994,6.948,6.948,0,0,0-.039.75q0,2.6,0,5.209c0,.158-.029.215-.2.212-.575-.012-1.15-.014-1.726,0-.193,0-.222-.068-.222-.235.006-1.908,0-3.816,0-5.724a3.052,3.052,0,0,0-.179-1.126A1.716,1.716,0,0,0,4.142,8.651a2.112,2.112,0,0,0-1.962,2,5.5,5.5,0,0,0-.041.691q0,2.638,0,5.269c0,.16-.032.214-.2.21C1.3,16.8.647,16.8,0,16.8Z" transform="translate(0 -2.146)" fill="#fff"/>
      <path id="패스_5383" data-name="패스 5383" d="M106.564,8.313V7.7a1.051,1.051,0,1,1,2.1.014v8.714a4.22,4.22,0,0,1-1.17,3.121,4.867,4.867,0,0,1-2.552,1.353,6.792,6.792,0,0,1-3.991-.338,4.078,4.078,0,0,1-1.982-1.755c-.082-.135-.057-.192.074-.267.518-.292,1.03-.592,1.541-.9.1-.059.15-.064.213.048a2.739,2.739,0,0,0,2.181,1.364,4.355,4.355,0,0,0,1.616-.068,2.442,2.442,0,0,0,1.962-2.395c.016-.455,0-.911,0-1.369-.068,0-.082.059-.11.095a3.958,3.958,0,0,1-3.134,1.563A4.978,4.978,0,0,1,98.2,12.676a5.108,5.108,0,0,1,3.137-5.708,4.9,4.9,0,0,1,3.112-.135,3.736,3.736,0,0,1,1.977,1.353C106.462,8.224,106.482,8.282,106.564,8.313Zm-6.292,3.439a3.027,3.027,0,0,0,3.135,3.118,3.112,3.112,0,1,0,.022-6.224,3.051,3.051,0,0,0-3.153,3.1Z" transform="translate(-31.735 -2.15)" fill="#fff"/>
      <path id="패스_5384" data-name="패스 5384" d="M59.122,15.427v.245c0,1.631,0,3.262,0,4.893,0,.188-.055.227-.231.224-.576-.011-1.15-.007-1.727,0-.14,0-.193-.026-.193-.183q.007-6.427,0-12.854a1.071,1.071,0,0,1,.842-1.1,1.059,1.059,0,0,1,1.183.551,1.03,1.03,0,0,1,.118.495v.562c.05.016.063-.012.077-.03a4.077,4.077,0,0,1,3.446-1.58,5.027,5.027,0,0,1,4.767,4.09A5.378,5.378,0,0,1,66.4,15.2a4.8,4.8,0,0,1-5.662,1.523A3.678,3.678,0,0,1,59.272,15.6C59.235,15.557,59.2,15.513,59.122,15.427Zm3.117-.4a3.044,3.044,0,0,0,3.142-3.155,3.13,3.13,0,1,0-6.259-.028,3.044,3.044,0,0,0,3.117,3.183Z" transform="translate(-18.43 -2.147)" fill="#fff"/>
      <path id="패스_5385" data-name="패스 5385" d="M32.478,8.289V7.7a1.07,1.07,0,1,1,2.141,0q.005,4.477,0,8.953c0,.13-.036.166-.166.165q-.913-.009-1.827,0c-.12,0-.159-.032-.156-.156.007-.4,0-.8,0-1.206-.062-.015-.068.036-.091.063a3.991,3.991,0,0,1-3.12,1.556,4.986,4.986,0,0,1-5.133-4.414,5.383,5.383,0,0,1,.924-3.948,4.657,4.657,0,0,1,3.081-1.99,4.275,4.275,0,0,1,3.991,1.167C32.242,8,32.342,8.13,32.478,8.289Zm-6.252,3.565a3.739,3.739,0,0,0,.079.786,3.142,3.142,0,1,0,6.115-1.449,3.1,3.1,0,0,0-3.881-2.41,3.063,3.063,0,0,0-2.314,3.072Z" transform="translate(-7.785 -2.147)" fill="#fff"/>
      <path id="패스_5386" data-name="패스 5386" d="M88.83,15.583c-.156.185-.279.349-.419.5a3.184,3.184,0,0,1-1.86.934,4.267,4.267,0,0,1-2.467-.271,3.577,3.577,0,0,1-2.077-2.977,5.315,5.315,0,0,1-.047-.79q0-2.615,0-5.23a1.064,1.064,0,0,1,1.03-1.128A1.076,1.076,0,0,1,84.1,7.756q0,2.435,0,4.871a3.64,3.64,0,0,0,.081.885,1.929,1.929,0,0,0,1.787,1.541,2.992,2.992,0,0,0,1.293-.129,2.268,2.268,0,0,0,1.492-1.869,4.57,4.57,0,0,0,.078-.886v-4.5a1.066,1.066,0,0,1,1.643-.879,1.082,1.082,0,0,1,.5.978v7.29c0,.522-.006,1.043,0,1.565,0,.158-.045.2-.2.2q-.879-.012-1.766,0c-.154,0-.188-.047-.184-.19C88.837,16.293,88.83,15.957,88.83,15.583Z" transform="translate(-26.511 -2.147)" fill="#fff"/>
      <path id="패스_5387" data-name="패스 5387" d="M77.573,9.4q0,2.922,0,5.843c0,.183-.032.249-.233.244-.575-.015-1.15-.009-1.726,0-.142,0-.193-.028-.193-.183q.007-5.843,0-11.686a1.072,1.072,0,0,1,2.106-.333,1.753,1.753,0,0,1,.038.453Z" transform="translate(-24.398 -0.811)" fill="#fff"/>
      <path id="패스_5388" data-name="패스 5388" d="M50.166,9.393V3.571a1.073,1.073,0,0,1,1.653-.914,1.042,1.042,0,0,1,.488.84c.005.068,0,.135,0,.2q0,5.773,0,11.546c0,.186-.037.246-.234.241-.555-.015-1.111-.014-1.666,0-.191,0-.253-.032-.252-.242C50.17,13.291,50.166,11.344,50.166,9.393Z" transform="translate(-16.225 -0.807)" fill="#fff"/>
      <path id="패스_5389" data-name="패스 5389" d="M43.349,11.7V7.067a1.059,1.059,0,0,1,1.124-1.093A1.082,1.082,0,0,1,45.487,7.1q0,1.535,0,3.071,0,3.109,0,6.22c0,.179-.051.22-.222.216-.562-.011-1.124-.012-1.687,0-.185,0-.244-.035-.243-.233C43.353,14.82,43.349,13.261,43.349,11.7Z" transform="translate(-14.019 -1.938)" fill="#fff"/>
      <path id="패스_5390" data-name="패스 5390" d="M42.927,1.36a1.353,1.353,0,1,1,.395.965,1.357,1.357,0,0,1-.395-.965Z" transform="translate(-13.886 -0.009)" fill="#fff"/>
    </g>
  </g>
</svg>
